<?xml version="1.0" encoding="UTF-8"?>
<svg width="56px" height="49px" viewBox="0 0 56 49" version="1.1" xmlns="http://www.w3.org/2000/svg" xmlns:xlink="http://www.w3.org/1999/xlink">
    <!-- Generator: sketchtool 59 (101010) - https://sketch.com -->
    <title>77792961-DC36-4215-A702-196E85BAD0AE</title>
    <desc>Created with sketchtool.</desc>
    <g id="Desk" stroke="none" stroke-width="1" fill="none" fill-rule="evenodd">
        <g id="Desk:ОСАГО:Выдача" transform="translate(-100.000000, -240.000000)">
            <g id="Group-11" transform="translate(64.000000, 200.000000)">
                <g id="Group" transform="translate(32.000000, 32.000000)">
                    <g id="Group-12">
                        <g id="Group-13">
                            <g id="ICON-/-40-/-Color-/-Ins-/-insauto-40-ICON-/-64-/-Color-/-Ins-/-auto">
                                <polygon id="boundbox" points="0 0 64 0 64 64 0 64"></polygon>
                                <g id="Group-3" fill-rule="nonzero">
                                    <g id="Group-43" transform="translate(4.000000, 8.000000)">
                                        <path d="M39.7870368,31.7650579 L39.7865987,31.7684833 C39.6473529,32.8424168 38.7836936,33.6756585 37.6952851,33.8176244 C30.8171531,34.7080427 26.7031303,34.6670152 18.4072941,33.7934138 C17.2971932,33.6766501 16.4009684,32.832613 16.2582784,31.7380768 L15.7826721,28.0870637 C15.6893995,27.3875193 15.9100412,26.4759084 16.3848628,25.9607907 C16.6245386,25.7017294 16.7860115,25.5434872 16.9984536,25.382194 C17.3624406,25.1058427 17.748427,24.9379 18.1909,24.9379 L37.8579,24.9379 C38.3004522,24.9379 38.6866257,25.1059507 39.0504839,25.3823933 C39.2633225,25.5440982 39.4265371,25.7043247 39.6629372,25.9607907 C40.1360931,26.4722166 40.3584543,27.2763915 40.2670368,27.9600579 L39.7870368,31.7650579 Z M38.2837167,27.7024025 C38.3004206,27.5774443 38.2434964,27.3715765 38.1936173,27.3176606 C37.9519213,27.0554516 37.797198,26.9379 37.8579,26.9379 L18.1909,26.9379 C18.2515011,26.9379 18.0970113,27.0551939 17.8541827,27.3176606 C17.8219986,27.3525762 17.7449079,27.6710865 17.7655216,27.8257232 L18.2415092,31.4796282 C18.2626106,31.6414917 18.4128292,31.7829629 18.6166269,31.804399 C26.7687527,32.6628668 30.7319015,32.7023898 37.4375608,31.8342996 C37.6391293,31.808008 37.78196,31.6706028 37.8030543,31.5124343 L38.2837167,27.7024025 Z" id="Stroke-3" fill="#28467F"></path>
                                        <path d="M9.77464845,29.3956285 C8.6482393,29.9084578 7.32307086,29.9605687 6.1445941,29.5379082 L1.35765087,27.7043446 L0.642349129,29.5720554 L5.44934913,31.4130554 C7.13674263,32.0184818 9.00149579,31.9451523 10.6023559,31.216315 C12.2288902,30.4779546 13.4353631,29.1321128 13.9036757,27.5118728 C14.0623874,26.9552879 13.9506766,26.365835 13.6017472,25.904208 C13.2736407,25.4680871 12.7703783,25.1897316 12.2179675,25.1274881 L1.11325895,23.8616345 L0.886741047,25.8487655 L11.934815,27.1081624 C11.6031373,28.0863228 10.8283996,28.9172809 9.77464845,29.3956285 Z" id="Stroke-7" fill="#FF9800"></path>
                                        <path d="M55.1740338,25.8489606 L54.9509662,23.8614394 L43.6709662,25.1274394 C43.11775,25.1889072 42.6103526,25.4649062 42.277983,25.9012688 C41.9259229,26.3613185 41.8114267,26.9528823 41.9698304,27.508411 C42.4507141,29.1384235 43.6743705,30.4823292 45.3223501,31.2191149 C46.9416937,31.9446653 48.8273046,32.0176668 50.513525,31.422118 L55.4153452,29.5738817 L54.7096548,27.7025183 L49.8276548,29.5435183 C48.6438626,29.9613806 47.2895515,29.9089484 46.1393857,29.3936144 C45.0691615,28.9151337 44.2826882,28.0868313 43.9416109,27.1096202 L55.1740338,25.8489606 Z" id="Stroke-9" fill="#FF9800"></path>
                                        <path d="M43,46.1902 C43,47.7077418 44.2299721,48.9382 45.748,48.9382 L52.391,48.9382 C53.8206183,48.9382 55.0117419,47.8418899 55.1295986,46.4166089 L55.9965948,35.9376552 L56,24.5442 C56,23.3300082 55.7089882,22.1327447 55.1516705,21.0526536 L48.4885691,8.14645712 L47.2119633,5.36032395 C46.2486371,3.2610657 44.3095282,1.77178941 42.0316364,1.37969328 C31.4563288,-0.441747445 24.0432298,-0.46965041 13.9306172,1.35305807 C11.6773558,1.75934561 9.75774158,3.24616485 8.80489495,5.32563307 L7.49115072,8.18807532 L0.848430943,21.0524571 C0.291011756,22.1327447 0,23.3300082 0,24.5442 L0,35.8552 L0.870405225,46.4166552 C0.988258147,47.8418899 2.17938173,48.9382 3.609,48.9382 L10.252,48.9382 C11.7700279,48.9382 13,47.7077418 13,46.1902 L13,41.9382 L43,41.9382 L43,46.1902 Z M45,46.1902 L45,39.9382 L11,39.9382 L11,46.1902 C11,46.6033491 10.6652814,46.9382 10.252,46.9382 L3.609,46.9382 C3.21989771,46.9382 2.8956825,46.6397923 2.8635986,46.2517911 L1.99659478,35.7727448 L2,24.5442 C2,23.6492696 2.21458488,22.7664371 2.62567047,21.9697464 L9.28856906,9.06394288 L10.6228493,6.15932468 C11.3030733,4.67482149 12.6758365,3.61156065 14.2854493,3.32132994 C24.1632041,1.5409525 31.3417879,1.56797274 41.692264,3.35068956 C43.3205173,3.63096268 44.7062267,4.69521654 45.3941265,6.19427194 L46.6910367,9.02207605 L53.3744309,21.9699429 C53.7854151,22.7664371 54,23.6492696 54,24.5442 L54,35.8552 L53.1364052,46.2517448 C53.1043175,46.6397923 52.7801023,46.9382 52.391,46.9382 L45.748,46.9382 C45.3347186,46.9382 45,46.6033491 45,46.1902 Z" id="Stroke-1" fill="#28467F"></path>
                                        <path d="M8.37078939,15.9366036 C7.10604255,15.9104975 6.79855261,15.488141 6.89819106,14.491365 C6.93920039,14.0811106 7.06160338,13.6182705 7.24105199,13.1434426 C7.38107936,12.7729249 7.52009586,12.4811655 7.60488568,12.3264165 L5.85091432,11.3653835 C5.72456663,11.5959794 5.54687686,11.9689038 5.37019796,12.4364029 C5.13384717,13.0617961 4.9687036,13.6862503 4.90810894,14.292435 C4.69292929,16.445077 5.8811484,17.9379 8.4999,17.9379 L8.64436191,17.9379 L8.78291747,17.8970148 C12.8087323,16.7090694 42.2779024,16.8507357 47.1703294,17.9150457 L47.3829,17.9379 C49.9962711,17.9379 51.195214,16.4532168 51.0052678,14.3038692 C50.9511128,13.6910763 50.7904636,13.0597208 50.5576204,12.4279996 C50.3877821,11.9672156 50.2168517,11.6001647 50.0951535,11.373256 L48.3326465,12.318544 C48.4136619,12.4695987 48.546802,12.7554998 48.6810342,13.1196819 C48.8575207,13.598503 48.9764386,14.0658533 49.0130322,14.4799308 C49.1020936,15.4877097 48.7778674,15.9166666 47.4825917,15.9371286 C42.0418871,14.8402869 13.2148226,14.6987645 8.37078939,15.9366036 Z" id="Stroke-5" fill="#28467F"></path>
                                        <path d="M31.746043,16.3889673 C32.4542995,14.107382 34.5735302,12.5215 37,12.5215 C39.5404194,12.5215 41.7331039,14.2571485 42.3386963,16.6863897 L44.2793037,16.2026103 C43.4528534,12.8874306 40.4639191,10.5215 37,10.5215 C33.6911948,10.5215 30.8021789,12.6834347 29.835957,15.7960327 L31.746043,16.3889673 Z" id="Stroke-11" fill="#28467F"></path>
                                    </g>
                                </g>
                            </g>
                        </g>
                    </g>
                </g>
            </g>
        </g>
    </g>
</svg>