<?xml version="1.0" encoding="UTF-8"?>
<svg width="58px" height="59px" viewBox="0 0 58 59" version="1.1" xmlns="http://www.w3.org/2000/svg" xmlns:xlink="http://www.w3.org/1999/xlink">
    <!-- Generator: sketchtool 59 (101010) - https://sketch.com -->
    <title>F27C98B9-2CA9-484F-B622-F590B4E9C705</title>
    <desc>Created with sketchtool.</desc>
    <g id="Mobile" stroke="none" stroke-width="1" fill="none" fill-rule="evenodd" stroke-linecap="round" stroke-linejoin="round">
        <g id="320:Лоадер" transform="translate(-131.000000, -203.000000)" stroke-width="2">
            <g id="Group-5" transform="translate(16.000000, 200.000000)">
                <g id="Group-2">
                    <g id="ICON-/-64-/-Color-/-Basic-/-wheel" transform="translate(112.000000, 0.000000)">
                        <g id="Group-43" transform="translate(4.000000, 4.062500)">
                            <path d="M56,28.4375 C56,44.143125 43.464,56.875 28,56.875 C12.536,56.875 0,44.143125 0,28.4375 C0,12.731875 12.536,0 28,0 C43.464,0 56,12.731875 56,28.4375 Z" id="Stroke-1" stroke="#28467F"></path>
                            <path d="M46,28.4375 C46,38.5338281 37.941,46.71875 28,46.71875 C18.059,46.71875 10,38.5338281 10,28.4375 C10,18.3411719 18.059,10.15625 28,10.15625 C37.941,10.15625 46,18.3411719 46,28.4375 Z" id="Stroke-3" stroke="#28467F"></path>
                            <path d="M30,28.4375 C30,29.55875 29.104,30.46875 28,30.46875 C26.896,30.46875 26,29.55875 26,28.4375 C26,27.31625 26.896,26.40625 28,26.40625 C29.104,26.40625 30,27.31625 30,28.4375 Z" id="Stroke-7" stroke="#F48100"></path>
                            <line x1="28" y1="3.046875" x2="28" y2="0" id="Stroke-9" stroke="#28467F"></line>
                            <line x1="15.5" y1="6.4483048" x2="14" y2="3.809711" id="Stroke-11" stroke="#28467F"></line>
                            <line x1="6.3496" y1="15.7421875" x2="3.7506" y2="14.21875" id="Stroke-13" stroke="#28467F"></line>
                            <line x1="3" y1="28.4375" x2="0" y2="28.4375" id="Stroke-15" stroke="#28467F"></line>
                            <line x1="6.3496" y1="41.1328125" x2="3.7506" y2="42.65625" id="Stroke-17" stroke="#28467F"></line>
                            <line x1="15.5" y1="50.4266971" x2="14" y2="53.0652909" id="Stroke-19" stroke="#28467F"></line>
                            <line x1="28" y1="53.828125" x2="28" y2="56.875" id="Stroke-21" stroke="#28467F"></line>
                            <line x1="40.5" y1="50.4266971" x2="42" y2="53.0652909" id="Stroke-23" stroke="#28467F"></line>
                            <line x1="49.6504" y1="41.1328125" x2="52.2494" y2="42.65625" id="Stroke-25" stroke="#28467F"></line>
                            <line x1="53" y1="28.4375" x2="56" y2="28.4375" id="Stroke-27" stroke="#28467F"></line>
                            <line x1="49.6504" y1="15.7421875" x2="52.2494" y2="14.21875" id="Stroke-29" stroke="#28467F"></line>
                            <line x1="40.5" y1="6.4483048" x2="42" y2="3.809711" id="Stroke-31" stroke="#28467F"></line>
                            <path d="M34.0586,23.1505625 L40.4276,21.9074375 C38.4316,17.9982968 34.7046,15.1596248 30.2756,14.4232967 L31.0796,20.9517343 C31.2596,22.4213437 32.6256,23.4298594 34.0586,23.1505625 Z" id="Stroke-33" stroke="#F48100"></path>
                            <path d="M24.9209,20.9517343 L25.7249,14.4232967 C21.2949,15.1596248 17.5679,17.9982968 15.5719,21.9074375 L21.9419,23.1505625 C23.3739,23.4298594 24.7399,22.4213437 24.9209,20.9517343 Z" id="Stroke-35" stroke="#F48100"></path>
                            <path d="M34.8232,32.6556943 L37.9572,38.4274911 C40.4552,35.8589755 42.0002,32.3327256 42.0002,28.4378037 C42.0002,27.7106162 41.9292,27.0027256 41.8262,26.3049912 L35.9612,29.09796 C34.6402,29.7266318 34.1192,31.3587412 34.8232,32.6556943 Z" id="Stroke-37" stroke="#F48100"></path>
                            <path d="M26.1582,36.331444 L21.7272,41.1363659 C23.6162,42.1001941 25.7422,42.6567566 28.0002,42.6567566 C30.2582,42.6567566 32.3842,42.1001941 34.2722,41.1363659 L29.8422,36.331444 C28.8452,35.250819 27.1552,35.250819 26.1582,36.331444 Z" id="Stroke-39" stroke="#F48100"></path>
                            <path d="M20.0391,29.0980626 L14.1741,26.3050939 C14.0701,27.0028283 14.0001,27.7107189 14.0001,28.4379064 C14.0001,32.3328282 15.5451,35.8590782 18.0431,38.4275938 L21.1771,32.655797 C21.8811,31.3588439 21.3591,29.7267345 20.0391,29.0980626 Z" id="Stroke-41" stroke="#F48100"></path>
                        </g>
                    </g>
                </g>
            </g>
        </g>
    </g>
</svg>