<?xml version="1.0" encoding="UTF-8"?>
<svg width="232px" height="104px" viewBox="0 0 232 104" version="1.1" xmlns="http://www.w3.org/2000/svg" xmlns:xlink="http://www.w3.org/1999/xlink">
    <!-- Generator: Sketch 59 (86127) - https://sketch.com -->
    <title>бин</title>
    <desc>Created with Sketch.</desc>
    <g id="Page-1" stroke="none" stroke-width="1" fill="none" fill-rule="evenodd">
        <g id="Страховые-компании" transform="translate(-114.000000, -136.000000)" fill-rule="nonzero">
            <g id="бин" transform="translate(114.000000, 136.000000)">
                <polygon id="Path" fill="#CD3428" points="144.223838 72.2090909 165.068485 36.1137374 144.223838 0 136.626061 0 157.465455 36.1137374 136.626061 72.2090909"></polygon>
                <path d="M149.749495,36.1268687 L128.912727,0 L87.1735354,0 C102.808741,3.17148771 114.046723,16.9166828 114.048081,32.870303 C114.048081,34.0022222 113.990303,35.1157576 113.88,36.2214141 C123.486869,42.12 129.873939,52.5777778 129.873939,64.5062626 C129.888578,67.097525 129.606609,69.6819499 129.033535,72.2090909 L149.749495,36.1268687 Z" id="Path" fill="#82ACDC"></path>
                <path d="M129.033535,72.2090909 C126.198212,51.541174 108.54452,36.1366603 87.6830303,36.1268687 C95.6379798,36.1268687 100.767071,30.4856566 100.780202,22.9535354 C100.780202,18.7252525 96.3549495,6.33979798 87.1735354,0.0131313131 L66.3682828,36.1268687 L87.2155556,72.2222222 L129.033535,72.2090909 Z" id="Path" fill="#313C7C"></path>
                <path d="M7.36929293,103.343515 L1.22646465,103.343515 L1.22646465,87.5622222 L-3.55271368e-15,85.4612121 L11.4741414,85.4612121 L11.4741414,87.719798 L4.64585859,87.719798 L4.64585859,92.5626263 L7.49010101,92.5626263 C11.1432323,92.5022222 13.0682828,95.0864646 13.0682828,97.610303 C13.0577778,101.066465 10.6179798,103.359192 7.36929293,103.343515 Z M6.74161616,94.8343291 L4.65373737,94.8343291 L4.65373737,101.082222 L6.81777778,101.082222 C8.26222222,100.995556 9.55171717,100.031717 9.55171717,98.02 C9.55171717,96.2682828 8.64828283,94.8290909 6.74161616,94.8343291 Z" id="Shape" fill="#313C7C"></path>
                <polygon id="Path" fill="#313C7C" points="26.459596 103.343434 26.459596 89.4242424 19.1480808 103.359192 15.5133333 103.338182 15.5133333 87.5543434 14.2527273 85.4690909 18.5466667 85.4690909 18.5466667 98.7212121 25.5193939 85.4690909 29.6557576 85.4690909 29.6557576 103.327677"></polygon>
                <polygon id="Path" fill="#313C7C" points="43.3517172 103.343434 43.3517172 94.8107071 37.2036364 94.8107071 37.2036364 103.343434 33.650303 103.343434 33.650303 87.4230303 32.5315152 85.4743434 37.2036364 85.4743434 37.2036364 92.5494949 43.3517172 92.5494949 43.3517172 85.4743434 46.9024242 85.4743434 46.9024242 103.332929"></polygon>
                <path d="M160.307071,93.1167677 C161.008283,92.2789899 161.714747,91.160202 161.714747,89.8523232 C161.714747,87.6751515 159.905253,85.4480808 156.764242,85.5006061 L154.72101,85.5006061 L150.119798,85.4717172 L151.346263,87.5727273 L151.346263,103.354082 L157.489091,103.354082 C160.737778,103.374949 163.1777,101.07697 163.1777,97.6339394 C163.191272,95.6950382 162.068251,93.9277967 160.307071,93.1167677 L160.307071,93.1167677 Z M155.976364,87.7434343 C158.006465,87.730303 158.40303,88.8254545 158.40303,90.3381818 C158.40303,91.5777778 157.352525,92.6335354 155.881818,92.5731313 C155.512308,92.607405 155.140419,92.607405 154.770909,92.5731313 L154.770909,87.7460606 L155.976364,87.7434343 Z M156.924444,101.082222 L154.770909,101.082222 L154.770909,94.8343434 L156.871919,94.8343434 C158.773333,94.8343434 159.674141,96.2630303 159.674141,98.02 C159.668889,100.023838 158.38202,100.995556 156.924444,101.082222 Z" id="Shape" fill="#313C7C"></path>
                <path d="M102.361212,91.1917172 C102.361212,93.7181818 100.436162,96.2971717 96.7856566,96.2393939 L93.9519192,96.2393939 L93.9387879,103.343434 L90.5115152,103.343434 L90.5115152,87.4361616 L89.3822222,85.4743434 L96.6622222,85.4743434 C99.9345455,85.4480808 102.361212,87.7513131 102.361212,91.1917172 Z M98.8525253,90.7951515 C98.8525253,88.7886869 97.5630303,87.8169697 96.1185859,87.7329293 L93.9519192,87.7329293 L93.9519192,93.9756128 L96.0529293,93.9756128 C97.9490909,93.9860606 98.8525253,92.5494949 98.8525253,90.7951515 Z" id="Shape" fill="#313C7C"></path>
                <polygon id="Path" fill="#313C7C" points="210.791717 103.343434 210.791717 89.4242424 203.480202 103.359192 199.842828 103.338182 199.842828 87.5543434 198.584848 85.4690909 202.88404 85.4690909 202.88404 98.7212121 209.856768 85.4690909 213.990505 85.4690909 213.990505 103.327677"></polygon>
                <path d="M65.8614141,103.74 C61.3678788,103.74 58.9779798,100.937778 58.9779798,97.7731313 C58.9779798,97.7731313 58.9779798,92.3945455 58.9779798,90.6086869 C58.9779798,87.8143434 61.2575758,85.7054545 63.7315152,85.3561616 C63.9731313,85.3220202 65.7642424,85.2931313 65.9191919,85.2931313 C69.4173737,85.2931313 72.3614141,87.2969697 72.3614141,90.590303 L72.3614141,91.4307071 L68.9052525,91.4307071 L68.9052525,91.0341414 C68.9052525,88.7860606 67.3111111,87.9640404 65.8614141,87.9640404 C64.1832323,87.9036364 62.4787879,88.9593939 62.4472727,90.8529293 C62.4656566,92.9539394 62.4814141,97.909697 62.4814141,97.909697 C62.4814141,100.236566 64.3907071,101.006061 65.840404,101.006061 C67.2139394,101.006061 69.2020202,100.218182 69.2020202,97.909697 L69.2020202,96.9458586 L72.6476768,96.9458586 L72.6476768,97.7652525 C72.6450505,101.013939 70.1343434,103.74 65.8614141,103.74 Z" id="Path" fill="#313C7C"></path>
                <polygon id="Path" fill="#313C7C" points="82.3622222 87.9062626 82.3622222 103.343434 78.9480808 103.343434 78.9480808 87.9062626 74.4834343 87.9062626 74.4834343 85.4743434 86.8741414 85.4743434 86.8741414 87.9062626"></polygon>
                <path d="M140.455152,103.663838 C137.04101,103.663838 133.419394,102.153737 133.419394,97.6470707 C133.419394,97.6470707 133.398384,92.620404 133.419394,90.9737374 C133.419394,87.4571717 136.355556,85.4743434 138.879394,85.3115152 C139.44404,85.2721212 140.300202,85.2957576 140.455152,85.2957576 C143.921818,85.2957576 147.412121,87.0264646 147.412121,91.5856566 L147.412121,97.6470707 C147.412121,102.203636 143.921818,103.663838 140.455152,103.663838 Z M143.913939,91.0577778 C143.913939,89.1537374 141.952121,87.9771717 140.478788,87.9430303 C138.81899,87.9036364 136.970101,89.069697 136.896566,90.7426263 C136.896566,92.7018182 136.896566,98.0672727 136.896566,98.0672727 C136.896566,99.9240404 138.816364,100.935152 140.44202,100.935152 C141.912727,100.935152 143.927071,99.9529293 143.900808,98.0672727 L143.913939,91.0577778 Z" id="Shape" fill="#313C7C"></path>
                <polygon id="Path" fill="#313C7C" points="192.331717 103.343434 192.331717 94.8107071 186.186263 94.8107071 186.186263 103.343434 182.630303 103.343434 182.630303 87.4230303 181.516768 85.4743434 186.186263 85.4743434 186.186263 92.5494949 192.331717 92.5494949 192.331717 85.4743434 195.887677 85.4743434 195.887677 103.332929"></polygon>
                <path d="M176.684444,103.343434 L175.371313,98.689697 L169.252121,98.689697 L167.93899,103.343434 L164.637778,103.343434 L169.651313,87.5412121 L168.48,85.4743434 L174.475758,85.4743434 L180.035556,103.332929 L176.684444,103.343434 Z M172.285455,88.4761616 L169.869293,96.5965657 L174.756768,96.5965657 L172.285455,88.4761616 Z" id="Shape" fill="#313C7C"></path>
                <path d="M113.83798,103.343434 L112.524848,98.689697 L106.395152,98.689697 L105.08202,103.343434 L101.791313,103.343434 L106.802222,87.5412121 L105.620404,85.4743434 L111.618788,85.4743434 L117.17596,103.332929 L113.83798,103.343434 Z M109.433737,88.4761616 L107.025455,96.5965657 L111.915556,96.5965657 L109.433737,88.4761616 Z" id="Shape" fill="#313C7C"></path>
                <polygon id="Path" fill="#313C7C" points="218.008687 103.359192 218.008687 87.559596 216.758586 85.4822222 231.142626 85.4822222 231.142626 87.7723232 221.722222 87.7723232 221.722222 92.5573737 227.975354 92.5573737 227.975354 94.8185859 221.722222 94.8185859 221.722222 101.066465 231.439394 101.066465 231.439394 103.359192"></polygon>
                <polygon id="Path" fill="#313C7C" points="130.732727 85.2957576 127.615354 85.2957576 124.928687 91.1260606 122.236768 85.2957576 119.116768 85.2957576 123.150707 94.4062626 119.195556 103.343434 122.315556 103.343434 124.928687 97.6917172 127.544444 103.343434 130.653939 103.343434 126.70404 94.4062626"></polygon>
            </g>
        </g>
    </g>
</svg>