<?xml version="1.0" encoding="UTF-8"?>
<svg width="256px" height="28px" viewBox="0 0 256 28" version="1.1" xmlns="http://www.w3.org/2000/svg" xmlns:xlink="http://www.w3.org/1999/xlink">
    <!-- Generator: Sketch 59.1 (86144) - https://sketch.com -->
    <title>logo</title>
    <desc>Created with Sketch.</desc>
    <g id="Page-1" stroke="none" stroke-width="1" fill="none" fill-rule="evenodd">
        <g id="Страховые-компании" transform="translate(-114.000000, -1601.000000)" fill="#0047BB" fill-rule="nonzero">
            <g id="logo" transform="translate(114.000000, 1601.000000)">
                <path d="M24.4698328,26.9784615 L18.7505017,26.9784615 L18.7505017,9.55505017 L6.20735786,26.9784615 L0.702073579,26.9784615 L0.702073579,0.419531773 L6.48989967,0.419531773 L6.48989967,17.851505 L19.1015385,0.419531773 L24.4698328,0.419531773 L24.4698328,26.9784615 Z M28.6565886,0.488026756 L34.5129097,0.488026756 L34.5129097,10.9420736 L46.2255518,10.9420736 L46.2255518,0.488026756 L52.0818729,0.488026756 L52.0818729,26.9784615 L46.2255518,26.9784615 L46.2255518,16.3103679 L34.5129097,16.3103679 L34.5129097,26.9784615 L28.6565886,26.9784615 L28.6565886,0.488026756 Z M62.047893,26.9784615 L56.2600669,26.9784615 L56.2600669,0.419531773 L74.2485619,0.419531773 L74.2485619,5.7193311 L62.047893,5.7193311 L62.047893,26.9784615 Z M102.340067,13.7332441 C102.340067,5.64227425 96.4837458,0.136989967 88.4013378,0 L88.2643478,0 C80.1733779,0.0684949833 74.3170569,5.65083612 74.3170569,13.6647492 C74.3170569,21.7557191 80.1733779,27.2610033 88.255786,27.3294983 L88.3927759,27.3294983 C96.4837458,27.3294983 102.340067,21.7471572 102.340067,13.7332441 Z M88.3328428,22.029699 C83.6580602,22.029699 80.3874247,18.8189967 80.3874247,13.7332441 C80.3874247,8.57043478 83.6666221,5.4367893 88.3328428,5.4367893 C92.9990635,5.4367893 96.2782609,8.64749164 96.2782609,13.7332441 C96.2782609,18.8189967 92.9990635,22.029699 88.3328428,22.029699 M163.343411,5.85632107 L154.764415,5.85632107 L154.764415,0.488026756 L177.701672,0.488026756 L177.701672,5.85632107 L169.199732,5.85632107 L169.199732,26.9784615 L163.343411,26.9784615 L163.343411,5.85632107 L163.343411,5.85632107 Z M181.263411,0.488026756 L193.181538,0.488026756 C199.525886,0.488026756 203.361605,4.25525084 203.361605,9.69204013 C203.361605,15.830903 198.618328,19.0330435 192.625017,19.0330435 L187.119732,19.0330435 L187.119732,26.9784615 L181.263411,26.9784615 L181.263411,0.488026756 L181.263411,0.488026756 Z M192.762007,13.8017391 C195.690167,13.8017391 197.359732,12.0551171 197.359732,9.69204013 C197.359732,7.11491639 195.544615,5.65083612 192.616455,5.65083612 L187.042676,5.65083612 L187.042676,13.741806 L192.762007,13.741806 L192.762007,13.8017391 Z M255.580468,26.9784615 L246.17097,13.3822074 L255.160936,0.4109699 L248.465552,0.4109699 L242.814716,8.57043478 L237.16388,0.4109699 L230.26301,0.4109699 L239.330033,13.5191973 L229.920535,26.9784615 L236.61592,26.9784615 L242.677726,18.2624749 L248.671037,26.9784615 L255.580468,26.9784615 Z M223.370702,26.9784615 L229.295518,26.9784615 L217.933913,0.282541806 L212.565619,0.282541806 L201.204013,26.9870234 L207.128829,26.9870234 L209.637458,20.8481605 L220.862074,20.8481605 L223.370702,26.9784615 L223.370702,26.9784615 Z M211.726555,15.6853512 L215.279732,7.38889632 L218.83291,15.6853512 L211.726555,15.6853512 Z M118.864482,22.029699 C114.189699,22.029699 110.919064,18.8189967 110.919064,13.7332441 C110.919064,8.57043478 114.198261,5.4367893 118.864482,5.4367893 C121.304615,5.4367893 123.325217,6.130301 125.071839,7.59438127 L128.693512,3.97270903 C126.253378,1.60107023 122.974181,0.0684949833 118.932977,0.0684949833 L118.795987,0.0684949833 C110.705017,0.136989967 104.857258,5.7193311 104.857258,13.7332441 C104.857258,21.824214 110.713579,27.3294983 118.795987,27.3979933 L118.932977,27.3979933 C122.905686,27.3294983 126.184883,25.7969231 128.693512,23.4937793 L125.071839,19.872107 C123.325217,21.3361873 121.304615,22.029699 118.864482,22.029699 M143.197324,22.029699 C138.522542,22.029699 135.251906,18.8189967 135.251906,13.7332441 C135.251906,8.57043478 138.531104,5.4367893 143.197324,5.4367893 C145.637458,5.4367893 147.65806,6.130301 149.404682,7.59438127 L153.026355,3.97270903 C150.586221,1.60107023 147.307023,0.0684949833 143.265819,0.0684949833 L143.128829,0.0684949833 C135.03786,0.136989967 129.1901,5.7193311 129.1901,13.7332441 C129.1901,21.824214 135.046421,27.3294983 143.128829,27.3979933 L143.265819,27.3979933 C147.238528,27.3294983 150.517726,25.7969231 153.026355,23.4937793 L149.404682,19.872107 C147.65806,21.3361873 145.637458,22.029699 143.197324,22.029699" id="Shape"></path>
            </g>
        </g>
    </g>
</svg>