<?xml version="1.0" encoding="UTF-8"?>
<svg width="96px" height="96px" viewBox="0 0 96 96" version="1.1" xmlns="http://www.w3.org/2000/svg" xmlns:xlink="http://www.w3.org/1999/xlink">
    <!-- Generator: sketchtool 58 (101010) - https://sketch.com -->
    <title>1172CEA6-8F37-4E24-93F8-A1E3B9B39073</title>
    <desc>Created with sketchtool.</desc>
    <g id="Desk" stroke="none" stroke-width="1" fill="none" fill-rule="evenodd">
        <g id="ОСАГО:Главная" transform="translate(-224.000000, -539.000000)">
            <g id="Group-22" transform="translate(64.000000, 507.000000)">
                <g id="Group" transform="translate(32.000000, 32.000000)">
                    <g id="Group-2" transform="translate(128.000000, 0.000000)">
                        <g id="Group-25" transform="translate(4.000000, 4.000000)">
                            <path d="M56,24.0562 L56,22.0002 C56,21.4482 55.553,21.0002 55,21.0002 C54.447,21.0002 54,21.4482 54,22.0002 L54,24.0562 C54,24.6082 54.447,25.0562 55,25.0562 C55.553,25.0562 56,24.6082 56,24.0562" id="Fill-1" fill="#28467F"></path>
                            <path d="M73.3848,65.3848 C73.7758,64.9938 73.7758,64.3618 73.3848,63.9708 L71.9998,62.5858 L71.9998,65.4048 C72.1918,65.5828 72.4338,65.6778 72.6778,65.6778 C72.9338,65.6778 73.1898,65.5798 73.3848,65.3848" id="Fill-3" fill="#28467F"></path>
                            <path d="M51.1025,44.75 C51.0555,44.831 51.0315,44.917 50.9905,45 L53.4405,45 L63.5355,32.216 L58.4475,45 L60.5995,45 L67.9295,26.585 C68.1135,26.124 67.9295,25.598 67.4995,25.349 C67.0695,25.101 66.5215,25.205 66.2145,25.596 L51.1835,44.63 C51.1545,44.668 51.1265,44.708 51.1025,44.75" id="Fill-5" fill="#28467F"></path>
                            <path d="M38.7764,31.7764 C39.0324,31.7764 39.2884,31.6784 39.4834,31.4834 C39.8744,31.0924 39.8744,30.4604 39.4834,30.0694 L38.0294,28.6154 C37.6384,28.2244 37.0054,28.2244 36.6154,28.6154 C36.2244,29.0054 36.2244,29.6384 36.6154,30.0294 L38.0694,31.4834 C38.2644,31.6784 38.5204,31.7764 38.7764,31.7764" id="Fill-7" fill="#28467F"></path>
                            <path d="M21.0811,30.2085 C20.9581,30.4565 21.0591,30.7555 21.3071,30.8785 C21.3781,30.9145 21.4531,30.9305 21.5281,30.9305 C21.7131,30.9305 21.8901,30.8285 21.9771,30.6525 C26.0221,22.4965 32.9001,16.1465 41.3431,12.7745 C41.6001,12.6725 41.7251,12.3815 41.6211,12.1255 C41.5191,11.8685 41.2271,11.7435 40.9721,11.8465 C32.3011,15.3095 25.2361,21.8305 21.0811,30.2085" id="Fill-9" fill="#28467F"></path>
                            <path d="M73.3848,28.6152 C72.9938,28.2242 72.3618,28.2242 71.9708,28.6152 L70.5168,30.0692 C70.1258,30.4602 70.1258,31.0932 70.5168,31.4832 C70.7118,31.6782 70.9678,31.7762 71.2238,31.7762 C71.4798,31.7762 71.7358,31.6782 71.9308,31.4832 L73.3848,30.0292 C73.7758,29.6382 73.7758,29.0062 73.3848,28.6152" id="Fill-11" fill="#28467F"></path>
                            <path d="M59,14.251 C57.688,14.092 56.354,14 55,14 C53.646,14 52.313,14.092 51,14.251 L51,8 L59,8 L59,14.251 Z M48,6 C46.896,6 46,5.103 46,4 C46,2.897 46.896,2 48,2 L62,2 C63.104,2 64,2.897 64,4 C64,5.103 63.104,6 62,6 L48,6 Z M61,14.557 L61,8 L62,8 C64.205,8 66,6.206 66,4 C66,1.794 64.205,0 62,0 L48,0 C45.795,0 44,1.794 44,4 C44,6.206 45.795,8 48,8 L49,8 L49,14.557 C34.299,17.27 22.984,29.752 22.067,45 L24.071,45 C25.106,28.836 38.579,16 55,16 C72.094,16 86,29.907 86,47 C86,57.819 80.425,67.356 72,72.904 L72,75.272 C81.58,69.491 88,58.982 88,47 C88,30.854 76.34,17.388 61,14.557 L61,14.557 Z" id="Fill-13" fill="#28467F"></path>
                            <path d="M21.082,23.5562 C21.242,23.5562 21.4,23.4792 21.496,23.3372 C24.48,18.9402 28.461,15.1672 33.008,12.4272 C33.244,12.2852 33.32,11.9772 33.178,11.7412 C33.035,11.5042 32.728,11.4272 32.491,11.5712 C27.822,14.3852 23.734,18.2602 20.67,22.7752 C20.514,23.0042 20.574,23.3152 20.803,23.4702 C20.889,23.5282 20.986,23.5562 21.082,23.5562" id="Fill-15" fill="#28467F"></path>
                            <path d="M83.5,47 C83.5,31.285 70.715,18.5 55,18.5 C39.958,18.5 27.609,30.216 26.578,45 L27.581,45 C28.609,30.768 40.51,19.5 55,19.5 C70.164,19.5 82.5,31.836 82.5,47 C82.5,55.75 78.388,63.552 72,68.592 L72,69.86 C78.975,64.66 83.5,56.349 83.5,47" id="Fill-17" fill="#28467F"></path>
                            <path d="M80,48 C80.553,48 81,47.552 81,47 C81,46.448 80.553,46 80,46 L77.943,46 C77.392,46 76.943,46.448 76.943,47 C76.943,47.552 77.392,48 77.943,48 L80,48 Z" id="Fill-19" fill="#28467F"></path>
                            <path d="M68,84 C68,85.103 67.103,86 66,86 L4,86 C2.897,86 2,85.103 2,84 L2,51 C2,50.636 2.098,50.294 2.269,50 C2.615,49.402 3.262,49 4,49 L66,49 C67.103,49 68,49.897 68,51 L68,84 Z M66,47 L4,47 C1.791,47 0,48.791 0,51 L0,84 C0,86.209 1.791,88 4,88 L66,88 C68.209,88 70,86.209 70,84 L70,51 C70,48.791 68.209,47 66,47 L66,47 Z" id="Fill-21" fill="#F57C00"></path>
                            <path d="M68,49 L40.968,70.964 C38.063,73.323 33.911,73.354 30.972,71.039 L3,49" id="Stroke-23" stroke="#F57C00" stroke-width="2" stroke-linecap="round" stroke-linejoin="round"></path>
                        </g>
                    </g>
                </g>
            </g>
        </g>
    </g>
</svg>