<?xml version="1.0" encoding="UTF-8"?>
<svg width="96px" height="96px" viewBox="0 0 96 96" version="1.1" xmlns="http://www.w3.org/2000/svg" xmlns:xlink="http://www.w3.org/1999/xlink">
    <!-- Generator: sketchtool 58 (101010) - https://sketch.com -->
    <title>9F714D36-1414-4A7C-9BE8-93FB904F6B01</title>
    <desc>Created with sketchtool.</desc>
    <g id="Desk" stroke="none" stroke-width="1" fill="none" fill-rule="evenodd">
        <g id="ОСАГО:Главная" transform="translate(-1120.000000, -539.000000)" stroke-width="2">
            <g id="Group-22" transform="translate(64.000000, 507.000000)">
                <g id="Group-13" transform="translate(928.000000, 32.000246)">
                    <g id="Group-11" transform="translate(128.000000, -0.000246)">
                        <g id="Group-8" transform="translate(15.000000, 15.000000)">
                            <path d="M60.0518,61.8650464 L38.0418,61.8650464 C35.2898,61.8650464 32.6098,60.9970464 30.3798,59.3840464 L30.3798,59.3840464 C29.0158,58.3960464 27.3738,57.8650464 25.6908,57.8650464 L21.9998,57.8650464" id="Stroke-1" stroke="#F57C00" stroke-linecap="round" stroke-linejoin="round"></path>
                            <path d="M21.3457,31.0637464 L26.6967,28.7407464 C28.1017,28.1297464 29.3017,27.1287464 30.1557,25.8567464 L39.4757,11.9537464 C40.4697,10.4707464 40.9997,8.72674639 40.9997,6.94174639 L40.9997,2.00074639 C40.9997,0.729746392 42.1697,-0.218253608 43.4137,0.0437463918 C45.5797,0.501746392 47.3547,2.04574639 48.1087,4.12674639 L48.6967,5.75074639 C49.5537,8.11774639 49.8397,10.6527464 49.5327,13.1517464 L47.8447,26.8647464 L64.1037,26.8647464" id="Stroke-3" stroke="#F57C00" stroke-linecap="round" stroke-linejoin="round"></path>
                            <path d="M64,26.8650464 C65.65,26.8650464 67,28.2150464 67,29.8650464 L67,32.8650464 C67,34.5150464 65.65,35.8650464 64,35.8650464 L63,35.8650464 C64.65,35.8650464 66,37.2150464 66,38.8650464 L66,41.8650464 C66,43.5150464 64.65,44.8650464 63,44.8650464 L62,44.8650464 C63.65,44.8650464 65,46.2150464 65,47.8650464 L65,50.8650464 C65,52.5150464 63.65,53.8650464 62,53.8650464 L60,53.8650464 C61.65,53.8650464 63,55.2150464 63,56.8650464 L63,58.8650464 C63,60.5150464 61.65,61.8650464 60,61.8650464" id="Stroke-5" stroke="#F57C00" stroke-linecap="round" stroke-linejoin="round"></path>
                            <path d="M19,67.0002464 L2,67.0002464 C0.896,67.0002464 0,66.1042464 0,65.0002464 L0,29.0002464 C0,27.8962464 0.896,27.0002464 2,27.0002464 L19,27.0002464 C20.104,27.0002464 21,27.8962464 21,29.0002464 L21,65.0002464 C21,66.1042464 20.104,67.0002464 19,67.0002464 Z" id="Stroke-7" stroke="#28467F" stroke-linecap="round" stroke-linejoin="round"></path>
                            <path d="M12.7285,58.8611464 C12.7285,60.4431464 11.4465,61.7251464 9.8645,61.7251464 C8.2825,61.7251464 6.9995,60.4431464 6.9995,58.8611464 C6.9995,57.2791464 8.2825,55.9971464 9.8645,55.9971464 C11.4465,55.9971464 12.7285,57.2791464 12.7285,58.8611464 Z" id="Stroke-9" stroke="#28467F"></path>
                        </g>
                    </g>
                </g>
            </g>
        </g>
    </g>
</svg>