<?xml version="1.0" encoding="UTF-8"?>
<svg width="256px" height="65px" viewBox="0 0 256 65" version="1.1" xmlns="http://www.w3.org/2000/svg" xmlns:xlink="http://www.w3.org/1999/xlink">
    <!-- Generator: Sketch 59 (86127) - https://sketch.com -->
    <title>ренессанс</title>
    <desc>Created with Sketch.</desc>
    <g id="Page-1" stroke="none" stroke-width="1" fill="none" fill-rule="evenodd">
        <g id="Страховые-компании" transform="translate(-105.000000, -905.000000)" fill-rule="nonzero">
            <g id="ренессанс" transform="translate(105.000000, 905.000000)">
                <g id="Group" transform="translate(0.000000, 51.052023)" fill="#50287D">
                    <path d="M6.71191563,13.3084742 C5.83169281,13.3126062 4.95843341,13.1522978 4.13709941,12.8357217 C3.34433085,12.5310197 2.62097034,12.0699302 2.01007732,11.4799006 C0.734819967,10.221463 0.0118073597,8.50790729 0.000143334063,6.71631294 C-0.0115206916,4.9247186 0.68911965,3.20189429 1.94788369,1.92695922 L2.01007732,1.86476559 C2.62027303,1.2708039 3.34359651,0.805508095 4.13709941,0.496505768 C4.96622865,0.176865313 5.84821468,0.0165042157 6.73679308,0.0238341915 C7.85412366,0.0184442025 8.95728071,0.27400182 9.95842304,0.770157733 C10.3789662,0.970499535 10.7685463,1.23021955 11.1152245,1.54135873 C11.4092244,1.80384378 11.6609609,2.1101231 11.8615481,2.4493857 L11.3391216,4.00422641 C11.1105561,3.69347498 10.8430056,3.41338305 10.5430431,3.17083179 C10.2175892,2.90007858 9.86296909,2.66644653 9.48575146,2.47426315 C9.09210151,2.2662445 8.67433351,2.10749266 8.24187889,2.00159158 C7.79073066,1.88607931 7.32688174,1.82757584 6.86118034,1.82744942 C6.14637137,1.81775214 5.43524143,1.93136462 4.7590357,2.16329501 C4.15347836,2.36804828 3.59814067,2.69870737 3.12956263,3.13351561 C2.67901599,3.56074705 2.3230714,4.07771419 2.08470967,4.65104015 C1.83082808,5.29182272 1.7081638,5.97705072 1.72398663,6.66611371 C1.71540044,7.35978221 1.84215271,8.04846951 2.0971484,8.693626 C2.32837085,9.27394645 2.69015344,9.79321087 3.15444008,10.2111505 C3.62984361,10.6307745 4.18365937,10.9520722 4.78391315,11.1564937 C5.46011888,11.3884241 6.17124882,11.5020366 6.88605779,11.4923393 C7.84875198,11.5120406 8.80146203,11.2941563 9.65989362,10.8579643 C10.3830081,10.5072243 11.0103964,9.98653475 11.4883863,9.34043974 L11.9859353,10.870403 C10.6608819,12.4044251 8.73892075,13.2928788 6.71191563,13.3084742 Z" id="Path"></path>
                    <polygon id="Path" points="23.8897958 0.247731254 23.8897958 2.0140303 19.5611193 2.0140303 19.5611193 13.0223025 17.89433 13.0223025 17.89433 2.00159158 13.5158986 2.00159158 13.5158986 0.247731254 23.9022345 0.247731254"></polygon>
                    <path d="M34.4627127,4.15349112 C34.4700422,4.68668578 34.3684589,5.21576537 34.1641832,5.70833183 C33.9785835,6.17182372 33.703895,6.59442146 33.3556661,6.9522044 C33.0042073,7.30528441 32.5796168,7.57702236 32.1117935,7.74828285 C31.5888502,7.93421205 31.0373117,8.02683683 30.4823204,8.02193481 L28.1314013,8.02193481 L28.1314013,12.9974251 L26.464612,12.9974251 L26.464612,0.247731254 L30.4823204,0.247731254 C31.5330561,0.220756566 32.5497974,0.621130437 33.3000246,1.35729087 C34.0502518,2.0934513 34.4697966,3.10243316 34.4627127,4.15349112 L34.4627127,4.15349112 Z M32.7212911,4.15349112 C32.7263232,3.87547805 32.6711607,3.59966598 32.5595876,3.34497395 C32.4596354,3.10145986 32.316344,2.87809392 32.1366709,2.68572149 C31.9544803,2.49879634 31.7394394,2.34700273 31.5022959,2.23792736 C31.2493958,2.11816453 30.973585,2.05451589 30.6937788,2.05134648 L28.0692076,2.05134648 L28.0692076,6.26807449 L30.6937788,6.26807449 C31.2556538,6.30650555 31.8062423,6.09733817 32.2008725,5.69553289 C32.5955027,5.29372761 32.7947164,4.73945998 32.7461685,4.17836857 L32.7212911,4.15349112 Z" id="Shape"></path>
                    <path d="M37.9206784,10.0494471 L36.6768058,13.0347413 L34.8731906,13.0347413 L40.2094039,0.247731254 L42.0627741,0.247731254 L47.324355,13.0347413 L45.5207398,13.0347413 L44.2768672,10.0494471 L37.9331171,10.0494471 L37.9206784,10.0494471 Z M43.518105,8.28314805 L41.0303598,2.38719207 L38.5426147,8.28314805 L43.4185952,8.28314805 L43.518105,8.28314805 Z" id="Shape"></path>
                    <polygon id="Path" points="48.4562791 13.0223025 52.9964139 6.40490047 48.7050536 0.185537625 50.8071982 0.185537625 54.0163894 4.81274358 57.2628968 0.222853803 59.3526028 0.222853803 55.0612424 6.44221665 59.6511322 13.0596187 57.6236199 13.0596187 54.0785831 8.08412844 50.5957399 13.0596187 48.4687178 13.0596187"></polygon>
                    <path d="M67.6989877,13.2710771 C66.8078796,13.2806369 65.9238977,13.1114538 65.099294,12.773528 C64.3009808,12.4466304 63.5678903,11.9789692 62.9349558,11.3928295 C62.2982248,10.8021428 61.7901009,10.086535 61.4423087,9.29068483 C60.7185738,7.58556557 60.7185738,5.65959077 61.4423087,3.95447151 C61.790412,3.15879731 62.2984935,2.44324921 62.9349558,1.85232687 C63.5666223,1.27693551 64.2951637,0.817912341 65.0868553,0.496505768 C66.7696564,-0.165501923 68.6407577,-0.165501923 70.3235588,0.496505768 C71.1425943,0.813746501 71.8970623,1.27738605 72.5500907,1.86476559 C73.1860187,2.45615632 73.6940161,3.17158607 74.0427378,3.96691024 C74.4024039,4.80791429 74.5844958,5.71413912 74.577603,6.62879753 C74.4826832,10.3495225 71.420757,13.3062469 67.6989877,13.2710771 L67.6989877,13.2710771 Z M72.798912,6.67855244 C72.8018509,6.02589952 72.6617367,5.38052525 72.3883873,4.78786613 C71.8629896,3.60867215 70.8859771,2.68992188 69.6767451,2.23792736 C68.3666849,1.73975637 66.919342,1.73975637 65.6092818,2.23792736 C64.4000515,2.69853146 63.4271777,3.62657237 62.9100783,4.81274358 C62.3847383,6.00114783 62.3847383,7.35595704 62.9100783,8.54436129 C63.4343094,9.72438349 64.4117335,10.6435208 65.6217205,11.0943001 C66.9319928,11.5913152 68.3789115,11.5913152 69.6891838,11.0943001 C70.8937277,10.6395026 71.8658752,9.72111437 72.3883873,8.54436129 C72.6617367,7.95170217 72.8018509,7.3063279 72.798912,6.65367499 L72.798912,6.65367499 L72.798912,6.67855244 Z" id="Shape"></path>
                    <path d="M84.0932282,6.20588086 C84.6031698,6.47425486 85.0324899,6.87352259 85.3371007,7.36268235 C85.6934374,7.92779875 85.8751625,8.58547055 85.8595272,9.25336866 C85.8682004,9.81205999 85.7623704,10.3666092 85.5485591,10.8828417 C85.3567006,11.3372436 85.0630654,11.7415239 84.690287,12.0645207 C84.3280828,12.3857684 83.9051139,12.6310903 83.4464144,12.7859668 C82.9359146,12.9502511 82.4029789,13.0341779 81.8666963,13.0347413 L77.525581,13.0347413 L77.525581,0.247731254 L81.2571987,0.247731254 C81.79218,0.240244985 82.3250861,0.315774982 82.8369169,0.471628316 C83.2922995,0.610061375 83.7152732,0.838467189 84.0807894,1.1433195 C85.189516,2.16750386 85.5155614,3.78769869 84.8893066,5.1610279 C84.6967311,5.55548698 84.4208833,5.90347961 84.0807894,6.18100341 L84.0932282,6.20588086 Z M82.1030321,11.1814031 C82.3743619,11.1827964 82.6438273,11.136482 82.8991105,11.0445452 C83.1465921,10.9583213 83.3717854,10.8181066 83.558363,10.6340672 C83.7452881,10.4518766 83.8970817,10.2368356 84.0061571,9.9996922 C84.1259199,9.7467921 84.1895686,9.4709813 84.192738,9.19117503 C84.191928,8.68797205 83.9851692,8.20703323 83.6205566,7.86023138 C83.2405735,7.4750464 82.7185982,7.26355641 82.1776644,7.27561127 L79.1923702,7.27561127 L79.1923702,11.1564937 L82.1030321,11.1814031 Z M81.5806056,5.50931222 C82.0745388,5.51902458 82.5555844,5.35132064 82.9364267,5.03664065 C83.3094401,4.73180909 83.5243829,4.2744839 83.5210851,3.79276808 C83.5220287,3.31954832 83.3232948,2.86788034 82.9737429,2.54889551 C82.6010444,2.19847673 82.1043601,2.01054214 81.5930443,2.02646903 L79.1923702,2.02646903 L79.1923702,5.63369948 L81.5806056,5.50931222 Z" id="Shape"></path>
                    <path d="M90.6484366,10.0494471 L89.404564,13.0347413 L87.6009488,13.0347413 L92.8625298,0.247731254 L94.7158999,0.247731254 L99.9899196,13.0347413 L98.1863044,13.0347413 L96.9424318,10.0494471 L90.586243,10.0494471 L90.6484366,10.0494471 Z M96.2458632,8.28314805 L93.758118,2.38719207 L91.2703729,8.28314805 L96.1463534,8.28314805 L96.2458632,8.28314805 Z" id="Shape"></path>
                    <polygon id="Path" points="104.18177 0.247731254 104.18177 5.55906712 111.79427 5.55906712 111.79427 0.247731254 113.473498 0.247731254 113.473498 13.0223025 111.806709 13.0223025 111.806709 7.30048872 104.18177 7.30048872 104.18177 13.0223025 102.514981 13.0223025 102.514981 0.247731254"></polygon>
                    <polygon id="Path" points="126.894883 13.0223025 126.894883 2.8847411 119.357016 13.0223025 117.478768 13.0223025 117.478768 0.247731254 119.157996 0.247731254 119.157996 10.4101701 126.745619 0.247731254 128.524356 0.247731254 128.524356 13.0223025 126.857567 13.0223025"></polygon>
                    <polygon id="Path" points="139.793842 0.247731254 139.793842 2.0140303 134.258609 2.0140303 134.258609 5.55906712 139.234099 5.55906712 139.234099 7.30048872 134.258609 7.30048872 134.258609 11.2560035 139.793842 11.2560035 139.793842 13.0223025 132.59182 13.0223025 132.59182 0.247731254"></polygon>
                </g>
                <g id="Group-2">
                    <path d="M18.7007367,18.4448543 C18.7093139,19.7590902 18.463108,21.0625331 17.9757366,22.2830899 C17.4899037,23.4210776 16.762291,24.4397354 15.8433835,25.2683842 C14.9404133,26.1098201 13.8832665,26.7687266 12.730148,27.2088255 C11.4496609,27.6921049 10.0898531,27.9307946 8.72132417,27.912502 L4.88308859,27.912502 L4.88308859,39.7897088 L-1.04805054e-13,39.7897088 L-1.04805054e-13,8.76397123 L8.78529476,8.76397123 C11.4086479,8.64535453 13.9638585,9.6191871 15.8428361,11.4537157 C17.7218136,13.2882443 18.7565277,15.8194135 18.7007367,18.4448543 Z M4.88308859,22.7095605 L9.38235363,22.7095605 C10.5214716,22.744609 11.6272298,22.3222708 12.4529421,21.5367663 C13.246852,20.7409856 13.6786475,19.6537863 13.6470598,18.5301484 C13.6821084,17.3910304 13.2597702,16.2852723 12.4742656,15.45956 C11.6757232,14.6233433 10.5593877,14.1659559 9.40367716,14.2014716 L4.88308859,14.2014716 L4.88308859,22.730884 L4.88308859,22.7095605 Z" id="Shape" fill="#50287D"></path>
                    <polygon id="Path" fill="#50287D" points="51.5602979 25.9933843 62.0941222 25.9933843 62.0941222 17.869119 66.8066225 17.869119 66.8066225 39.7683853 62.0941222 39.7683853 62.0941222 31.004414 51.5602979 31.004414 51.5602979 39.7897088 46.8477975 39.7897088 46.8477975 17.8904425 51.5602979 17.8904425 51.5602979 26.0147078"></polygon>
                    <path d="M83.7801532,35.6742673 C86.3569613,35.7519707 88.8372819,34.6912047 90.561036,32.7742671 L91.9470655,36.3779438 C89.9221979,38.865897 86.9022109,40.3329708 83.6948591,40.3867677 C82.1319266,40.4224354 80.5763645,40.1619691 79.1102999,39.6191205 C77.764085,39.1434564 76.5301597,38.3958428 75.4852996,37.4227969 C74.4191545,36.3988686 73.5895258,35.1544256 73.0544171,33.7764731 C72.4636126,32.2464911 72.1669958,30.6187156 72.1801523,28.9786786 C72.1729564,27.4716551 72.4403096,25.9759227 72.969123,24.5647077 C73.4514689,23.2228972 74.1740301,21.9800918 75.1014761,20.8970604 C76.0579362,19.8082326 77.2355963,18.9358918 78.5558881,18.3382366 C79.9868156,17.7111484 81.5356636,17.3984702 83.0978002,17.4213248 C86.0191559,17.3721984 88.815898,18.6030766 90.7529478,20.7904427 C91.6973665,21.8452117 92.4222512,23.0775157 92.8853009,24.415443 C93.348884,25.7896192 93.586528,27.2298859 93.5889774,28.6801492 C93.5932406,29.2584014 93.5504524,29.8360421 93.4610362,30.4073552 L76.9566233,30.4073552 C77.5827164,33.6293052 80.5046881,35.8847021 83.7801532,35.6742673 L83.7801532,35.6742673 Z M82.9058884,22.368384 C80.1531135,22.166692 77.6495819,23.9613383 76.9566233,26.6330902 L88.83383,26.6330902 C88.1202647,23.9849045 85.6435407,22.2030887 82.9058884,22.368384 L82.9058884,22.368384 Z" id="Shape" fill="#50287D"></path>
                    <path d="M31.9426494,35.6742673 C34.5189045,35.7490521 36.9980497,34.6887887 38.7235322,32.7742671 L40.1095618,36.3779438 C38.0846941,38.865897 35.0647071,40.3329708 31.8573553,40.3867677 C30.2944228,40.4224354 28.7388607,40.1619691 27.2727961,39.6191205 C25.9041188,39.1234824 24.6546556,38.3462001 23.6051488,37.3375027 C22.5456439,36.3123395 21.7232331,35.0678062 21.1955898,33.6911789 C20.6032944,32.161617 20.3066252,30.5335544 20.321325,28.8933845 C20.3087268,27.3877904 20.568803,25.8923524 21.0889721,24.4794136 C21.5726078,23.1382041 22.2950398,21.8956211 23.2213252,20.8117662 C24.177339,19.7224533 25.3551115,18.8500292 26.6757372,18.2529425 C28.1066647,17.6258543 29.6555127,17.3131761 31.2176493,17.3360307 C34.1384257,17.2897749 36.9340217,18.5201486 38.872797,20.7051486 C39.8172156,21.7599176 40.5421004,22.9922216 41.0051501,24.3301488 C41.4774579,25.7027481 41.7223499,27.1432895 41.7301501,28.594855 C41.7359719,29.1731581 41.6931742,29.7509273 41.6022089,30.322061 L25.1191195,30.322061 C25.707549,33.5781918 28.6400794,35.8783953 31.9426494,35.6742673 Z M31.0683846,22.368384 C28.3156097,22.166692 25.8120781,23.9613383 25.1191195,26.6330902 L37.1029439,26.6330902 C36.3833123,23.9515504 33.8583605,22.1608045 31.0897082,22.368384 L31.0683846,22.368384 Z" id="Shape" fill="#50287D"></path>
                    <path d="M132.120598,40.4294147 C125.761201,40.4294147 120.605891,35.2741049 120.605891,28.914708 C120.605891,22.5553111 125.761201,17.4000013 132.120598,17.4000013 C135.231585,17.3186078 138.20316,18.6901041 140.159569,21.1102957 L138.858834,25.0125018 C137.186692,23.4944401 135.055157,22.5787808 132.802951,22.411031 C130.975638,22.2397168 129.158417,22.828434 127.778694,24.038717 C126.398971,25.2489999 125.578518,26.9740331 125.510303,28.8080903 C125.48075,30.6187318 126.263036,32.3475839 127.642656,33.5205907 C129.118291,34.7767997 131.016459,35.4247689 132.952216,35.3330908 C135.322995,35.2973367 137.598616,34.3946734 139.349275,32.7955906 L140.735304,36.6977968 C138.52907,39.1157696 135.393529,40.4739868 132.120598,40.4294147 Z" id="Path" fill="#50287D"></path>
                    <path d="M108.622067,40.4294147 C102.26267,40.4294147 97.10736,35.2741049 97.10736,28.914708 C97.10736,22.5553111 102.26267,17.4000013 108.622067,17.4000013 C111.733054,17.3186078 114.704629,18.6901041 116.661038,21.1102957 L115.360303,25.0125018 C113.68816,23.4944401 111.556625,22.5787808 109.30442,22.411031 C107.477107,22.2397168 105.659885,22.828434 104.280163,24.038717 C102.90044,25.2489999 102.079987,26.9740331 102.011772,28.8080903 C101.982219,30.6187318 102.764505,32.3475839 104.144125,33.5205907 C105.619759,34.7767997 107.517928,35.4247689 109.453684,35.3330908 C111.824463,35.2973367 114.100085,34.3946734 115.850744,32.7955906 L117.236773,36.6977968 C115.030539,39.1157696 111.894997,40.4739868 108.622067,40.4294147 Z" id="Path" fill="#50287D"></path>
                    <path d="M209.183839,40.4294147 C202.824442,40.4294147 197.669132,35.2741049 197.669132,28.914708 C197.669132,22.5553111 202.824442,17.4000013 209.183839,17.4000013 C212.294826,17.3186078 215.266401,18.6901041 217.22281,21.1102957 L215.922075,25.0125018 C214.235727,23.4934646 212.088052,22.5848328 209.823545,22.4323546 C207.996232,22.2610403 206.17901,22.8497576 204.799288,24.0600405 C203.419565,25.2703235 202.599112,26.9953566 202.530897,28.8294139 C202.501344,30.6400554 203.28363,32.3689075 204.66325,33.5419142 C206.138884,34.7981232 208.037053,35.4460925 209.972809,35.3544143 C212.343588,35.3186603 214.61921,34.4159969 216.369869,32.8169142 L217.755898,36.7191203 C215.554176,39.1157888 212.438123,40.4645279 209.183839,40.4294147 L209.183839,40.4294147 Z" id="Path" fill="#50287D"></path>
                    <path d="M161.824277,39.7897088 L161.824277,37.508091 C160.119037,39.3505884 157.724478,40.4011048 155.213982,40.4080912 C152.175821,40.4510336 149.253144,39.2453436 147.128946,37.0727768 C145.004748,34.9002099 143.865157,31.951132 143.976481,28.914708 C143.714424,25.8905542 144.753835,22.8980747 146.834124,20.6875137 C148.914412,18.4769528 151.838324,17.257917 154.872805,17.3360307 C157.434421,17.3554242 159.89137,18.3549902 161.738982,20.1294132 L161.738982,17.9970601 L166.302218,17.9970601 L166.302218,39.7897088 L161.824277,39.7897088 L161.824277,39.7897088 Z M148.646334,28.8933845 C148.672032,30.6722286 149.4253,32.3628961 150.730682,33.5715832 C152.036065,34.7802703 153.779596,35.4014542 155.555158,35.2904438 C157.877556,35.3942721 160.121306,34.4371481 161.653688,32.688973 L161.653688,24.9485312 C160.090853,23.2452779 157.865867,22.3039378 155.555158,22.368384 C153.749286,22.2229578 151.966439,22.8500865 150.649296,24.0940548 C149.332153,25.3380232 148.604254,27.082155 148.646334,28.8933845 Z" id="Shape" fill="#50287D"></path>
                    <polygon id="Path" fill="#50287D" points="177.838248 25.9933843 188.500014 25.9933843 188.500014 17.869119 193.212514 17.869119 193.212514 39.7683853 188.500014 39.7683853 188.500014 31.004414 177.838248 31.004414 177.838248 39.7897088 173.125748 39.7897088 173.125748 17.8904425 177.838248 17.8904425 177.838248 26.0147078"></polygon>
                    <rect id="Rectangle" fill="#50287D" x="222.340457" y="33.7551495" width="6.03455926" height="6.03455926"></rect>
                    <polygon id="Path" fill="#D0DF00" points="238.994135 31.004414 222.340457 3.19744231e-14 255.647813 3.19744231e-14"></polygon>
                </g>
            </g>
        </g>
    </g>
</svg>