<?xml version="1.0" encoding="UTF-8"?>
<svg width="247px" height="28px" viewBox="0 0 247 28" version="1.1" xmlns="http://www.w3.org/2000/svg" xmlns:xlink="http://www.w3.org/1999/xlink">
    <!-- Generator: Sketch 59 (86127) - https://sketch.com -->
    <title>росгосстрах</title>
    <desc>Created with Sketch.</desc>
    <g id="Page-1" stroke="none" stroke-width="1" fill="none" fill-rule="evenodd">
        <g id="Страховые-компании" transform="translate(-114.000000, -460.000000)" fill="#9E0918" fill-rule="nonzero">
            <g id="росгосстрах" transform="translate(114.000000, 460.000000)">
                <path d="M112.9625,27.3 L131.25,27.3 L131.25,18.8125 L125.3875,18.8125 L125.3875,21.4375 L118.7375,21.4375 L118.7375,5.8625 L125.3875,5.8625 L125.3875,8.4875 L131.25,8.4875 L131.25,0 L112.9625,0 L112.9625,27.3 Z M89.775,27.3 L108.0625,27.3 L108.0625,0 L89.775,0 L89.775,27.3 Z M95.6375,5.8625 L102.2875,5.8625 L102.2875,21.4375 L95.6375,21.4375 L95.6375,5.8625 Z M69.2125,27.3 L75.075,27.3 L75.075,5.8625 L85.4,5.8625 L85.4,0 L69.2125,0 L69.2125,27.3 Z M46.2,27.3 L64.4875,27.3 L64.4875,18.8125 L58.625,18.8125 L58.625,21.4375 L51.975,21.4375 L51.975,5.8625 L58.625,5.8625 L58.625,8.4875 L64.4875,8.4875 L64.4875,0 L46.2,0 L46.2,27.3 Z M135.8875,27.3 L154.175,27.3 L154.175,18.8125 L148.3125,18.8125 L148.3125,21.4375 L141.75,21.4375 L141.75,5.8625 L148.4,5.8625 L148.4,8.4875 L154.2625,8.4875 L154.2625,0 L135.975,0 L135.975,27.3 L135.8875,27.3 Z M180.775,27.3 L186.6375,27.3 L186.6375,19.075 L199.15,19.075 L199.15,0 L180.8625,0 L180.8625,27.3 L180.775,27.3 Z M186.6375,5.8625 L193.2875,5.8625 L193.2875,13.3 L186.6375,13.3 L186.6375,5.8625 Z M246.3125,0 L240.1,0 L236.8625,10.5875 L235.2875,10.5875 L232.1375,0 L225.925,0 L230.5625,13.5625 L225.575,27.3 L231.7875,27.3 L235.375,16.45 L236.95,16.45 L240.5375,27.3 L246.75,27.3 L241.7625,13.5625 L246.3125,0 Z M0,27.3 L5.8625,27.3 L5.8625,19.075 L18.375,19.075 L18.375,0 L0,0 L0,27.3 Z M5.8625,5.8625 L12.5125,5.8625 L12.5125,13.3 L5.8625,13.3 L5.8625,5.8625 Z M205.5375,-3.55271368e-15 L202.9125,27.3 L208.775,27.3 L209.3875,20.825 L215.775,20.825 L216.3875,27.3 L222.25,27.3 L219.625,-3.55271368e-15 L205.5375,-3.55271368e-15 Z M209.825,14.9625 L210.7,5.775 L214.375,5.775 L215.25,14.9625 L209.825,14.9625 Z M23.1,27.3 L41.3875,27.3 L41.3875,0 L23.1,0 L23.1,27.3 Z M28.875,5.8625 L35.525,5.8625 L35.525,21.4375 L28.875,21.4375 L28.875,5.8625 Z M158.2875,5.8625 L164.5,5.8625 L164.5,27.3 L170.3625,27.3 L170.3625,5.8625 L176.575,5.8625 L176.575,0 L158.2875,0 L158.2875,5.8625 L158.2875,5.8625 Z" id="Shape"></path>
            </g>
        </g>
    </g>
</svg>