<?xml version="1.0" encoding="UTF-8"?>
<svg width="96px" height="96px" viewBox="0 0 96 96" version="1.1" xmlns="http://www.w3.org/2000/svg" xmlns:xlink="http://www.w3.org/1999/xlink">
    <!-- Generator: sketchtool 58 (101010) - https://sketch.com -->
    <title>49A12240-4961-4E88-BD80-AB76DA46C7CA</title>
    <desc>Created with sketchtool.</desc>
    <g id="Desk" stroke="none" stroke-width="1" fill="none" fill-rule="evenodd">
        <g id="ОСАГО:Главная" transform="translate(-672.000000, -539.000000)">
            <g id="Group-22" transform="translate(64.000000, 507.000000)">
                <g id="Group-6" transform="translate(481.000000, 32.000000)">
                    <g id="Group-3" transform="translate(127.000000, 0.000000)">
                        <g id="Group-7" transform="translate(15.000000, 5.000000)">
                            <path d="M54,2.9653 L54,2.0003 C54,0.8953 53.104,0.0003 52,0.0003 L14,0.0003 C12.896,0.0003 12,0.8953 12,2.0003 L12,2.9653 C12,9.5163 6.627,14.8273 0,14.8273 L0,53.3793 C0,71.3953 33,86.0003 33,86.0003 C33,86.0003 66,71.3953 66,53.3793 L66,14.8273 C59.373,14.8273 54,9.5163 54,2.9653 Z" id="Stroke-1" stroke="#28467F" stroke-width="2" stroke-linecap="round" stroke-linejoin="round"></path>
                            <path d="M7,20.5068 L7,53.4598 C7,62.7768 23.115,73.3958 32.982,78.3878 C35.76,76.9768 40.71,74.2908 45.543,70.8158 C54.221,64.5748 59,58.4118 59,53.4598 L59,20.5068 C53.1,18.1908 48.754,13.1148 47.424,6.9998 L18.576,6.9998 C17.246,13.1148 12.9,18.1908 7,20.5068 M32.982,80.4628 C32.828,80.4628 32.674,80.4278 32.533,80.3568 C29.715,78.9528 5,66.2678 5,53.4368 L5,19.7998 C5,19.3738 5.276,19.0048 5.679,18.8638 C11.482,16.8238 15.725,11.8438 16.758,5.8588 C16.839,5.3888 17.273,4.9998 17.75,4.9998 L48.25,4.9998 C48.727,4.9998 49.161,5.3888 49.242,5.8588 C50.275,11.8438 54.518,16.8238 60.321,18.8638 C60.724,19.0048 61,19.3738 61,19.7998 L61,53.4368 C61,59.0378 55.928,65.7688 46.719,72.3908 C41.5,76.1438 36.156,78.9918 33.436,80.3558 C33.293,80.4268 33.139,80.4628 32.982,80.4628" id="Fill-3" fill="#28467F"></path>
                            <path d="M29.332,51.9507 L18.299,41.0447 C17.518,40.2727 17.518,39.0207 18.299,38.2487 L21.127,35.4517 C21.908,34.6797 23.175,34.6797 23.956,35.4517 L29.332,40.7667 C30.113,41.5387 31.379,41.5387 32.16,40.7667 L44.767,28.3057 C45.548,27.5337 46.813,27.5337 47.595,28.3057 L50.424,31.1017 C51.205,31.8737 51.205,33.1257 50.424,33.8977 L32.16,51.9507 C31.379,52.7227 30.113,52.7227 29.332,51.9507 Z" id="Stroke-5" stroke="#F57C00" stroke-width="2"></path>
                        </g>
                    </g>
                </g>
            </g>
        </g>
    </g>
</svg>