<?xml version="1.0" encoding="UTF-8"?>
<svg width="255px" height="56px" viewBox="0 0 255 56" version="1.1" xmlns="http://www.w3.org/2000/svg" xmlns:xlink="http://www.w3.org/1999/xlink">
    <!-- Generator: Sketch 59 (86127) - https://sketch.com -->
    <title>согласие</title>
    <desc>Created with Sketch.</desc>
    <g id="Page-1" stroke="none" stroke-width="1" fill="none" fill-rule="evenodd">
        <g id="Страховые-компании" transform="translate(-114.000000, -368.000000)" fill="#EB5F0A" fill-rule="nonzero">
            <g id="согласие" transform="translate(114.000000, 368.000000)">
                <path d="M151.401843,34.3859649 L157.382812,34.3859649 L157.382812,9.8245614 L139.845392,9.8245614 L139.845392,12.7888687 C139.845392,23.4815487 138.527551,27.5045372 134.472656,28.9866909 L134.472656,34.2800968 C135.993242,34.0683606 145.3195,32.4803388 145.420873,16.600121 L145.420873,15.0120992 L151.604587,15.0120992 L151.604587,34.3859649 L151.401843,34.3859649 Z" id="path3752"></path>
                <polygon id="polygon3754" points="117.539062 34.3859649 123.557629 34.3859649 123.557629 15.2238355 134.472656 15.2238355 134.472656 9.8245614 117.539062 9.8245614"></polygon>
                <path d="M174.691918,9.8245614 L168.960426,9.8245614 L159.375,34.3859649 L165.501767,34.3859649 L167.280506,29.8725446 L176.273019,29.8725446 L178.051758,34.3859649 L184.277344,34.3859649 L174.691918,9.8245614 Z M168.960426,25.1491978 L171.826172,17.4868796 L174.691918,25.1491978 L168.960426,25.1491978 Z" id="path3756"></path>
                <polygon id="polygon3758" points="215.137889 9.8245614 209.179688 9.8245614 209.179688 34.3859649 214.834929 34.3859649 225.236535 20.0937689 225.236535 34.3859649 231.09375 34.3859649 231.09375 9.8245614 225.438508 9.8245614 215.137889 24.4343618"></polygon>
                <polygon id="polygon3760" points="253.718567 24.5402299 253.718567 19.7761645 241.791382 19.7761645 241.791382 15.6473079 254.802856 15.6473079 254.802856 9.8245614 236.074219 9.8245614 236.074219 34.3859649 255 34.3859649 255 29.092559 241.791382 29.092559 241.791382 24.5402299"></polygon>
                <path d="M103.174929,8.87857391 C99.0509464,8.87857391 95.4298889,10.9953698 93.1164355,14.2764035 C93.1164355,14.2764035 93.1164355,14.2764035 93.1164355,14.2764035 C90.5012273,17.9807964 87.0813397,28.1414169 80.0403945,28.1414169 C75.6146576,28.1414169 73.2006193,24.6487036 73.502374,21.0501505 C73.8041288,17.3457576 76.8216768,14.5939229 80.2415644,14.9114423 C82.1526781,15.0172821 83.762037,16.0756801 84.8684712,17.663277 L88.3889438,12.5829668 C86.3772452,10.4661709 83.762037,9.09025351 80.744489,8.87857391 C74.0052987,8.34937493 68.2719577,13.6413648 67.769033,20.7326311 C67.2661084,27.8238975 72.2953549,33.8567659 79.0345452,34.3859649 C79.4368849,34.3859649 79.9398096,34.3859649 80.3421493,34.3859649 L80.4427343,34.3859649 C83.2591123,34.3859649 86.4778301,33.1158874 88.5901136,31.4224506 C90.1994725,30.152373 91.4064917,28.7764557 92.412341,27.4005383 C94.4240396,31.5282904 98.6486067,34.3859649 103.376098,34.3859649 C110.115289,34.3859649 115.546875,28.6706159 115.546875,21.5793495 C115.345705,14.5939229 109.914119,8.87857391 103.174929,8.87857391 M104.985457,27.9297373 C104.381948,28.1414169 103.778438,28.2472567 103.074344,28.2472567 C100.459135,28.2472567 98.246267,26.55382 97.2404176,24.2253444 C96.9386629,23.3786261 96.737493,22.5319077 96.737493,21.6851893 C96.737493,20.7326311 96.9386629,19.8859128 97.2404176,19.1450342 C98.246267,16.7107189 100.459135,15.1231219 103.074344,15.1231219 C103.677853,15.1231219 104.381948,15.2289617 104.985457,15.4406413 C107.600665,16.2873597 109.411194,18.721675 109.411194,21.7910291 C109.511779,24.6487036 107.600665,27.0830189 104.985457,27.9297373" id="path3762"></path>
                <path d="M201.456352,26.6460268 L200.951087,27.1620227 L200.951087,27.1620227 C199.738451,28.2972136 198.222656,28.8132095 196.605808,28.8132095 C192.967901,28.8132095 190.037364,25.8204334 190.037364,22.1052632 C190.037364,18.3900929 192.967901,15.3973168 196.605808,15.3973168 C198.424762,15.3973168 200.243716,16.2229102 201.456352,17.6676987 L201.658458,17.4613003 L204.588995,13.3333333 C202.365829,11.0629515 199.334239,9.8245614 196.302649,9.8245614 C189.633152,9.8245614 184.277344,15.3973168 184.277344,22.1052632 C184.277344,28.9164087 189.734205,34.3859649 196.302649,34.3859649 C199.637398,34.3859649 202.871094,32.9411765 205.195312,30.2579979 L201.456352,26.6460268 Z" id="path3764"></path>
                <path d="M154.905349,51.0653907 C153.066406,51.0653907 151.738281,49.5582137 151.738281,47.7496013 C151.738281,45.9409888 153.066406,44.4338118 154.803185,44.4338118 C155.926983,44.4338118 156.744291,44.9362041 157.459435,45.6395534 L158.276743,44.7352472 C157.459435,43.9314195 156.4378,43.2280702 154.803185,43.2280702 C152.249099,43.2280702 150.410156,45.2376396 150.410156,47.6491228 C150.410156,50.0606061 152.351262,52.0701754 154.803185,52.0701754 C156.4378,52.0701754 157.459435,51.3668262 158.378906,50.4625199 L157.561599,49.6586922 C156.846454,50.4625199 156.029147,51.0653907 154.905349,51.0653907" id="path3766"></path>
                <polygon id="polygon3768" points="166.347656 44.2105263 159.375 44.2105263 159.375 45.4588235 162.240475 45.4588235 162.240475 53.0526316 163.482181 53.0526316 163.482181 45.4588235 166.347656 45.4588235"></polygon>
                <path d="M173.085938,44.2105263 C171.398437,44.2105263 170.34375,45.1495109 169.710938,46.1928272 L169.710938,44.4191896 L168.339844,44.4191896 L168.339844,56 L169.710938,56 L169.710938,51.6180717 C170.449219,52.5570564 171.503906,53.496041 173.085938,53.496041 C175.195312,53.496041 177.304688,51.826735 177.304688,48.9054495 C177.304688,45.8798323 175.195312,44.2105263 173.085938,44.2105263 M172.769531,52.1397299 C171.082031,52.1397299 169.5,50.7834187 169.5,48.6967862 C169.5,46.6101537 171.082031,45.2538426 172.769531,45.2538426 C174.457031,45.2538426 175.933594,46.6101537 175.933594,48.6967862 C175.933594,50.8877503 174.5625,52.1397299 172.769531,52.1397299" id="path3770"></path>
                <path d="M181.881334,44.2105263 C180.750633,44.2105263 179.902608,44.5119617 178.960357,44.9138756 L179.337257,45.9186603 C180.091058,45.5167464 180.844859,45.3157895 181.787109,45.3157895 C183.294711,45.3157895 184.142736,46.1196172 184.142736,47.6267943 L184.142736,47.9282297 C183.388936,47.7272727 182.72936,47.5263158 181.692884,47.5263158 C179.714158,47.5263158 178.300781,48.430622 178.300781,50.3397129 C178.300781,52.1483254 179.808383,53.0526316 181.315984,53.0526316 C182.72936,53.0526316 183.671611,52.3492823 184.142736,51.645933 L184.142736,52.9521531 L185.273438,52.9521531 L185.273438,47.6267943 C185.273438,46.5215311 184.990762,45.7177033 184.425412,45.1148325 C183.860061,44.5119617 183.012035,44.2105263 181.881334,44.2105263 L181.881334,44.2105263 Z M184.142736,49.7368421 C184.142736,51.0430622 182.91781,52.0478469 181.504434,52.0478469 C180.467958,52.0478469 179.525707,51.4449761 179.525707,50.3397129 C179.525707,49.3349282 180.373733,48.6315789 181.881334,48.6315789 C182.823585,48.6315789 183.577386,48.8325359 184.236962,49.0334928 L184.236962,49.7368421 L184.142736,49.7368421 Z" id="path3772"></path>
                <polygon id="polygon3774" points="192.246094 47.6433437 189.816597 44.2105263 188.456079 44.2105263 191.565835 48.5795666 188.261719 53.0526316 189.719417 53.0526316 192.246094 49.4117647 194.772771 53.0526316 196.230469 53.0526316 192.926353 48.5795666 196.036109 44.2105263 194.675591 44.2105263"></polygon>
                <path d="M201.708984,44.2105263 C199.060281,44.2105263 197.226562,46.2200957 197.226562,48.6315789 C197.226562,51.0430622 199.060281,53.0526316 201.708984,53.0526316 C204.357688,53.0526316 206.191406,51.0430622 206.191406,48.6315789 C206.191406,46.2200957 204.255815,44.2105263 201.708984,44.2105263 M201.708984,51.9473684 C199.875266,51.9473684 198.550914,50.4401914 198.550914,48.6315789 C198.550914,46.8229665 199.875266,45.3157895 201.708984,45.3157895 C203.542702,45.3157895 204.867054,46.8229665 204.867054,48.6315789 C204.867054,50.4401914 203.542702,51.9473684 201.708984,51.9473684" id="path3776"></path>
                <path d="M213.436965,48.371517 C214.105576,48.0594427 214.774187,47.5393189 214.774187,46.3950464 C214.774187,45.0427245 213.723512,44.2105263 212.099743,44.2105263 L208.183594,44.2105263 L208.183594,53.0526316 L212.195259,53.0526316 C214.01006,53.0526316 215.15625,52.1164087 215.15625,50.6600619 C215.15625,49.3077399 214.392123,48.6835913 213.436965,48.371517 L213.436965,48.371517 Z M209.4253,45.250774 L211.908711,45.250774 C212.959386,45.250774 213.532481,45.7708978 213.532481,46.4990712 C213.532481,47.4352941 212.86387,47.955418 211.908711,47.955418 L209.4253,47.955418 L209.4253,45.250774 Z M212.099743,51.8043344 L209.4253,51.8043344 L209.4253,48.9956656 L212.004227,48.9956656 C213.341449,48.9956656 214.01006,49.5157895 214.01006,50.3479876 C213.914544,51.2842105 213.245933,51.8043344 212.099743,51.8043344 L212.099743,51.8043344 Z" id="path3778"></path>
                <path d="M220.728991,44.2105263 C219.59829,44.2105263 218.750264,44.5119617 217.808013,44.9138756 L218.184913,45.9186603 C218.938714,45.5167464 219.692515,45.3157895 220.634766,45.3157895 C222.142367,45.3157895 222.990393,46.1196172 222.990393,47.6267943 L222.990393,47.9282297 C222.236592,47.7272727 221.577016,47.5263158 220.540541,47.5263158 C218.561814,47.5263158 217.148438,48.430622 217.148438,50.3397129 C217.148438,52.1483254 218.656039,53.0526316 220.16364,53.0526316 C221.577016,53.0526316 222.519267,52.3492823 222.990393,51.645933 L222.990393,52.9521531 L224.121094,52.9521531 L224.121094,47.6267943 C224.121094,46.5215311 223.838418,45.7177033 223.273068,45.1148325 C222.707717,44.5119617 221.859692,44.2105263 220.728991,44.2105263 L220.728991,44.2105263 Z M222.990393,49.7368421 C222.990393,51.0430622 221.765467,52.0478469 220.35209,52.0478469 C219.315614,52.0478469 218.373364,51.4449761 218.373364,50.3397129 C218.373364,49.3349282 219.221389,48.6315789 220.728991,48.6315789 C221.671242,48.6315789 222.425042,48.8325359 223.084618,49.0334928 L223.084618,49.7368421 L222.990393,49.7368421 Z" id="path3780"></path>
                <polygon id="polygon3782" points="228.240076 44.2105263 227.109375 44.2105263 227.109375 53.0526316 228.240076 53.0526316 228.240076 49.2037152 232.857105 49.2037152 232.857105 53.0526316 234.082031 53.0526316 234.082031 44.2105263 232.857105 44.2105263 232.857105 48.0594427 228.240076 48.0594427"></polygon>
                <polygon id="polygon3784" points="238.345312 53.0526316 243.657812 46.0829721 243.657812 53.0526316 245.039062 53.0526316 245.039062 44.2105263 243.764063 44.2105263 238.345312 51.1801858 238.345312 44.2105263 237.070312 44.2105263 237.070312 53.0526316"></polygon>
                <path d="M251.157637,44.2105263 C248.842835,44.2105263 247.03125,46.2200957 247.03125,48.6315789 C247.03125,51.2440191 248.943478,53.0526316 251.258281,53.0526316 C252.868578,53.0526316 253.875014,52.4497608 254.780806,51.4449761 L253.975657,50.7416268 C253.271152,51.4449761 252.466004,51.9473684 251.258281,51.9473684 C249.748627,51.9473684 248.44026,50.9425837 248.238973,49.1339713 L254.982093,49.1339713 C254.982093,48.9330144 254.982093,48.8325359 254.982093,48.7320574 C255.18338,46.2200957 253.673727,44.2105263 251.157637,44.2105263 L251.157637,44.2105263 Z M248.44026,48.1291866 C248.641547,46.5215311 249.748627,45.3157895 251.157637,45.3157895 C252.868578,45.3157895 253.77437,46.6220096 253.875014,48.1291866 L248.44026,48.1291866 Z" id="path3786"></path>
                <path d="M41.1386719,0.104415628 C37.5527344,0.104415628 33.9667969,1.04415628 30.8789062,2.9236376 C27.7910156,1.04415628 24.2050781,0 20.6191406,0 C9.26367187,0 0,9.71065345 0,21.6140351 C0,33.5174167 9.26367188,43.2280702 20.6191406,43.2280702 C24.2050781,43.2280702 27.7910156,42.1839139 30.8789062,40.3044326 C33.9667969,42.1839139 37.5527344,43.1236545 41.1386719,43.1236545 C52.4941406,43.1236545 61.7578125,33.4130011 61.7578125,21.5096195 C61.7578125,9.71065345 52.4941406,0.104415628 41.1386719,0.104415628 M14.1445313,21.6140351 L14.1445313,21.6140351 C13.8457031,22.5537757 13.7460938,23.4935164 13.7460938,24.4332571 C13.7460938,29.5496228 17.7304688,33.726248 22.6113281,33.726248 C25.7988281,33.726248 28.6875,31.9511823 30.28125,29.1319603 L30.28125,29.1319603 L30.3808594,29.0275447 C30.4804687,28.8187135 30.5800781,28.6098822 30.6796875,28.4010509 L36.0585938,17.4374099 L36.1582031,17.2285787 L36.1582031,17.2285787 L36.1582031,17.2285787 C36.7558594,16.0800068 37.8515625,15.3490974 39.1464844,15.3490974 C40.9394531,15.3490974 42.4335938,16.9153318 42.4335938,18.7948131 C42.4335938,18.7948131 42.4335938,18.8992287 42.4335938,18.8992287 L42.4335938,19.0036444 L42.4335938,19.0036444 C42.4335938,20.4654632 41.7363281,23.597932 37.2539063,28.2966353 C31.5761719,34.3527418 26.296875,36.2322231 26.296875,36.3366387 L26.296875,36.3366387 C24.5039063,37.1719637 22.5117188,37.4852106 20.5195313,37.4852106 C12.1523438,37.4852106 5.37890625,30.3849479 5.37890625,21.6140351 C5.37890625,12.8431223 12.1523438,5.74285956 20.5195313,5.74285956 C22.1132813,5.74285956 23.6074219,5.95169082 25.1015625,6.47376896 C19.4238281,11.2768879 15.7382813,16.3932537 14.1445313,21.6140351 M47.5136719,21.7184507 L47.5136719,21.7184507 C47.8125,20.7787101 47.9121094,19.8389694 47.9121094,18.7948131 C47.9121094,13.6784473 43.9277344,9.50182219 39.046875,9.50182219 C35.9589844,9.50182219 32.9707031,11.2768879 31.3769531,14.0961098 L31.3769531,14.0961098 L31.2773438,14.4093567 C31.1777344,14.5137724 31.078125,14.7226036 31.078125,14.8270192 L25.5,26.2083227 C24.9023438,27.3568947 23.8066406,27.9833884 22.6113281,27.9833884 C20.8183594,27.9833884 19.3242188,26.417154 19.3242188,24.5376727 L19.3242188,24.5376727 L19.3242188,24.4332571 C19.3242188,22.9714383 20.1210938,19.8389694 24.5039063,15.0358505 C30.1816406,8.97974405 35.3613281,7.20467836 35.4609375,7.20467836 C37.3535156,6.36935334 39.2460938,5.95169082 41.3378906,5.95169082 C49.7050781,5.95169082 56.4785156,13.0519536 56.4785156,21.8228663 C56.4785156,30.5937791 49.7050781,37.6940419 41.3378906,37.6940419 C39.7441406,37.6940419 38.1503906,37.4852106 36.65625,36.9631325 C42.3339844,32.0555979 46.0195313,27.0436478 47.5136719,21.7184507" id="path3788"></path>
            </g>
        </g>
    </g>
</svg>