<?xml version="1.0" encoding="UTF-8"?>
<svg width="254px" height="69px" viewBox="0 0 254 69" version="1.1" xmlns="http://www.w3.org/2000/svg" xmlns:xlink="http://www.w3.org/1999/xlink">
    <!-- Generator: Sketch 59 (86127) - https://sketch.com -->
    <title>вск</title>
    <desc>Created with Sketch.</desc>
    <defs>
        <polygon id="path-1" points="0 1.84464138 32.413696 1.84464138 32.413696 36.6348483 0 36.6348483"></polygon>
    </defs>
    <g id="Page-1" stroke="none" stroke-width="1" fill="none" fill-rule="evenodd">
        <g id="Страховые-компании" transform="translate(-114.000000, -43.000000)">
            <g id="вск" transform="translate(114.000000, 40.000000)">
                <rect id="Rectangle" fill="#D8D8D8" opacity="0" x="0" y="0" width="256" height="76"></rect>
                <g id="Group-42" transform="translate(0.000000, 1.000000)">
                    <polygon id="Fill-1" fill="#006FB9" points="86.713344 34.4362828 78.984704 46.9601448 78.984704 34.4362828 65.022464 34.4362828 65.022464 69.2315931 78.984704 69.2315931 78.984704 56.0085586 86.313984 69.2315931 102.370304 69.2315931 90.156544 50.9382828 102.022144 34.4362828"></polygon>
                    <g id="Group-41" transform="translate(0.000000, 1.749462)">
                        <path d="M61.496064,66.3894828 C59.302144,67.5301034 56.309504,68.5252759 52.121344,68.5252759 C40.752384,68.5252759 32.673024,61.2196897 32.673024,50.0839655 C32.673024,37.4605862 43.046144,31.6452069 51.921664,31.6452069 C54.765824,31.6452069 58.703104,32.3392759 61.496064,34.2785862 L61.496064,46.4554138 C59.353344,43.8220345 56.212224,42.7783793 53.767424,42.7783793 C48.580864,42.7783793 46.087424,46.2078966 46.087424,50.4335517 C46.087424,54.8556897 49.328384,57.3921034 53.716224,57.3921034 C56.808704,57.3921034 59.501824,56.0014138 61.496064,54.2126552 L61.496064,66.3894828 Z" id="Fill-2" fill="#006FB9"></path>
                        <g id="Group-6" transform="translate(0.000000, 30.620690)">
                            <mask id="mask-2" fill="white">
                                <use xlink:href="#path-1"></use>
                            </mask>
                            <g id="Clip-5"></g>
                            <path d="M13.961216,28.2881586 L13.961216,23.067331 L15.658496,23.067331 C17.002496,23.067331 19.147776,23.3174 19.147776,25.6522276 C19.147776,28.0865724 16.953856,28.2881586 15.658496,28.2881586 L13.961216,28.2881586 Z M-0.001024,1.84464138 L-0.001024,36.6348483 L20.642816,36.6348483 C30.317056,36.6348483 32.413696,30.4724345 32.413696,26.9459517 C32.413696,22.2227103 29.170176,18.7931931 24.682496,18.0480897 L24.682496,17.9485724 C27.575296,17.1039517 30.765056,14.6185724 30.765056,10.691469 C30.765056,8.0096069 29.718016,1.84464138 19.695616,1.84464138 L-0.001024,1.84464138 Z M13.961216,15.0651241 L13.961216,10.1938828 L15.259136,10.1938828 C17.701376,10.1938828 18.349056,11.4365724 18.349056,12.6282276 C18.349056,13.8224345 17.701376,15.0651241 15.259136,15.0651241 L13.961216,15.0651241 Z" id="Fill-4" fill="#006FB9" mask="url(#mask-2)"></path>
                        </g>
                        <polygon id="Fill-7" fill="#52B8E8" points="183.967488 37.1145724 179.986688 37.2727793 179.618048 36.3158828 175.788288 36.0505034 175.760128 35.3589862 171.648768 35.3002966 172.327168 36.7420207 174.160128 36.9487103 173.934848 36.4766414 175.598848 37.5662276 178.361088 38.1684345 180.194048 38.2296759 184.814848 37.6325724"></polygon>
                        <path d="M173.80992,33.7429793 L171.93088,33.4954621 C171.93088,33.4954621 171.98208,32.8600828 171.24992,32.5079448 C170.5152,32.1532552 170.67904,32.4798759 170.67904,32.4798759 L169.96224,31.969531 L168.6464,31.7500828 L168.53632,30.7880828 L166.83392,30.7089793 L166.87232,30.2318069 L165.53088,30.0736 L164.96768,29.5785655 L165.14688,29.0299448 L164.81152,28.5349103 L163.21408,27.7974621 L161.87264,27.2794621 L160.98944,26.2919448 L159.9424,25.3988414 L158.58304,24.1102207 L155.20384,22.9568414 L151.99616,20.6577379 L150.69568,20.1193241 L149.32096,19.4584276 L146.40256,17.9299448 L142.10688,15.5951172 L132.6016,11.1066345 L129.89312,9.93284138 C128.35456,9.28215172 128.10624,8.93766897 128.07296,8.74373793 C126.67776,8.42732414 126.21696,8.19001379 125.48992,7.48063448 C124.74752,7.51125517 123.10656,6.59008276 122.65856,6.15884138 C122.65856,6.14097931 119.86048,5.34228966 119.67872,5.18663448 C119.6736,5.02332414 112.41344,2.52773793 111.52,2.31849655 C110.88768,2.26746207 109.13152,1.94849655 108.89088,1.83877241 C108.59904,1.84132414 107.48032,1.50194483 107.02976,1.45601379 C105.51936,1.28504828 104.07808,1.0553931 102.51904,1.03753103 C101.408,1.02222069 100.77568,1.03497931 99.80032,0.802772414 C99.45472,1.01201379 97.184,0.616496552 96.36992,1.19828966 C95.45856,1.23401379 93.37984,1.68311724 92.80384,1.9536 C91.56224,2.00208276 89.44512,3.32642759 88.73344,3.66835862 C88.37504,3.83422069 87.99616,4.01028966 87.6224,4.18891034 C89.89568,4.96718621 92.47104,5.89091034 92.4736,5.98787586 C92.65536,6.14608276 95.45088,6.93966897 95.45344,6.96008276 C95.90144,7.39132414 97.54496,8.30994483 98.28224,8.28187586 C99.01184,8.9938069 99.47264,9.22856552 100.86528,9.54497931 C100.90368,9.74146207 101.14944,10.0833931 102.688,10.7340828 L105.39648,11.9027724 L114.8992,16.3963586 L119.19744,18.7311862 L122.11328,20.2622207 L123.49312,20.9205655 L124.7936,21.4589793 L125.856,22.2219448 L127.95264,23.0180828 L132.67584,24.5133931 L138.37952,26.6747034 L140.50944,27.3866345 L142.65216,28.029669 L143.6608,27.8484966 L144.77184,28.2210483 L146.00576,29.2953241 L147.26016,28.8921517 L148.11264,29.0350483 L148.78336,29.8949793 L149.22624,30.4078759 L150.29888,30.7166345 L151.36384,30.8518759 L152.62592,30.6273241 L154.11584,30.7447034 L154.63552,31.6097379 L156.70656,31.9618759 L158.19392,32.0716 L159.68128,32.1838759 L160.8256,32.6993241 L161.86752,33.801669 L163.36,34.097669 L167.22816,34.6462897 L170.72,34.2354621 L172.9984,34.3426345 L173.80992,33.7429793 Z" id="Fill-9" fill="#52B8E8"></path>
                        <polygon id="Fill-11" fill="#006FB9" points="142.482432 39.2475586 146.598912 39.3036966 146.624512 39.9977655 150.454272 40.2605931 150.822912 41.2149379 154.801152 41.0592828 155.656192 41.5798345 151.030272 42.1794897 149.197312 42.1156966 146.437632 41.5160414 144.773632 40.4239034 144.998912 40.8959724 143.165952 40.686731"></polygon>
                        <path d="M142.914816,37.6029724 C142.914816,37.6029724 142.968576,36.9701448 142.233856,36.6129034 C141.501696,36.2607655 141.665536,36.5873862 141.665536,36.5873862 L140.948736,36.0744897 L139.632896,35.8550414 L139.525376,34.8930414 L137.817856,34.8113862 L137.858816,34.3367655 L136.517376,34.1785586 L135.954176,33.6860759 L136.135936,33.1374552 L135.798016,32.6424207 L134.200576,31.9024207 L132.859136,31.3844207 L131.973376,30.3994552 L130.923776,29.5038 L129.569536,28.2151793 L126.187776,27.0643517 L122.982656,24.7652483 L121.682176,24.2268345 L120.302336,23.5659379 L117.389056,22.0349034 L113.093376,19.7000759 L103.588096,15.2115931 L100.877056,14.0403517 C99.341056,13.3871103 99.092736,13.0451793 99.056896,12.8486966 C97.664256,12.5322828 97.200896,12.2975241 96.473856,11.5881448 C95.734016,11.6162138 94.093056,10.6975931 93.642496,10.2663517 C93.642496,10.2459379 90.846976,9.4498 90.662656,9.2915931 C90.657536,9.13338621 83.397376,6.63269655 82.506496,6.42345517 C81.874176,6.37497241 80.118016,6.0560069 79.877376,5.94628276 C79.582976,5.94883448 78.466816,5.60945517 78.016256,5.56097241 C76.505856,5.39255862 75.062016,5.16035172 73.505536,5.14248966 C72.394496,5.12462759 71.762176,5.13738621 70.784256,4.90773103 C70.438656,5.11952414 68.167936,4.71890345 67.353856,5.30324828 C66.442496,5.33897241 64.366336,5.78807586 63.790336,6.05855862 C62.548736,6.10704138 60.431616,7.43393793 59.717376,7.77331724 C59.092736,8.06931724 58.381056,8.36786897 57.797376,8.72255862 C57.520896,8.93690345 53.542656,10.8481448 53.278976,11.0854552 C53.342976,11.2206966 49.390336,13.4993862 49.016576,13.8387655 C48.850176,14.0148345 47.800576,14.4333172 47.536896,14.675731 C47.252736,14.9258 46.205696,15.8520759 45.849856,16.0204897 C45.691136,16.3420069 44.685056,16.6966966 44.523776,17.0182138 C44.283136,17.3448345 43.082496,17.9011103 42.890496,18.1231103 C42.862336,18.1486276 42.199296,18.6793862 41.664256,19.1029724 C41.441536,19.3887655 41.216256,19.6745586 40.996096,19.9603517 C40.737536,20.0573172 39.677696,20.651869 39.403776,20.8560069 C39.429376,21.465869 39.475456,22.4380759 38.479616,22.2518 C38.454016,22.2339379 37.340416,22.9433172 37.314816,22.9229034 C37.458176,22.9152483 36.700416,23.9971793 36.073216,24.7626966 C35.702016,25.2041448 33.991936,25.8063517 33.661696,26.2605586 C32.978176,27.1868345 32.097536,28.0391103 31.414016,28.9424207 C31.414016,28.9679379 31.416576,28.9883517 31.416576,29.013869 C31.444736,29.0113172 31.470336,29.0113172 31.498496,29.0113172 C31.503616,29.1338 32.156416,29.1133862 32.248576,29.3634552 C32.381696,29.7181448 31.979776,30.0371103 31.877376,30.3560759 C31.905536,30.3560759 31.933696,30.3560759 31.959296,30.3535241 C31.961856,30.3790414 31.961856,30.4020069 31.964416,30.4249724 C32.489216,30.4045586 33.006336,29.8712483 33.431296,29.6492483 C33.784576,29.5165586 34.140416,29.3813172 34.493696,29.2486276 C35.123456,28.8862828 35.753216,28.5213862 36.380416,28.1615931 C41.088256,25.6762138 45.790976,23.1908345 50.496256,20.7080069 C52.751616,19.5342138 54.541056,18.431869 57.026816,17.0973172 C57.618176,16.7809034 59.881216,15.3009034 61.588736,15.193731 C63.751936,15.0508345 66.350336,15.5866966 67.044096,15.8750414 C67.709696,16.1021448 69.345536,16.9110414 70.167296,17.1024207 C70.425856,17.1942828 70.894336,17.5260069 71.006976,17.5209034 C71.083776,17.6331793 72.640256,17.8704897 73.456896,18.1562828 C73.741056,18.3221448 74.017536,18.4854552 74.296576,18.6487655 C75.648256,19.0315241 79.006976,19.7995931 80.222976,20.1644897 C81.257216,20.4681448 81.866496,21.0320759 82.381056,21.1418 C83.090176,21.6189724 83.230976,21.3791103 84.101376,21.7822828 C85.404416,21.9149724 86.205696,22.3666276 86.246656,22.4049034 C86.651136,22.5656621 86.919936,22.7340759 87.326976,22.8922828 C87.662336,22.9382138 88.310016,23.4179379 88.563456,23.5429724 C88.865536,23.6016621 90.982656,24.2319379 91.197696,24.3340069 C91.545856,24.3008345 93.048576,24.9336621 93.235456,25.0893172 C93.662976,25.2832483 94.139136,25.387869 94.620416,25.4848345 L98.939136,27.1255931 L103.659776,28.6209034 L109.363456,30.7822138 L111.493376,31.4890414 L113.638656,32.1346276 L114.644736,31.9534552 L115.758336,32.3260069 L116.989696,33.4028345 L118.244096,32.9971103 L119.096576,33.1425586 L119.769856,33.9999379 L120.212736,34.5128345 L121.285376,34.8266966 L122.350336,34.9619379 L123.612416,34.7322828 L125.102336,34.8522138 L125.624576,35.7172483 L127.693056,36.0642828 L129.180416,36.1765586 L130.667776,36.2888345 L131.814656,36.8068345 L132.851456,37.9091793 L134.346496,38.2026276 L138.212096,38.7512483 L141.703936,38.3429724 L143.982336,38.4501448 L144.793856,37.8530414 L142.914816,37.6029724 Z" id="Fill-13" fill="#006FB9"></path>
                        <path d="M114.008576,66.0631172 C113.337856,66.4050483 112.449536,66.6984966 111.243776,66.6984966 C109.280256,66.6984966 108.092416,66.0478069 107.150336,65.1827724 C105.860096,63.9809103 105.358336,62.6284966 105.358336,61.033669 C105.358336,59.0662897 106.195456,57.647531 107.150336,56.7850483 C108.274176,55.7592552 109.666816,55.353531 111.259136,55.353531 C112.047616,55.353531 112.987136,55.483669 114.008576,56.019531 L114.008576,58.4947034 C112.987136,57.3566345 111.712256,57.2749793 111.310336,57.2749793 C109.062656,57.2749793 107.606016,59.0662897 107.606016,61.0668414 C107.606016,63.4731172 109.515776,64.7770483 111.394816,64.7770483 C112.431616,64.7770483 113.355776,64.3381517 114.008576,63.5879448 L114.008576,66.0631172 Z" id="Fill-15" fill="#006FB9"></path>
                        <polygon id="Fill-17" fill="#006FB9" points="120.381184 66.4542966 118.200064 66.4542966 118.200064 57.4211931 115.686144 57.4211931 115.686144 55.5992621 122.895104 55.5992621 122.895104 57.4211931 120.381184 57.4211931"></polygon>
                        <path d="M125.104896,55.5995172 L125.104896,66.4545517 L127.286016,66.4545517 L127.286016,62.4355862 L128.694016,62.4355862 C129.986816,62.4355862 130.905856,62.0757931 131.525376,61.4761379 C132.382976,60.6442759 132.449536,59.4730345 132.449536,59.0494483 C132.449536,58.2686207 132.214016,57.2096552 131.307776,56.4262759 C130.491136,55.7296552 129.615616,55.5995172 128.358656,55.5995172 L125.104896,55.5995172 Z M127.286016,57.4214483 L128.038656,57.4214483 C128.558336,57.4214483 129.129216,57.4546207 129.582336,57.7633793 C129.899776,57.9904828 130.201856,58.3987586 130.201856,58.9984138 C130.201856,59.4730345 130.002176,59.9604138 129.600256,60.2691724 C129.129216,60.6111034 128.594176,60.6111034 128.174336,60.6111034 L127.286016,60.6111034 L127.286016,57.4214483 Z" id="Fill-19" fill="#006FB9"></path>
                        <path d="M141.788672,66.4542966 L144.136192,66.4542966 L139.423232,55.3696069 L137.779712,55.3696069 L132.936192,66.4542966 L135.299072,66.4542966 L136.287232,64.1730552 L140.797952,64.1730552 L141.788672,66.4542966 Z M136.975872,62.4506414 L138.586112,58.5439517 L140.160512,62.4506414 L136.975872,62.4506414 Z" id="Fill-21" fill="#006FB9"></path>
                        <polygon id="Fill-23" fill="#006FB9" points="149.098752 60.7254207 145.760512 55.5990069 148.376832 55.5990069 150.337792 58.9672828 152.401152 55.5990069 155.017472 55.5990069 151.579392 60.7254207 155.404032 66.4540414 152.785152 66.4540414 150.337792 62.4810069 147.757312 66.4540414 145.140992 66.4540414"></polygon>
                        <path d="M163.278592,55.3527655 C159.758592,55.3527655 157.311232,57.7309724 157.311232,61.0354552 C157.311232,64.3373862 159.758592,66.697731 163.278592,66.697731 C166.798592,66.697731 169.248512,64.3373862 169.248512,61.0354552 C169.248512,57.7309724 166.798592,55.3527655 163.278592,55.3527655 M163.278592,64.7762828 C161.100032,64.7762828 159.556352,63.2324897 159.556352,61.0354552 C159.556352,58.835869 161.100032,57.2742138 163.278592,57.2742138 C165.459712,57.2742138 167.000832,58.835869 167.000832,61.0354552 C167.000832,63.2324897 165.459712,64.7762828 163.278592,64.7762828" id="Fill-25" fill="#006FB9"></path>
                        <path d="M174.278656,61.7346276 L175.082496,61.7346276 C175.553536,61.7346276 176.106496,61.7346276 176.574976,61.9464207 C177.278976,62.2526276 177.396736,62.8420759 177.396736,63.1814552 C177.396736,63.6050414 177.245696,64.1255931 176.710656,64.4369034 C176.224256,64.7124897 175.620096,64.7303517 175.220736,64.7303517 L174.278656,64.7303517 L174.278656,61.7346276 Z M172.100096,55.6002828 L172.100096,66.4553172 L175.855616,66.4553172 C176.828416,66.4553172 177.849856,66.2920069 178.689536,65.5749724 C179.460096,64.9064207 179.644416,64.0133172 179.644416,63.3779379 C179.644416,62.8089034 179.508736,61.961731 178.840576,61.3442138 C178.553856,61.0813862 178.118656,60.7751793 177.378816,60.6603517 C177.683456,60.4970414 178.638336,59.9254552 178.638336,58.5296621 C178.638336,57.6161448 178.251776,56.7689724 177.596416,56.2815931 C176.692736,55.6002828 175.486976,55.6002828 174.864896,55.6002828 L172.100096,55.6002828 Z M174.278656,57.3226966 L174.916096,57.3226966 C175.804416,57.3226966 176.592896,57.6978 176.592896,58.6904207 C176.592896,60.0734552 175.236096,60.1066276 174.900736,60.1066276 L174.278656,60.1066276 L174.278656,57.3226966 Z" id="Fill-27" fill="#006FB9"></path>
                        <path d="M187.927296,55.3527655 C184.407296,55.3527655 181.957376,57.7309724 181.957376,61.0354552 C181.957376,64.3373862 184.407296,66.697731 187.927296,66.697731 C191.447296,66.697731 193.897216,64.3373862 193.897216,61.0354552 C193.897216,57.7309724 191.447296,55.3527655 187.927296,55.3527655 M187.927296,64.7762828 C185.748736,64.7762828 184.202496,63.2324897 184.202496,61.0354552 C184.202496,58.835869 185.748736,57.2742138 187.927296,57.2742138 C190.105856,57.2742138 191.646976,58.835869 191.646976,61.0354552 C191.646976,63.2324897 190.105856,64.7762828 187.927296,64.7762828" id="Fill-29" fill="#006FB9"></path>
                        <path d="M200.166144,52.1307034 C200.519424,53.041669 201.458944,53.0748414 201.673984,53.0748414 C201.891584,53.0748414 202.833664,53.041669 203.184384,52.1307034 L204.692224,52.7150483 C204.257024,53.8224966 203.217664,54.5369793 201.673984,54.5369793 C200.132864,54.5369793 199.093504,53.8224966 198.658304,52.7150483 L200.166144,52.1307034 Z M198.924544,55.5984966 L198.924544,62.8913241 L205.096704,55.353531 L206.604544,55.353531 L206.604544,66.453531 L204.425984,66.453531 L204.425984,59.1300828 L198.253824,66.6653241 L196.748544,66.6653241 L196.748544,55.5984966 L198.924544,55.5984966 Z" id="Fill-31" fill="#006FB9"></path>
                        <path d="M215.808512,55.5995172 L215.808512,60.3176552 C215.808512,61.8155172 215.624192,62.6295172 215.404032,63.167931 C215.068672,63.9793793 214.431232,64.6657931 213.624832,64.630069 L213.624832,68.8965517 L215.639552,68.8965517 L215.639552,66.4545517 L222.513152,66.4545517 L222.513152,68.8965517 L224.522752,68.8965517 L224.522752,64.630069 L223.350272,64.630069 L223.350272,55.5995172 L215.808512,55.5995172 Z M217.917952,57.4214483 L221.171712,57.4214483 L221.171712,64.630069 L216.660992,64.630069 C216.978432,64.3391724 217.298432,63.9462069 217.533952,63.344 C217.736192,62.826 217.917952,61.9941379 217.917952,60.3176552 L217.917952,57.4214483 Z" id="Fill-33" fill="#006FB9"></path>
                        <path d="M232.236032,55.3527655 C228.713472,55.3527655 226.266112,57.7309724 226.266112,61.0354552 C226.266112,64.3373862 228.713472,66.697731 232.236032,66.697731 C235.756032,66.697731 238.203392,64.3373862 238.203392,61.0354552 C238.203392,57.7309724 235.756032,55.3527655 232.236032,55.3527655 M232.236032,64.7762828 C230.054912,64.7762828 228.513792,63.2324897 228.513792,61.0354552 C228.513792,58.835869 230.054912,57.2742138 232.236032,57.2742138 C234.417152,57.2742138 235.955712,58.835869 235.955712,61.0354552 C235.955712,63.2324897 234.417152,64.7762828 232.236032,64.7762828" id="Fill-35" fill="#006FB9"></path>
                        <polygon id="Fill-37" fill="#006FB9" points="240.483584 66.4542966 242.562304 55.4027793 244.070144 55.4027793 247.108864 62.4991241 250.275584 55.4027793 251.785984 55.4027793 253.662464 66.4542966 251.448064 66.4542966 250.444544 59.7662276 247.375104 66.5997448 246.770944 66.5997448 243.837184 59.7662276 242.697984 66.4542966"></polygon>
                        <path d="M105.59744,35.8560621 L106.41664,35.8560621 C106.81344,35.8560621 107.07968,35.7973724 107.22304,35.6799931 C107.3664,35.5651655 107.43808,35.4120621 107.43808,35.2206828 C107.43808,35.0956483 107.4048,34.9859241 107.33312,34.8889586 C107.26656,34.7919931 107.16928,34.7205448 107.0464,34.6720621 C106.92352,34.626131 106.69824,34.6006138 106.368,34.6006138 L105.59744,34.6006138 L105.59744,35.8560621 Z M104.9344,38.1755793 L104.9344,34.0468897 L106.35776,34.0468897 C106.84416,34.0468897 107.19744,34.0877172 107.41248,34.1617172 C107.63008,34.238269 107.80416,34.3709586 107.93472,34.5597862 C108.06272,34.7486138 108.12672,34.9527517 108.12672,35.1645448 C108.12672,35.4656483 108.0192,35.7284759 107.8016,35.9504759 C107.58656,36.1750276 107.29984,36.3000621 106.94144,36.328131 C107.08736,36.3868207 107.20512,36.458269 107.29472,36.5475793 C107.46112,36.7083379 107.66592,36.9813724 107.90656,37.3666828 L108.41088,38.1755793 L107.60192,38.1755793 L107.22816,37.5223379 C106.93632,37.0119931 106.70336,36.6930276 106.52928,36.5628897 C106.4064,36.4659241 106.2272,36.4199931 105.99168,36.4225448 L105.59744,36.4225448 L105.59744,38.1755793 L104.9344,38.1755793 Z M106.62144,32.8603379 C106.08128,32.8603379 105.55648,32.998131 105.0496,33.2737172 C104.5376,33.5493034 104.13824,33.942269 103.85152,34.4551655 C103.56224,34.9655103 103.41632,35.4988207 103.41632,36.0525448 C103.41632,36.6037172 103.55968,37.1319241 103.84128,37.6371655 C104.12544,38.1424069 104.52224,38.5379241 105.02912,38.8186138 C105.53856,39.0993034 106.06848,39.2396483 106.62144,39.2396483 C107.1744,39.2396483 107.70432,39.0993034 108.2112,38.8186138 C108.72064,38.5379241 109.11744,38.1424069 109.39648,37.6371655 C109.67808,37.1319241 109.81888,36.6037172 109.81888,36.0525448 C109.81888,35.4988207 109.67552,34.9655103 109.3888,34.4551655 C109.10464,33.942269 108.70528,33.5493034 108.19328,33.2737172 C107.67872,32.998131 107.15648,32.8603379 106.62144,32.8603379 L106.62144,32.8603379 Z M106.62144,32.2249586 C107.26656,32.2249586 107.89376,32.3908207 108.50816,32.7199931 C109.12,33.0491655 109.59872,33.5212345 109.94176,34.1336483 C110.2848,34.7460621 110.45632,35.3865448 110.45632,36.0525448 C110.45632,36.7134414 110.28736,37.346269 109.94944,37.9535793 C109.61152,38.5634414 109.14048,39.0329586 108.5312,39.3723379 C107.92192,39.7091655 107.28448,39.8750276 106.62144,39.8750276 C105.95584,39.8750276 105.32096,39.7091655 104.71168,39.3723379 C104.10496,39.0329586 103.6288,38.5634414 103.29088,37.9535793 C102.9504,37.346269 102.78144,36.7134414 102.78144,36.0525448 C102.78144,35.3865448 102.95296,34.7460621 103.29856,34.1336483 C103.6416,33.5212345 104.12032,33.0491655 104.73472,32.7199931 C105.34912,32.3908207 105.97632,32.2249586 106.62144,32.2249586 L106.62144,32.2249586 Z" id="Fill-39" fill="#0066B2"></path>
                    </g>
                </g>
            </g>
        </g>
    </g>
</svg>