<?xml version="1.0" encoding="UTF-8"?>
<svg width="252px" height="88px" viewBox="0 0 252 88" version="1.1" xmlns="http://www.w3.org/2000/svg" xmlns:xlink="http://www.w3.org/1999/xlink">
    <!-- Generator: Sketch 59 (86127) - https://sketch.com -->
    <title>zetta</title>
    <desc>Created with Sketch.</desc>
    <g id="Page-1" stroke="none" stroke-width="1" fill="none" fill-rule="evenodd">
        <g id="Страховые-компании" transform="translate(-114.000000, -1292.000000)" fill-rule="nonzero">
            <g id="zetta" transform="translate(114.000000, 1292.000000)">
                <path d="M118.650672,59.5518739 C117.967853,59.5518739 117.449237,59.1907478 117.263563,58.591129 C117.105005,58.0837522 117.218606,57.5223768 117.605578,56.8698782 C118.830701,54.6525 120.200976,52.383371 121.662374,50.1536246 C123.12599,47.9182435 124.598578,45.7166203 126.084672,43.5498739 C127.568549,41.391 129.01644,39.2613782 130.429454,37.1722478 C131.803056,35.1348782 133.086744,33.1166203 134.243222,31.1737507 C134.217317,31.1681261 134.198165,31.1580058 134.173469,31.152371 C133.906853,31.0826275 133.38481,30.9903754 132.436483,30.9375058 C131.634317,30.8947464 130.564426,30.8722478 129.259469,30.8722478 C127.623686,30.8722478 126.295042,30.9599942 125.315165,31.1343782 C124.406251,31.2941261 123.669302,31.5821218 123.130426,31.9859971 C122.588222,32.3910014 122.141578,32.9366218 121.806317,33.609371 C121.437288,34.3484971 121.070578,35.2755043 120.719592,36.3712507 C120.528374,36.856129 120.199867,37.1587507 119.754331,37.294871 C119.513621,37.3657435 119.261621,37.4006203 119.007302,37.4006203 C118.924042,37.4006203 118.838563,37.3983725 118.754194,37.391629 C118.408853,37.359 118.099498,37.2757493 117.836208,37.1441246 C117.352469,36.9033739 117.121838,36.414 117.252374,35.8998797 C117.418795,34.7445 117.566165,33.4608725 117.67644,32.1570043 C117.787824,30.8283797 117.846288,29.6190014 117.846288,28.5682522 C117.846288,28.3230058 117.932976,28.0755014 118.110686,27.815629 C118.457237,27.2880014 119.168179,27.2880014 119.404454,27.2880014 L142.130621,27.2880014 C143.508758,27.2880014 143.770838,28.0631232 143.817005,28.3949971 C143.88444,28.8832522 143.786563,29.359129 143.521056,29.8170029 C140.927976,34.2168725 138.147005,38.5751218 135.241042,42.778129 C132.365621,46.9271275 129.739882,51.094129 127.438114,55.1474986 C127.301933,55.3657507 127.22099,55.5254986 127.171498,55.6402493 C127.405454,55.7190043 127.807042,55.802255 128.601346,55.8675029 C129.434962,55.9327507 130.626317,55.9653797 132.133882,55.9653797 C133.74144,55.9653797 135.079056,55.9023797 136.115179,55.7651203 C137.069251,55.6436261 137.84773,55.3893782 138.437208,54.997871 C139.008744,54.6153754 139.490165,54.0449986 139.861411,53.298 C140.273179,52.477871 140.68273,51.3517435 141.077563,49.9443739 C141.134918,49.7216261 141.334099,49.2828739 141.977606,49.0432522 C142.263374,48.9442565 142.557005,48.8902478 142.85507,48.8902478 C142.931578,48.8902478 143.003549,48.8958725 143.080056,48.8992493 C143.480635,48.9341261 143.839483,49.0533725 144.146621,49.2603754 C144.599918,49.5641261 144.803635,50.0366261 144.701222,50.558629 C144.52573,51.6104971 144.365962,52.7906232 144.229882,54.0472565 C144.098237,55.2903725 144.028483,56.6392478 144.028483,58.0646203 C144.028483,59.1626246 143.33881,59.5518739 142.746005,59.5518739 L118.650672,59.5518739 Z" id="Fill-1" fill="#19194E"></path>
                <path d="M166.153982,38.2780138 C166.43965,38.2780138 166.520693,38.2161326 166.521802,38.2161326 C166.60849,37.7818862 166.64891,37.2801341 166.64891,36.6917645 C166.64891,35.8198848 166.51283,34.967137 166.242787,34.1593862 C165.975062,33.360637 165.5892,32.6417616 165.099816,32.0275166 C164.616077,31.4301355 164.027707,30.9418906 163.345997,30.5807645 C162.67991,30.2320066 161.895787,30.0520181 161.02165,30.0520181 C159.906802,30.0520181 158.943859,30.2466326 158.158627,30.6268906 C157.363214,31.0161398 156.681403,31.5291413 156.131338,32.1568834 C155.58349,32.7868834 155.160432,33.5383877 154.873555,34.399008 C154.572062,35.2990109 154.351613,36.2653906 154.221077,37.265508 C154.150214,37.6795138 154.117555,38.0158834 154.115338,38.2780138 L166.153982,38.2780138 Z M161.84065,60.2335138 C159.022584,60.2335138 156.544214,59.8026341 154.476403,58.9510152 C152.391859,58.087008 150.641366,56.8630138 149.274418,55.3060166 C147.910997,53.755763 146.892816,51.9231384 146.249309,49.850892 C145.613664,47.8090166 145.294229,45.5646341 145.294229,43.1773877 C145.294229,40.872263 145.687954,38.6481413 146.467541,36.572508 C147.252874,34.4890123 148.375584,32.6597645 149.803214,31.1376341 C151.231954,29.6188906 152.941925,28.3926384 154.892707,27.4903877 C156.852461,26.5858891 159.051816,26.1235094 161.432309,26.1235094 C163.432584,26.1235094 165.289925,26.477892 166.951613,27.1742587 C168.616627,27.8728834 170.048693,28.8516413 171.20749,30.0790123 C172.365077,31.3030166 173.279736,32.7891413 173.925461,34.4867645 C174.570077,36.178763 174.898584,38.022637 174.898584,39.9711413 C174.898584,41.9815166 173.54857,42.1401355 173.135693,42.1401355 L153.952243,42.1401355 C153.949925,42.1660109 153.949925,42.195263 153.949925,42.2245152 C153.949925,44.5037645 154.204243,46.4511398 154.703707,48.0058891 C155.1942,49.5381398 155.879338,50.7936341 156.738859,51.7352674 C157.585982,52.6656413 158.615352,53.3440152 159.790982,53.7535152 C161.008243,54.1798891 162.342432,54.3936355 163.757664,54.3936355 C165.265229,54.3936355 166.74457,54.2721413 168.15083,54.0302616 C169.474939,53.8063848 170.624664,53.2945123 171.570874,52.5148848 C171.897062,52.2561413 172.242403,52.1301413 172.610323,52.1301413 C172.701446,52.1301413 172.794787,52.133508 172.88712,52.150392 C173.299997,52.229137 173.658845,52.4260094 173.92657,52.7342558 C174.172925,53.0087645 174.333802,53.3338848 174.404664,53.6893862 C174.491352,54.1281384 174.395693,54.5398862 174.134722,54.8886341 C172.596816,56.9035152 170.831707,58.3153906 168.892214,59.0871355 C166.980845,59.851008 164.609323,60.2335138 161.84065,60.2335138 Z" id="Fill-3" fill="#19194E"></path>
                <path d="M218.279678,28.3880218 C218.107613,27.7006464 217.612584,27.2866507 216.951034,27.2866507 C216.951034,27.2866507 207.087048,27.2866507 207.027475,27.2844029 C207.020722,27.1313986 207.013968,26.9097797 207.013968,26.5880261 L207.013968,20.715529 C207.013968,20.4218986 206.893613,19.894271 206.093664,19.5848957 C205.71012,19.4397739 205.29049,19.3655246 204.839309,19.3655246 C204.373613,19.3655246 203.928077,19.4566478 203.527598,19.6310218 C202.975214,19.8639 202.624229,20.2790246 202.53865,20.8066522 C202.317091,22.2612768 202.040294,23.4414029 201.717432,24.321145 C201.417048,25.1435218 201.063845,25.8533957 200.53283,26.259529 C199.257106,27.2495261 196.938403,27.2011522 195.909034,27.2866507 C191.967048,27.2866507 187.207171,27.2855218 187.173403,27.2844029 C187.16665,27.1313986 187.159997,26.9097797 187.159997,26.5880261 L187.159997,20.715529 C187.159997,20.4218986 187.04065,19.894271 186.240802,19.5848957 C185.857157,19.4397739 185.437627,19.3655246 184.984229,19.3655246 C184.519541,19.3655246 184.076323,19.4566478 183.672418,19.6310218 C183.122352,19.8639 182.771366,20.2790246 182.682461,20.8066522 C182.46191,22.2635246 182.186323,23.4436507 181.86457,24.321145 C181.561968,25.1435218 181.163707,25.7949014 180.67765,26.259529 C180.189475,26.7286522 179.58649,27.0729043 178.883309,27.2866507 C178.117229,27.5184 177.178982,27.6792768 176.157475,27.7670232 C175.913338,27.7670232 175.318214,27.8536507 175.047062,28.6760275 C174.92449,29.046145 174.878323,29.4399 174.906446,29.8494 C174.935678,30.2341536 175.006541,30.5930218 175.115707,30.9136464 C175.376678,31.7123957 175.87957,31.8294043 176.157475,31.8294043 C177.101366,31.8294043 177.831461,31.8406536 178.345541,31.8597754 C178.919294,31.8867797 179.10265,31.9790218 179.130874,31.9981536 C179.166859,32.0195232 179.183693,32.1039029 179.192664,32.1556536 C179.232077,32.4391536 179.252338,32.8374043 179.252338,33.347029 L179.252338,50.8958957 C179.252338,54.0323986 179.96328,56.3926507 181.362787,57.9125232 C182.77691,59.4537754 185.173229,60.2334029 188.477352,60.2334029 C190.435997,60.2334029 192.178627,59.9138971 193.660186,59.2872739 C195.190229,58.6370232 196.443475,57.5300275 197.368214,56.0180275 C197.596627,55.6827768 197.63483,55.271029 197.485243,54.8750261 C197.388475,54.6140246 197.239997,54.3710261 197.044243,54.137029 C196.831555,53.8917725 196.568366,53.7061493 196.263446,53.5891507 C196.103678,53.5272797 195.942802,53.4968986 195.784243,53.4968986 C195.547968,53.4968986 195.318446,53.5655232 195.095678,53.7162797 C194.655787,54.0357754 193.994338,54.3473986 193.133707,54.6399 C192.27983,54.9324014 191.3562,55.0786522 190.393157,55.0786522 C189.17257,55.0786522 188.397418,54.6297797 187.946338,53.6611522 C187.423186,52.5316478 187.159997,50.7339 187.159997,48.2993986 L187.159997,33.0725203 C187.159997,32.4346478 187.168968,32.055529 187.179048,31.8294043 L196.010338,31.8294043 C196.954229,31.8294043 197.686541,31.8406536 198.198403,31.8597754 C198.774475,31.8867797 198.953294,31.9790218 198.983736,31.9981536 C199.019722,32.0195232 199.037664,32.1039029 199.045627,32.1556536 C199.084939,32.4391536 199.1052,32.8374043 199.1052,33.347029 L199.1052,50.8958957 C199.1052,54.0323986 199.818461,56.3926507 201.21565,57.9125232 C202.6332,59.4537754 205.026091,60.2334029 208.330214,60.2334029 C210.28765,60.2334029 212.032598,59.9138971 213.514157,59.2872739 C215.041982,58.6370232 216.295229,57.5300275 217.223294,56.0180275 C217.450598,55.6827768 217.49112,55.271029 217.336997,54.8750261 C217.23912,54.6140246 217.092859,54.3710261 216.897106,54.137029 C216.683309,53.8917725 216.423446,53.7061493 216.117418,53.5891507 C215.95765,53.5272797 215.795664,53.4968986 215.638214,53.4968986 C215.40083,53.4968986 215.1702,53.5655232 214.948541,53.7162797 C214.509859,54.0357754 213.848309,54.3473986 212.98657,54.6399 C212.132693,54.9324014 211.21128,55.0786522 210.24612,55.0786522 C209.026541,55.0786522 208.25028,54.6297797 207.800309,53.6611522 C207.278366,52.5316478 207.013968,50.7339 207.013968,48.2993986 L207.013968,33.0725203 C207.013968,32.4346478 207.022939,32.055529 207.03191,31.8294043 L216.813845,31.8294043 C217.509062,31.8294043 218.025461,31.4221522 218.240366,30.7190218 C218.37312,30.2589 218.440555,29.8674029 218.440555,29.5242797 C218.440555,29.1923957 218.388845,28.8211493 218.279678,28.3880218" id="Fill-5" fill="#19194E"></path>
                <path d="M236.49827,44.3567275 C233.098589,44.6807189 230.553792,45.4187261 228.930408,46.5482203 C227.325067,47.6653464 226.543162,49.042355 226.543162,50.7557232 C226.543162,51.9583478 226.840118,52.9731014 227.427379,53.7740986 C227.970792,54.5143536 228.894422,54.8721029 230.256835,54.8721029 C231.218669,54.8721029 232.252574,54.680855 233.331437,54.3005971 C234.404654,53.9225971 235.376669,53.3747189 236.21593,52.6569725 C236.322778,52.5467275 236.503915,52.3228507 236.503915,52.1248493 L236.503915,44.6807189 C236.503915,44.5547189 236.501698,44.4456029 236.49827,44.3567275 M243.125669,60.2327275 C241.645118,60.2327275 240.355886,59.8277232 239.29164,59.0244782 C238.446835,58.3888536 237.768451,57.6441029 237.272314,56.8093478 C236.115835,57.7532189 234.820958,58.5317275 233.389901,59.1471014 C231.73164,59.8704725 229.640242,60.2327275 227.177698,60.2327275 C224.385437,60.2327275 222.183763,59.4654782 220.635778,57.9377232 C219.082147,56.4156029 218.294698,54.2499754 218.294698,51.5094754 C218.294698,47.9634725 219.96193,45.213971 223.252546,43.3295957 C226.317067,41.5689725 230.763053,40.6520957 236.474683,40.6048507 C236.489299,40.3865986 236.503915,40.0299782 236.503915,39.4224768 L236.503915,37.5830986 C236.503915,36.5008493 236.41501,35.4624782 236.239517,34.4994754 C236.072995,33.5893522 235.791763,32.7827203 235.401365,32.1088522 C235.034654,31.4698507 234.529546,30.9804768 233.865778,30.6047246 C233.205437,30.2402218 232.358314,30.0534696 231.352531,30.0534696 C229.811299,30.0534696 228.562589,30.3493478 227.638958,30.9287261 C226.798589,31.4586014 226.405872,32.0762232 226.405872,32.8671 C226.405872,33.2248493 226.522901,33.5724782 226.761394,33.9302275 C227.160763,34.5321043 227.36327,35.1598464 227.36327,35.8067203 C227.36327,36.6527246 226.961683,37.4526029 226.168589,38.1872232 C225.395654,38.9072275 224.442792,39.2706014 223.343669,39.2706014 C221.878944,39.2706014 220.797763,38.8453464 220.12956,38.000471 C219.503995,37.2152189 219.18456,36.2420957 219.18456,35.1238522 C219.18456,33.8492246 219.544517,32.6274782 220.253242,31.4878536 C220.945133,30.3819768 221.892451,29.4223507 223.06919,28.6404754 C224.223451,27.8732261 225.581328,27.2578522 227.103408,26.8056029 C228.630024,26.3533536 230.24101,26.1238522 231.89927,26.1238522 C235.705176,26.1238522 238.761835,27.0317275 240.985886,28.8137203 C243.256205,30.6373536 244.410365,33.6579768 244.410365,37.7855957 L244.410365,51.4419797 C244.410365,53.2824768 244.614082,54.1093493 244.785038,54.4805957 C244.900958,54.7281 245.127053,55.0071043 245.862792,55.0071043 C246.278995,55.0071043 246.609821,54.964355 246.845995,54.8811043 C247.031669,54.8169754 247.391626,54.6504739 248.079082,54.2308536 C248.243285,54.1239754 248.45819,54.0519739 248.67864,54.0519739 C248.882256,54.0519739 249.081437,54.1093493 249.272654,54.2207232 C249.520118,54.3613493 249.73956,54.5593507 249.91727,54.7978536 C250.092763,55.0521014 250.210901,55.3221043 250.278437,55.6145957 C250.378531,56.0713507 250.255958,56.4977246 249.942067,56.8093478 C248.071118,59.0649797 245.760379,60.2327275 243.125669,60.2327275" id="Fill-7" fill="#19194E"></path>
                <path d="M247.897742,22.7004725 C246.457714,22.7004725 245.289946,21.5394782 245.289946,20.0994696 C245.289946,18.6684725 246.457714,17.496229 247.897742,17.496229 C249.339989,17.496229 250.512192,18.6684725 250.512192,20.0994696 C250.512192,21.5394782 249.339989,22.7004725 247.897742,22.7004725 M247.897742,16.8223507 C246.089794,16.8223507 244.618315,18.2949782 244.618315,20.0994696 C244.618315,21.903971 246.089794,23.3765986 247.897742,23.3765986 C249.711235,23.3765986 251.18604,21.903971 251.18604,20.0994696 C251.18604,18.2949782 249.711235,16.8223507 247.897742,16.8223507" id="Fill-9" fill="#19194E"></path>
                <path d="M247.98564,22.0204152 C246.838133,22.0204152 246.099067,21.2632862 246.099067,20.1000341 C246.099067,18.9255427 246.915749,18.1076616 248.084626,18.1076616 C248.590944,18.1076616 248.883365,18.228037 248.984669,18.2786587 L249.100589,18.3394109 L248.900299,19.0121602 L248.733778,18.9311573 C248.635901,18.8816645 248.418778,18.7972848 248.098133,18.7972848 C247.343242,18.7972848 246.891053,19.2776573 246.891053,20.0775355 C246.891053,20.8605398 247.335379,21.329663 248.077872,21.329663 C248.319792,21.329663 248.581872,21.2779123 248.746176,21.2002862 L248.917133,21.1159166 L249.091517,21.7819123 L248.980133,21.8392877 C248.751821,21.9484138 248.381683,22.0204152 247.98564,22.0204152" id="Fill-12" fill="#19194E"></path>
                <path d="M59.4355507,1.00575014 C60.2118014,1.61662536 60.959929,2.27137478 61.6709218,2.98012478 L84.8526739,26.1056275 C85.5647957,26.8166203 86.2195522,27.561371 86.8281725,28.3331261 L87.7112914,28.3331261 L87.7112914,3.465 C87.7112914,1.62225 86.2015493,0.116999568 84.3565464,0.116999568 L59.4355507,0.116999568 L59.4355507,1.00575014 Z" id="Fill-14" fill="#19194E"></path>
                <path d="M0.898087478,28.3331261 C1.51008782,27.5602522 2.16596218,26.8132536 2.8758371,26.1067464 L26.0632109,2.97562507 C26.7719659,2.268 27.5200834,1.61324957 28.2952152,1.00237536 L28.2952152,0.116999568 L3.35621261,0.116999568 C1.51008782,0.116999568 0.000337499971,1.62225 0.000337499971,3.465 L0.000337499971,28.3331261 L0.898087478,28.3331261 Z" id="Fill-17" fill="#19194E"></path>
                <path d="M86.8294123,59.3969645 C86.220792,60.1675906 85.5660355,60.9134602 84.8550427,61.624463 L61.6687848,84.7533355 C60.9600398,85.4609616 60.2107934,86.1134602 59.4356616,86.7265862 L59.4356616,87.6108341 L84.3566573,87.6108341 C86.2016602,87.6108341 87.7114123,86.1044688 87.7114123,84.2628427 L87.7114123,59.3969645 L86.8294123,59.3969645 Z" id="Fill-20" fill="#19194E"></path>
                <path d="M28.2953261,86.7222014 C27.5190754,86.1113232 26.7720768,85.4565768 26.0633218,84.7489507 L2.88044971,61.6245739 C2.17057478,60.915829 1.51470043,60.1699493 0.901575058,59.3970754 L0.000450000029,59.3970754 L0.000450000029,84.2618246 C0.000450000029,86.1045696 1.51019971,87.610955 3.3563255,87.610955 L28.2953261,87.610955 L28.2953261,86.7222014 Z" id="Fill-22" fill="#19194E"></path>
                <path d="M60.6330043,64.2287218 L27.3532493,64.2287218 C26.7986275,64.2287218 26.3452493,63.7787203 26.3452493,63.2252275 L26.3452493,59.9109739 C26.3452493,59.3563522 26.6220058,58.5474725 26.9583754,58.1098493 L46.7145,32.4587189 C47.0519986,32.0199768 46.8742478,31.6622275 46.320755,31.6622275 L31.9038754,31.6622275 C31.3492536,31.6622275 30.7507536,31.2335957 30.5730029,30.7104739 L28.4388754,24.4498464 C28.2622536,23.9267246 28.569371,23.4981029 29.1228739,23.4981029 L60.1796261,23.4981029 C60.732,23.4981029 61.1864971,23.9492232 61.1864971,24.5027261 L61.1864971,28.1938507 C61.1864971,28.7484725 60.9119986,29.560729 60.5767478,29.9983522 L41.2503739,55.2692246 C40.9151232,55.7079768 41.0928739,56.0679739 41.6463768,56.0679739 L57.8463782,56.0679739 C58.401,56.0679739 58.9995,56.4943478 59.1783797,57.0197275 L61.3158739,63.2792261 C61.4936246,63.8034768 61.1876261,64.2287218 60.6330043,64.2287218 M79.8288725,31.1177261 L56.6460014,7.99109942 C53.1134957,4.46760014 48.4897493,2.70697493 43.8614971,2.70697493 C39.2377507,2.70809986 34.6140043,4.46647522 31.0848754,7.98659971 L7.8986255,31.1177261 C0.841499971,38.157971 0.842625,49.5722203 7.90200029,56.6124754 L31.0848754,79.737971 C34.6151232,83.2592174 39.2411275,85.0198507 43.8660029,85.0198507 C48.4908782,85.0198507 53.1157435,83.2603565 56.6448725,79.7413478 L79.8311304,56.6124754 C86.8882493,49.5722203 86.8882493,38.157971 79.8288725,31.1177261" id="Fill-24" fill="#0F9DAF"></path>
            </g>
        </g>
    </g>
</svg>