<?xml version="1.0" encoding="UTF-8"?>
<svg width="344px" height="168px" viewBox="0 0 344 168" version="1.1" xmlns="http://www.w3.org/2000/svg" xmlns:xlink="http://www.w3.org/1999/xlink">
    <!-- Generator: sketchtool 51.3 (57544) - http://www.bohemiancoding.com/sketch -->
    <title>2F20F52F-791C-4E52-BD53-4397FB040608</title>
    <desc>Created with sketchtool.</desc>
    <defs></defs>
    <g id="Форма-покупки" stroke="none" stroke-width="1" fill="none" fill-rule="evenodd">
        <g id="Проблема" transform="translate(-548.000000, -440.000000)">
            <g id="Page-1" transform="translate(548.000000, 440.000000)">
                <g id="Group" transform="translate(0.000000, 5.000000)">
                    <path d="M261.2529,64 C270.0889,64 277.2529,71.164 277.2529,80 C277.2529,88.836 270.0889,96 261.2529,96 L213.4839,96 C205.8709,97.23 200.0509,103.815 200.0509,111.776 C200.0509,118.898 204.7069,124.926 211.1399,127 L217.8379,127 C226.6749,127 233.8379,134.164 233.8379,143 C233.8379,151.836 226.6749,159 217.8379,159 L46.0549,159 C37.2179,159 30.0549,151.836 30.0549,143 C30.0549,134.164 37.2179,127 46.0549,127 L59.2129,127 C65.6449,124.926 70.3009,118.898 70.3009,111.776 L70.3009,111.775 C70.3009,103.814 64.4809,97.23 56.8669,96 L15.9999,96 C7.1639,96 -0.0001,88.836 -0.0001,80 C-0.0001,71.164 7.1639,64 15.9999,64 L67.4729,64 C76.3089,64 83.4729,56.836 83.4729,48 C83.4729,39.164 76.3089,32 67.4729,32 L52.3999,32 C43.5639,32 36.3999,24.836 36.3999,16 C36.3999,7.164 43.5639,0 52.3999,0 L276.9859,0 C285.8229,0 292.9859,7.164 292.9859,16 C292.9859,24.836 285.8229,32 276.9859,32 L240.3449,32 C231.5079,32 224.3449,39.164 224.3449,48 C224.3449,56.836 231.5079,64 240.3449,64 L261.2529,64 Z M327.2227,64 C336.0597,64 343.2227,71.164 343.2227,80 C343.2227,88.836 336.0597,96 327.2227,96 L302.9997,96 C294.1627,96 286.9997,88.836 286.9997,80 C286.9997,71.164 294.1627,64 302.9997,64 L327.2227,64 Z" id="Combined-Shape" fill="#F4F4F4"></path>
                    <g id="Group-4" transform="translate(98.000000, 13.000000)">
                        <polygon id="Fill-28" fill="#FFFFFF" points="69.4834 128.7104 84.1364 128.7104 84.1364 125.1644 59.1004 124.5114 59.1004 95.4004 43.2944 93.2204 43.0024 126.1374"></polygon>
                        <polygon id="Stroke-30" stroke="#7E8595" stroke-width="2" stroke-linecap="round" stroke-linejoin="round" points="69.4834 128.7104 84.1364 128.7104 84.1364 125.1644 59.1004 124.5114 59.1004 95.4004 43.2944 93.2204 43.0024 126.1374"></polygon>
                        <polygon id="Fill-32" fill="#FFFFFF" points="45.1099 90.9341 45.1099 124.2501 69.4839 124.7831 69.4839 128.7101 40.7579 128.4011 40.7579 90.9071"></polygon>
                        <polygon id="Stroke-34" stroke="#7E8595" stroke-width="2" stroke-linecap="round" stroke-linejoin="round" points="45.1099 90.9341 45.1099 124.2501 69.4839 124.7831 69.4839 128.7101 40.7579 128.4011 40.7579 90.9071"></polygon>
                        <path d="M6.21779337,6.31805353 C6.28451616,6.28627622 6.35582758,6.26144728 6.43102125,6.24467856 L15.2099519,4.28691489 C15.7489954,4.16670437 16.2834264,4.50623558 16.4036369,5.04527907 C16.5238474,5.58432255 16.1843162,6.11875351 15.6452727,6.23896402 L12.4767833,6.94555957 L96.4223347,35.780801 C98.9947857,36.6644362 100.942028,38.7945862 101.591782,41.4358235 C106.088211,59.7137182 108.336426,73.9794138 108.336426,84.2329102 C108.336426,88.9188376 107.948193,92.6694041 107.171728,95.4846097 C106.10313,99.3589933 102.325906,101.839143 98.3459926,101.279644 L7.30670587,88.4812814 C3.35755376,87.926107 0.4204,84.5471649 0.4204,80.5591803 L0.4204,14.0110051 C0.4204,10.3566691 2.87060675,7.27460967 6.21779337,6.31805353 Z" id="Combined-Shape" stroke="#7E8595" stroke-width="2" fill="#FFFFFF" stroke-linecap="round" stroke-linejoin="round"></path>
                        <path d="M9.4204,78.5722485 L9.4204,12.0110051 C9.4204,7.59272706 13.002122,4.01100506 17.4204,4.01100506 C18.3047429,4.01100506 19.1829662,4.15763492 20.0193419,4.44492939 L104.124342,33.3349402 C107.355628,34.4448848 109.5254,37.4844113 109.5254,40.9010159 L109.5254,90.5555622 C109.5254,94.9738402 105.943678,98.5555622 101.5254,98.5555622 C101.147835,98.5555622 100.770743,98.5288331 100.396953,98.4755753 L16.2919534,86.4922616 C12.3494453,85.9305315 9.4204,82.5545733 9.4204,78.5722485 Z" id="Stroke-8" stroke="#7E8595" stroke-width="2" fill="#FFFFFF" stroke-linecap="round" stroke-linejoin="round"></path>
                        <polygon id="Fill-10" fill="#EBF9FF" points="106.1445 94.937 15.6905 80.784 15.6905 9.041 106.1445 38.779"></polygon>
                        <path d="M101.526158,94.2143853 L19.0721582,81.3131154 C17.1254372,81.0085193 15.6905,79.3316042 15.6905,77.3611978 L15.6905,14.566681 C15.6905,12.357542 17.481361,10.566681 19.6905,10.566681 C20.1149022,10.566681 20.5366003,10.6342223 20.9397729,10.7667709 L103.393773,37.8746605 C105.035132,38.4142798 106.1445,39.9467839 106.1445,41.6745707 L106.1445,90.2624676 C106.1445,92.4716066 104.353639,94.2624676 102.1445,94.2624676 C101.937452,94.2624676 101.730717,94.2463918 101.526158,94.2143853 Z" id="Stroke-12" stroke="#7E8595" stroke-width="2" stroke-linecap="round" stroke-linejoin="round"></path>
                        <path d="M44.5649,66.5933 C48.6979,63.9023 56.9189,63.2893 65.9799,65.2893 C75.0539,67.2933 82.4959,71.3883 85.6389,75.5313" id="Stroke-14" stroke="#29B6F6" stroke-width="2" stroke-linecap="round" stroke-linejoin="round"></path>
                        <path d="M41.8403,37.4067 L54.1483,36.9247" id="Stroke-16" stroke="#29B6F6" stroke-width="2" stroke-linecap="round" stroke-linejoin="round"></path>
                        <path d="M50.4253,37.3267 C50.8943,37.9967 51.1803,38.7907 51.1803,39.5727 C51.1803,41.2367 49.8853,42.2327 48.2753,41.7947 C46.6513,41.3527 45.3243,39.6227 45.3243,37.9327 C45.3243,37.7497 45.3403,37.5747 45.3703,37.4087" id="Stroke-18" stroke="#29B6F6" stroke-width="2" stroke-linecap="round" stroke-linejoin="round"></path>
                        <path d="M87.2939,50.082 L77.0899,43.561" id="Stroke-20" stroke="#29B6F6" stroke-width="2" stroke-linecap="round" stroke-linejoin="round"></path>
                        <path d="M80.3105,45.8555 C79.9115,46.2365 79.6665,46.8265 79.6665,47.5495 C79.6665,49.0885 80.7675,50.6355 82.1165,51.0015 C83.4545,51.3665 84.5315,50.4295 84.5315,48.9125 C84.5315,48.7475 84.5185,48.5825 84.4945,48.4185" id="Stroke-22" stroke="#29B6F6" stroke-width="2" stroke-linecap="round" stroke-linejoin="round"></path>
                    </g>
                </g>
            </g>
        </g>
    </g>
</svg>