<svg xmlns="http://www.w3.org/2000/svg" width="100" height="100" viewBox="0 0 100 100">
    <g fill="none" fill-rule="evenodd" stroke="#FFF" stroke-linecap="round" stroke-linejoin="round" stroke-width="2">
        <path fill="#FFA726" d="M66.295 43.834l-2.35 3.117.768 3.828-3.472 1.783-.97 3.782-3.901.106-2.514 2.985-3.561-1.602-3.561 1.602-2.515-2.985-3.902-.108-.97-3.78-3.47-1.784.767-3.828-2.35-3.117 2.35-3.117-.767-3.828 3.472-1.783.969-3.781 3.902-.109 2.514-2.983 3.56 1.602 3.562-1.602 2.515 2.985 3.902.108.969 3.78 3.47 1.785-.766 3.827z"/>
        <path d="M43.545 43.75l5.5 5.5 9.125-9.125"/>
        <path d="M50.164 96c39.166-19.833 35-78.5 35-78.5-24.25-1.5-35-12.5-35-12.5h-.036s-10.75 11-35 12.5c0 0-4.166 58.667 35.001 78.5h.035zM54.429 86.29a45.607 45.607 0 0 1-3.291 2.273M79.27 23.495c-.155 12.333-2.55 42.208-21.034 59.58"/>
        <path d="M25.427 54.132c-3.676-12.496-4.357-24.593-4.41-31.158 11.462-1.44 19.805-4.876 25.288-7.96M30.345 66.89a75.81 75.81 0 0 1-3.427-8.154M34.224 73.687a61.181 61.181 0 0 1-2.373-3.922M37.492 78.157a54.434 54.434 0 0 1-1.318-1.691"/>
    </g>
</svg>
