<svg xmlns="http://www.w3.org/2000/svg" width="100" height="100" viewBox="0 0 100 100">
    <g fill="none" fill-rule="evenodd" stroke="#FFF" stroke-linecap="round" stroke-linejoin="round" stroke-width="2">
        <path d="M72 83h18.667A4.332 4.332 0 0 0 95 78.667V53c0-6.075-4.925-11-11-11v8H16v-8C9.925 42 5 46.925 5 53v25.667A4.332 4.332 0 0 0 9.333 83H28"/>
        <path fill="#FFA726" d="M28 50h44V29H28z"/>
        <path d="M15 42h13M72 42h13M22 73h56"/>
        <path fill="#FFA726" d="M28 93h44V73H28z"/>
        <path d="M37 85h26M37 79h26"/>
    </g>
</svg>
