<?xml version="1.0" encoding="UTF-8" standalone="no"?>
<svg width="64px" height="41px" viewBox="0 0 64 41" version="1.1" xmlns="http://www.w3.org/2000/svg" xmlns:xlink="http://www.w3.org/1999/xlink" xmlns:sketch="http://www.bohemiancoding.com/sketch/ns">
    <!-- Generator: Sketch 3.3.2 (12043) - http://www.bohemiancoding.com/sketch -->
    <title>Untitled 2</title>
    <desc>Created with Sketch.</desc>
    <defs></defs>
    <g id="Page-1" stroke="none" stroke-width="1" fill="none" fill-rule="evenodd" sketch:type="MSPage">
        <path d="M62.927,38 L61.091,38 L61.84,21.514 C61.943,19.244 61.245,17.072 59.866,15.267 L58.089,13 L60.154,13 C60.671,13 61.154,12.774 61.442,12.305 L62.711,9.973 C63.035,9.442 62.972,9 62.558,8 L62.529,8 L61.555,8 L58.192,8 C57.782,8 57.39,8.24 57.099,8.557 L56.054,9.728 C55.988,9.799 55.946,9.902 55.895,9.983 L50.545,2.981 C49.107,1.098 46.873,0 44.503,0 L19.77,0 C17.43,0 15.221,1.078 13.78,2.921 L8.174,10.098 C8.109,9.979 8.042,9.859 7.951,9.759 L6.918,8.557 C6.631,8.24 6.242,8 5.836,8 L2.514,8 L1.55,8 L1.522,8 C1.113,9 1.05,9.411 1.37,9.941 L2.625,12.273 C2.909,12.743 3.387,13 3.898,13 L6.004,13 L4.204,15.242 C2.782,17.063 2.058,19.3 2.163,21.607 L2.909,38 L1.073,38 C0.48,38 0,38.48 0,39.073 L0,39.927 C0,40.52 0.48,41 1.073,41 L62.927,41 C63.52,41 64,40.52 64,39.927 L64,39.073 C64,38.48 63.52,38 62.927,38 L62.927,38 Z M10.675,10.541 L15.779,4.169 C16.821,2.835 18.389,2 20.081,2 L31,2 L31,3 L28.312,3 C27.587,3 27,3.587 27,4.312 C27,5.245 27.755,6 28.687,6 L35.312,6 C36.244,6 37,5.245 37,4.312 C37,3.587 36.412,3 35.687,3 L33,3 L33,2 L44.185,2 C45.875,2 47.498,2.872 48.523,4.217 L53.381,10.519 C53.612,10.816 53.665,11.232 53.52,11.58 C53.374,11.928 53.052,12.178 52.679,12.223 C50.327,12.503 44.825,12.855 32,12.855 C19.255,12.855 13.742,12.516 11.366,12.236 C10.988,12.192 10.664,11.945 10.52,11.593 C10.376,11.24 10.435,10.836 10.675,10.541 L10.675,10.541 Z M34,21 L32,25 L30,21 L34,21 L34,21 Z M5.958,18.958 C5.958,18.958 7.417,20.86 14.167,20.86 C17.284,20.86 19,24.058 19,24.058 C19,24.058 16.254,24.719 11.678,24.719 C9.418,24.719 5.185,21.863 5.958,18.958 L5.958,18.958 Z M51,38 L13,38 L13,33 C13,33 15,34 32,34 C49,34 51,33 51,33 L51,38 L51,38 Z M52.187,24.719 C47.611,24.719 44.865,24.058 44.865,24.058 C44.865,24.058 46.581,20.86 49.699,20.86 C56.449,20.86 57.907,18.958 57.907,18.958 C58.68,21.863 54.447,24.719 52.187,24.719 L52.187,24.719 Z" id="Imported-Layers-Copy-2" fill="#34495E" sketch:type="MSShapeGroup"></path>
    </g>
</svg>