<?xml version="1.0" encoding="UTF-8" standalone="no"?>
<svg width="56px" height="46px" viewBox="0 0 56 46" version="1.1" xmlns="http://www.w3.org/2000/svg" xmlns:xlink="http://www.w3.org/1999/xlink" xmlns:sketch="http://www.bohemiancoding.com/sketch/ns">
    <!-- Generator: Sketch 3.3.2 (12043) - http://www.bohemiancoding.com/sketch -->
    <title>Untitled 2</title>
    <desc>Created with Sketch.</desc>
    <defs></defs>
    <g id="Page-1" stroke="none" stroke-width="1" fill="none" fill-rule="evenodd" sketch:type="MSPage">
        <path d="M35.7662934,37.4949934 C32.8582934,39.8869934 29.8012934,42.5919934 26.7662934,45.8669934 C13.3292934,31.3669934 -0.54170663,27.9979934 0.0162933705,13.8669934 C0.76629337,-5.1330066 26.7662934,-2.0380066 26.7662934,7.8669934 C26.7662934,-2.0380066 52.7662934,-5.1330066 53.5162934,13.8669934 C53.6212934,16.5349934 53.2112934,18.8189934 52.3872934,20.8669934 L48.7662934,20.8669934 L48.7662934,11.8669934 L35.7662934,11.8669934 L35.7662934,20.8669934 L26.7662934,20.8669934 L26.7662934,33.8669934 L35.7662934,33.8669934 L35.7662934,37.4949934 L35.7662934,37.4949934 Z M55.7662934,22.8669934 L46.7662934,22.8669934 L46.7662934,13.8669934 L37.7662934,13.8669934 L37.7662934,22.8669934 L28.7662934,22.8669934 L28.7662934,31.8669934 L37.7662934,31.8669934 L37.7662934,40.8669934 L46.7662934,40.8669934 L46.7662934,31.8669934 L55.7662934,31.8669934 L55.7662934,22.8669934 L55.7662934,22.8669934 Z" id="Imported-Layers-Copy" fill="#34495E" sketch:type="MSShapeGroup"></path>
    </g>
</svg>