<?xml version="1.0" encoding="utf-8"?>
<!-- Generator: Adobe Illustrator 16.0.4, SVG Export Plug-In . SVG Version: 6.00 Build 0)  -->
<!DOCTYPE svg PUBLIC "-//W3C//DTD SVG 1.1//EN" "http://www.w3.org/Graphics/SVG/1.1/DTD/svg11.dtd">
<svg version="1.1" id="Layer_1" xmlns="http://www.w3.org/2000/svg" xmlns:xlink="http://www.w3.org/1999/xlink" x="0px" y="0px"
	 width="100px" height="100px" viewBox="0 0 100 100" enable-background="new 0 0 100 100" xml:space="preserve">
<g>
	<path fill="#981D59" d="M26,51.018C10,50.54,6.852,43.85,6.852,33.254c0-10.68,3.764-17.793,21.576-17.793
		c17.79,0,21.493,7.113,21.493,17.793c0,10.358-3.943,15.325-13.105,17.089L26,57.892V51.018z"/>
	<path fill="#E5077F" d="M7.852,33.254c0-10.992,4.102-16.793,20.576-16.793c16.475,0,20.493,5.801,20.493,16.793
		c0,8.871-2.856,14.359-12.506,16.146L27,55.953v-5.914C11,49.82,7.852,44.035,7.852,33.254z"/>
	<g>
		<path fill="#E5077F" d="M8.958,33.166c0,10.339,3.752,15.795,19.458,15.795s19.458-5.456,19.458-15.795
			s-3.752-15.795-19.458-15.795S8.958,22.827,8.958,33.166z"/>
		<path opacity="0.9429" fill="#E84A8D" d="M9.91,32.38c0,9.188,3.334,14.036,17.292,14.036s17.292-4.849,17.292-14.036
			S41.16,18.344,27.202,18.344S9.91,23.193,9.91,32.38z"/>
		<path opacity="0.8857" fill="#EB6E9E" d="M10.863,31.595c0,8.036,2.916,12.277,15.125,12.277c12.208,0,15.125-4.241,15.125-12.277
			c0-8.037-2.917-12.277-15.125-12.277C13.779,19.317,10.863,23.558,10.863,31.595z"/>
		<path opacity="0.8286" fill="#EE8AAE" d="M11.815,30.809c0,6.886,2.499,10.52,12.958,10.52c10.46,0,12.959-3.634,12.959-10.52
			c0-6.885-2.499-10.519-12.959-10.519C14.314,20.29,11.815,23.924,11.815,30.809z"/>
		<path opacity="0.7714" fill="#F1A6C0" d="M12.768,30.023c0,5.733,2.081,8.76,10.792,8.76c8.711,0,10.792-3.026,10.792-8.76
			c0-5.734-2.081-8.761-10.792-8.761C14.849,21.263,12.768,24.289,12.768,30.023z"/>
		<path opacity="0.7143" fill="#F5C2D3" d="M13.72,29.237c0,4.583,1.663,7.002,8.625,7.002s8.625-2.419,8.625-7.002
			c0-4.583-1.663-7.001-8.625-7.001S13.72,24.655,13.72,29.237z"/>
		<path opacity="0.6571" fill="#FADFE7" d="M14.673,28.452c0,3.432,1.245,5.243,6.458,5.243s6.458-1.811,6.458-5.243
			c0-3.431-1.246-5.243-6.458-5.243S14.673,25.021,14.673,28.452z"/>
		<path opacity="0.6" fill="#FFFFFF" d="M15.625,27.666c0,2.28,0.827,3.484,4.292,3.484c3.464,0,4.292-1.204,4.292-3.484
			s-0.828-3.484-4.292-3.484C16.452,24.182,15.625,25.386,15.625,27.666z"/>
	</g>
	<g>
		<g>
			<circle fill="#EBEBEC" cx="19.875" cy="33.15" r="2.5"/>
			<path fill="#8F1D58" d="M18.375,34.15c0-1.381,1.12-2.5,2.5-2.5c0.432,0,0.833,0.119,1.188,0.312
				c-0.423-0.779-1.239-1.312-2.188-1.312c-1.38,0-2.5,1.119-2.5,2.5c0,0.948,0.535,1.764,1.313,2.188
				C18.494,34.982,18.375,34.582,18.375,34.15z"/>
		</g>
		<g>
			<circle fill="#EBEBEC" cx="27.875" cy="33.15" r="2.5"/>
			<path fill="#8F1D58" d="M26.375,34.15c0-1.381,1.12-2.5,2.5-2.5c0.432,0,0.833,0.119,1.188,0.312
				c-0.423-0.779-1.239-1.312-2.188-1.312c-1.38,0-2.5,1.119-2.5,2.5c0,0.948,0.535,1.764,1.313,2.188
				C26.494,34.982,26.375,34.582,26.375,34.15z"/>
		</g>
		<g>
			<circle fill="#EBEBEC" cx="36.375" cy="33.15" r="2.5"/>
			<path fill="#8F1D58" d="M34.875,34.15c0-1.381,1.12-2.5,2.5-2.5c0.432,0,0.833,0.119,1.188,0.312
				c-0.423-0.779-1.239-1.312-2.188-1.312c-1.38,0-2.5,1.119-2.5,2.5c0,0.948,0.535,1.764,1.313,2.188
				C34.994,34.982,34.875,34.582,34.875,34.15z"/>
		</g>
	</g>
	<path opacity="0.8" fill="#FFFFFF" d="M16.292,26.666c0,1.129,0.41,1.725,2.125,1.725s2.125-0.596,2.125-1.725
		s-0.409-1.725-2.125-1.725S16.292,25.537,16.292,26.666z"/>
	<path opacity="0.5" fill="#FFFFFF" d="M14.958,23.666c0,0.51,0.185,0.777,0.958,0.777c0.773,0,0.958-0.268,0.958-0.777
		s-0.185-0.777-0.958-0.777C15.143,22.889,14.958,23.156,14.958,23.666z"/>
	<g opacity="0.7">
		<path fill="#FFFFFF" d="M28.958,51.961c-0.127-1.298-0.213-2.597-0.287-3.896l0.283,0.287c-0.865,0.036-1.745,0.06-2.614,0.062
			c-0.866,0.024-1.747-0.03-2.628-0.061c-0.877-0.062-1.753-0.139-2.627-0.271c-0.438-0.05-0.874-0.129-1.307-0.225
			c-0.435-0.081-0.868-0.18-1.296-0.303c-0.431-0.106-0.86-0.231-1.278-0.393c-0.425-0.137-0.834-0.323-1.244-0.508
			c-0.417-0.165-0.798-0.418-1.191-0.633c-0.37-0.259-0.756-0.495-1.094-0.796c-0.352-0.284-0.671-0.603-0.963-0.947
			c-0.308-0.326-0.554-0.709-0.793-1.083c-0.219-0.39-0.434-0.776-0.591-1.19c-0.193-0.396-0.285-0.833-0.415-1.247
			c0.211,0.385,0.382,0.782,0.62,1.144c0.209,0.376,0.471,0.717,0.729,1.053c0.284,0.315,0.548,0.646,0.867,0.922l0.469,0.418
			l0.508,0.371c0.331,0.254,0.709,0.445,1.065,0.658c0.387,0.167,0.742,0.388,1.143,0.525c0.391,0.156,0.78,0.312,1.19,0.423
			c0.401,0.129,0.806,0.251,1.221,0.343c0.819,0.219,1.663,0.355,2.506,0.49c0.842,0.146,1.7,0.215,2.552,0.315
			c1.702,0.164,3.446,0.235,5.179,0.358l0.298,0.021l-0.015,0.266C29.171,49.364,29.085,50.663,28.958,51.961z"/>
	</g>
	<g opacity="0.9">
		<path fill="#FFFFFF" d="M10.114,29.877c0,0-0.009-0.271,0-0.743c0-0.236,0.019-0.521,0.05-0.853
			c0.021-0.333,0.058-0.709,0.143-1.111c0.059-0.408,0.176-0.84,0.309-1.296c0.154-0.448,0.302-0.936,0.554-1.397
			c0.223-0.476,0.513-0.94,0.833-1.395c0.348-0.434,0.713-0.866,1.133-1.245c0.198-0.204,0.433-0.361,0.654-0.533
			c0.221-0.173,0.445-0.339,0.685-0.475c0.459-0.31,0.952-0.532,1.424-0.748c0.953-0.417,1.884-0.666,2.685-0.83
			c0.805-0.151,1.479-0.219,1.952-0.251c0.472-0.036,0.742-0.042,0.742-0.042s-0.256,0.094-0.706,0.233
			c-0.455,0.116-1.082,0.36-1.834,0.613c-0.368,0.145-0.767,0.301-1.188,0.466c-0.406,0.193-0.842,0.38-1.271,0.605
			c-0.431,0.225-0.86,0.48-1.277,0.763c-0.426,0.269-0.82,0.596-1.193,0.937c-0.386,0.332-0.719,0.712-1.042,1.094
			c-0.289,0.407-0.596,0.794-0.822,1.22c-0.251,0.409-0.441,0.839-0.631,1.242c-0.163,0.416-0.338,0.804-0.453,1.183
			c-0.259,0.748-0.448,1.382-0.554,1.846C10.192,29.617,10.114,29.877,10.114,29.877z"/>
	</g>
</g>
<g>
	<path fill="#036F75" d="M54.764,75.053c-11.628-2.208-16.387-8.454-16.387-21.505c0-8.032,1.69-13.175,5.493-16.676
		c4.229-3.894,11.115-5.707,21.671-5.707c10.561,0,17.453,1.813,21.693,5.706c3.816,3.505,5.518,8.648,5.518,16.677
		c0,7.883-1.583,12.956-5.18,16.448C83.688,73.771,77,75.656,68,75.902v8.482L54.764,75.053z"/>
	<path fill="#04AFA3" d="M91.771,53.548c0-13.997-5.126-21.383-26.222-21.383s-26.178,7.386-26.178,21.383
		c0,11.296,3.438,18.286,15.793,20.562L67,82.454v-7.532C87,74.645,91.771,67.277,91.771,53.548z"/>
	<path fill="#07A4AB" d="M91.771,53.548c0-13.997-5.126-21.383-26.222-21.383s-26.178,7.386-26.178,21.383
		c0,11.296,3.438,18.286,15.793,20.562L67,82.454v-7.532C87,74.645,91.771,67.277,91.771,53.548z"/>
	<g>
		<path fill="#00ABAC" d="M41.308,53.251c0,12.937,4.658,19.763,24.154,19.763c19.497,0,24.155-6.826,24.155-19.763
			s-4.658-19.763-24.155-19.763C45.965,33.488,41.308,40.314,41.308,53.251z"/>
		<path opacity="0.9556" fill="#44B2B3" d="M86.229,52.271c0-11.829-4.26-18.07-22.088-18.07c-17.827,0-22.086,6.242-22.086,18.07
			c0,11.829,4.259,18.071,22.086,18.071C81.97,70.343,86.229,64.101,86.229,52.271z"/>
		<path opacity="0.9111" fill="#62B9BB" d="M82.842,51.293c0-10.722-3.861-16.379-20.02-16.379
			c-16.159,0-20.019,5.657-20.019,16.379s3.86,16.379,20.019,16.379C78.98,67.672,82.842,62.015,82.842,51.293z"/>
		<path opacity="0.8667" fill="#7AC1C3" d="M79.453,50.313c0-9.613-3.461-14.687-17.951-14.687c-14.489,0-17.95,5.073-17.95,14.687
			c0,9.614,3.461,14.688,17.95,14.688C75.992,65.001,79.453,59.928,79.453,50.313z"/>
		<path opacity="0.8222" fill="#90C9CB" d="M76.066,49.335c0-8.507-3.063-12.995-15.885-12.995
			c-12.819,0-15.882,4.488-15.882,12.995S47.362,62.33,60.182,62.33C73.003,62.33,76.066,57.842,76.066,49.335z"/>
		<path opacity="0.7778" fill="#A6D2D4" d="M72.678,48.356c0-7.399-2.664-11.303-13.815-11.303s-13.815,3.904-13.815,11.303
			s2.664,11.303,13.815,11.303S72.678,55.755,72.678,48.356z"/>
		<path opacity="0.7333" fill="#BBDCDD" d="M69.29,47.377c0-6.292-2.266-9.611-11.747-9.611c-9.482,0-11.748,3.319-11.748,9.611
			c0,6.291,2.266,9.611,11.748,9.611C67.024,56.988,69.29,53.668,69.29,47.377z"/>
		<path opacity="0.6889" fill="#D1E6E7" d="M65.902,46.397c0-5.184-1.867-7.919-9.68-7.919c-7.813,0-9.679,2.735-9.679,7.919
			c0,5.185,1.866,7.92,9.679,7.92C64.035,54.317,65.902,51.582,65.902,46.397z"/>
		<path opacity="0.6444" fill="#E6F1F1" d="M62.515,45.418c0-4.077-1.468-6.227-7.612-6.227c-6.144,0-7.611,2.15-7.611,6.227
			c0,4.077,1.468,6.228,7.611,6.228C61.047,51.646,62.515,49.496,62.515,45.418z"/>
		<path opacity="0.6" fill="#FFFFFF" d="M48.039,44.439c0,2.97,1.069,4.536,5.544,4.536c4.475,0,5.544-1.566,5.544-4.536
			c0-2.969-1.069-4.535-5.544-4.535C49.108,39.904,48.039,41.471,48.039,44.439z"/>
	</g>
	<path opacity="0.9" fill="#FFFFFF" d="M50.415,44.439c0,1.273,0.458,1.944,2.376,1.944c1.917,0,2.375-0.671,2.375-1.944
		c0-1.271-0.458-1.943-2.375-1.943C50.873,42.496,50.415,43.168,50.415,44.439z"/>
	<path opacity="0.7" fill="#FFFFFF" d="M47.863,41.272c0,0.519,0.187,0.792,0.968,0.792s0.968-0.273,0.968-0.792
		s-0.187-0.792-0.968-0.792S47.863,40.754,47.863,41.272z"/>
	<g opacity="0.8">
		<path fill="#FFFFFF" d="M41.709,55.918c0,0-0.096-0.524-0.231-1.443c-0.066-0.444-0.155-1.035-0.185-1.677
			c-0.037-0.646-0.125-1.361-0.111-2.168c0.028-0.805-0.032-1.698,0.104-2.62c0.051-0.465,0.103-0.942,0.155-1.43
			c0.086-0.487,0.208-0.98,0.318-1.485c0.089-0.509,0.291-1.006,0.457-1.519l0.267-0.77l0.374-0.744l0.382-0.749
			c0.147-0.24,0.317-0.47,0.477-0.706l0.489-0.704c0.18-0.222,0.383-0.426,0.575-0.639l0.598-0.62l0.019-0.02l0.069-0.058
			l0.039-0.03l0.077-0.061l0.155-0.122l0.31-0.243l0.618-0.485l0.739-0.453l0.736-0.442c0.248-0.125,0.497-0.222,0.742-0.332
			c0.495-0.206,0.97-0.449,1.466-0.586c0.491-0.155,0.967-0.324,1.443-0.457c0.479-0.102,0.948-0.202,1.405-0.298
			c0.905-0.224,1.784-0.264,2.581-0.375c0.799-0.087,1.537-0.088,2.186-0.118c0.647-0.042,1.217,0.01,1.682,0.019
			c0.932,0.038,1.461,0.079,1.461,0.079s-0.521,0.127-1.427,0.317c-0.451,0.1-1.003,0.189-1.625,0.345
			c-0.62,0.146-1.319,0.31-2.082,0.489c-0.746,0.23-1.575,0.396-2.406,0.689c-0.418,0.139-0.847,0.28-1.285,0.426
			c-0.423,0.171-0.855,0.347-1.295,0.524c-0.45,0.156-0.856,0.406-1.287,0.618c-0.443,0.209-0.837,0.456-1.22,0.706l-0.59,0.365
			l-0.606,0.498L46.727,40.1l-0.486,0.53c-0.164,0.175-0.34,0.339-0.496,0.521l-0.42,0.584c-0.138,0.196-0.288,0.383-0.417,0.584
			l-0.339,0.636l-0.342,0.629l-0.278,0.663c-0.176,0.444-0.389,0.867-0.5,1.329c-0.136,0.453-0.269,0.898-0.399,1.334
			c-0.1,0.45-0.197,0.89-0.292,1.319c-0.109,0.429-0.176,0.851-0.235,1.261c-0.069,0.411-0.135,0.808-0.199,1.189
			c-0.121,0.767-0.179,1.504-0.27,2.139c-0.085,0.643-0.14,1.17-0.181,1.646C41.78,55.39,41.709,55.918,41.709,55.918z"/>
	</g>
	<g opacity="0.3">
		<path fill="#FFFFFF" d="M63.878,77.838c-0.793-0.342-1.553-0.73-2.303-1.132c-0.746-0.407-1.488-0.819-2.207-1.264
			c-1.45-0.871-2.854-1.806-4.232-2.774l0.365,0.166l-1.505-0.316c-0.499-0.099-1.021-0.235-1.547-0.401
			c-0.526-0.145-1.041-0.32-1.537-0.537c-0.502-0.198-1.004-0.396-1.481-0.667l-0.715-0.389l-0.684-0.452
			c-0.46-0.289-0.871-0.655-1.273-1.021c-0.419-0.341-0.742-0.797-1.09-1.198c-0.333-0.42-0.579-0.91-0.838-1.362l0.636,0.472
			c0.206,0.157,0.392,0.329,0.622,0.454l0.638,0.414c0.201,0.148,0.437,0.251,0.655,0.372l0.655,0.354
			c0.219,0.115,0.463,0.189,0.684,0.299l0.674,0.301l0.705,0.24c0.237,0.074,0.457,0.181,0.695,0.252l0.716,0.207
			c0.474,0.15,0.953,0.263,1.43,0.376c0.471,0.118,0.949,0.242,1.47,0.336l0.76,0.161l0.771,0.176l0.209,0.049l0.156,0.118
			c1.34,1.021,2.656,2.075,3.925,3.194c0.641,0.551,1.258,1.134,1.872,1.721C62.712,76.579,63.312,77.186,63.878,77.838z"/>
	</g>
	<g opacity="0.3">
		<path fill="#FFFFFF" d="M88.926,58.605c0,0,0.029,0.345,0.05,0.942c0.015,0.297,0.011,0.661-0.027,1.084
			c-0.018,0.426-0.065,0.904-0.169,1.415c-0.069,0.521-0.228,1.07-0.399,1.654c-0.213,0.567-0.403,1.194-0.75,1.775
			c-0.303,0.603-0.692,1.192-1.129,1.759c-0.235,0.27-0.473,0.541-0.712,0.813l-0.801,0.736c-0.265,0.251-0.577,0.435-0.863,0.652
			c-0.285,0.222-0.592,0.404-0.902,0.57c-0.602,0.375-1.246,0.622-1.854,0.881c-1.233,0.478-2.427,0.746-3.45,0.896
			c-1.026,0.138-1.882,0.187-2.485,0.168c-0.602-0.005-0.943-0.027-0.943-0.027s0.317-0.145,0.87-0.363
			c0.275-0.105,0.609-0.233,0.993-0.381c0.378-0.158,0.802-0.336,1.266-0.505c0.459-0.189,0.94-0.423,1.46-0.625
			c0.497-0.244,1.021-0.501,1.563-0.767c0.527-0.282,1.059-0.59,1.569-0.932c0.266-0.157,0.518-0.336,0.76-0.526
			c0.24-0.192,0.511-0.354,0.729-0.57l0.69-0.609l0.631-0.66c0.383-0.466,0.793-0.907,1.1-1.407
			c0.339-0.475,0.609-0.981,0.888-1.453c0.229-0.497,0.497-0.952,0.677-1.408c0.404-0.898,0.689-1.664,0.9-2.233
			C88.79,58.923,88.926,58.605,88.926,58.605z"/>
	</g>
	<g>
		<g>
			<circle fill="#F0EFF0" cx="54.573" cy="53.251" r="3.366"/>
			<path fill="#0A8C8E" d="M51.999,54.043c0-1.859,1.507-3.366,3.366-3.366c0.727,0,1.398,0.233,1.948,0.625
				c-0.61-0.856-1.608-1.417-2.741-1.417c-1.858,0-3.365,1.508-3.365,3.366c0,1.132,0.561,2.131,1.417,2.741
				C52.231,55.441,51.999,54.77,51.999,54.043z"/>
		</g>
		<g>
			<circle fill="#F0EFF0" cx="65.264" cy="53.251" r="3.366"/>
			<path fill="#0A8C8E" d="M62.69,54.043c0-1.859,1.507-3.366,3.366-3.366c0.727,0,1.398,0.233,1.948,0.625
				c-0.61-0.856-1.608-1.417-2.741-1.417c-1.858,0-3.365,1.508-3.365,3.366c0,1.132,0.561,2.131,1.417,2.741
				C62.923,55.441,62.69,54.77,62.69,54.043z"/>
		</g>
		<g>
			<circle fill="#F0EFF0" cx="75.956" cy="53.251" r="3.366"/>
			<path fill="#0A8C8E" d="M73.382,54.043c0-1.859,1.507-3.366,3.366-3.366c0.727,0,1.398,0.233,1.948,0.625
				c-0.61-0.856-1.608-1.417-2.741-1.417c-1.858,0-3.365,1.508-3.365,3.366c0,1.132,0.561,2.131,1.417,2.741
				C73.614,55.441,73.382,54.77,73.382,54.043z"/>
		</g>
	</g>
</g>
</svg>
