<svg width="177" height="56" xmlns="http://www.w3.org/2000/svg">
    <g fill="none" fill-rule="evenodd">
        <path d="M141 14.546v13.418l5.96-.002.005-4.828.009-8.425c.018-2.209 1.969-2.733 2.668-2.733h4.647L154.978 8h-4.941c-1.905 0-3.55.087-4.412.29-1.347.318-2.418 1.015-3.21 2.094-.93 1.236-1.415 2.677-1.415 4.162zM123 8h6v19.895h-6z"
              fill="#465168"/>
        <path fill="#3498DB" d="M123 1h6v5h-6z"/>
        <path fill="#F57C00" d="M132 23h6v5h-6z"/>
        <path d="M177 8h-6v16.002l-4.21-.006c-.647 0-1.486-.321-2.045-.794-.554-.476-.716-1.12-.716-1.773V8H158v13.863c0 1.535.445 2.917 1.312 4.111.779 1.06 1.807 1.628 3.099 1.942.78.182 14.589.012 14.589.012V8.105M64.485 12.006c1.756.018 2.947 1.777 2.854 2.86l.016 1.147-9.748.007c-1.592 0-2.507.23-3.56 1.392-1.054 1.134-1.707 2.637-1.707 4.4 0 1.67.584 3.651 1.728 4.743C55.21 27.65 56.622 28 58.26 28h14.76V16.675c0-2.72-.242-2.975-.533-3.979-.454-1.082-1.025-1.883-1.901-2.752-.67-.65-1.552-1.128-2.494-1.44C67.169 8.169 66.034 8 64.125 8H53.382L54 12.015l7.815-.02 2.67.01zm-4.835 8.007L67.313 20l.027 3.999h-7.755c-.609 0-.99.04-1.475-.362-.463-.395-.77-.893-.77-1.513 0-.692.318-1.258.802-1.677.514-.423 1.508-.434 1.508-.434zM41.944 8.01H35V0h-5.93v28h12.805c2.454 0 4.44-.858 6.005-3.003 1.436-1.986 2.166-4.332 2.166-7.054 0-2.61-.73-4.888-2.188-6.782-1.567-2.036-3.555-3.056-5.914-3.151zM39.884 12c1.361 0 2.465.6 3.346 1.837.888 1.226 1.32 2.645 1.32 4.243 0 1.552-.412 2.95-1.23 4.133-.8 1.18-1.86 1.787-3.177 1.787H34.97V12h4.915zm72.972-3.895l-7.86 9.946 7.82 9.949H120l-8.461-9.95 8.44-9.945z"
              fill="#465168"/>
        <path fill="#465168"
              d="M99 0h6v28h-6zm-4.346 10.383c-.758-1.079-1.781-1.776-3.074-2.094C90.756 8.086 89.42 8 87.594 8L76 7.976v20L82 28V11.99l4.687-.008s3.324-.09 3.335 3.206L90 28h6l-.012-13.525c0-1.485-.447-2.856-1.334-4.092z"/>
        <path fill="#039BE5" d="M13 0h11v6H13z"/>
        <path fill="#1BAF5D" d="M7 11h17v6H7z"/>
        <path fill="#F57C00" d="M0 22h24v6H0z"/>
        <path d="M5.045 50.849c.58 0 1.087-.176 1.52-.528.434-.351.674-.79.721-1.318h1.538c-.03.545-.217 1.063-.562 1.556a3.705 3.705 0 0 1-1.385 1.177 3.994 3.994 0 0 1-1.832.44c-1.295 0-2.325-.432-3.09-1.297C1.192 50.015.81 48.833.81 47.333v-.272c0-.926.17-1.75.51-2.47.34-.72.827-1.28 1.463-1.679.635-.398 1.387-.598 2.254-.598 1.067 0 1.953.32 2.659.958.706.64 1.082 1.468 1.13 2.488H7.285c-.047-.615-.28-1.12-.699-1.516-.419-.396-.936-.594-1.55-.594-.827 0-1.467.298-1.921.892-.454.595-.681 1.455-.681 2.58v.308c0 1.095.225 1.94.676 2.53.452.593 1.096.889 1.934.889zm12.674-7.04h-3.19V52h-1.627v-8.191H9.773V42.49h7.946v1.319zm9.615 3.542c0 1.447-.331 2.613-.993 3.498-.662.884-1.559 1.327-2.69 1.327-1.154 0-2.062-.366-2.724-1.099v4.58H19.3V42.49h1.485l.08 1.055c.661-.82 1.581-1.23 2.759-1.23 1.143 0 2.046.43 2.711 1.291.665.862.998 2.06.998 3.595v.15zm-1.626-.185c0-1.072-.229-1.919-.686-2.54-.457-.621-1.084-.932-1.88-.932-.985 0-1.723.437-2.215 1.31v4.544c.486.867 1.23 1.3 2.232 1.3.78 0 1.4-.308 1.86-.927.459-.618.689-1.536.689-2.755zM35.271 52c-.094-.188-.17-.521-.229-1.002-.756.785-1.658 1.178-2.707 1.178-.938 0-1.707-.265-2.307-.796-.6-.53-.901-1.202-.901-2.017 0-.99.376-1.759 1.13-2.307.752-.548 1.811-.822 3.177-.822h1.582v-.747c0-.568-.17-1.02-.51-1.358-.34-.337-.841-.505-1.503-.505-.58 0-1.066.147-1.46.44-.392.292-.588.647-.588 1.063H29.32c0-.475.169-.933.506-1.376.337-.442.794-.792 1.37-1.05a4.613 4.613 0 0 1 1.904-.387c1.095 0 1.954.274 2.575.822.62.548.943 1.302.967 2.263v4.377c0 .873.11 1.568.334 2.083V52H35.27zm-2.699-1.24c.51 0 .993-.131 1.45-.395.457-.263.789-.606.994-1.028v-1.951H33.74c-1.992 0-2.988.583-2.988 1.749 0 .51.17.908.51 1.195.34.287.776.43 1.31.43zm9.809-4.798l2.11-3.472h1.898l-3.112 4.702L46.485 52h-1.88l-2.198-3.56L40.21 52h-1.89l3.208-4.808-3.111-4.702h1.88l2.084 3.472zm5.124 1.195c0-.931.183-1.77.55-2.513.365-.745.875-1.319 1.528-1.723.654-.404 1.4-.607 2.237-.607 1.295 0 2.343.449 3.142 1.345.8.897 1.2 2.089 1.2 3.577v.115c0 .925-.177 1.756-.532 2.491a4.038 4.038 0 0 1-1.52 1.719c-.66.41-1.417.615-2.272.615-1.29 0-2.334-.448-3.133-1.345-.8-.896-1.2-2.083-1.2-3.56v-.114zm1.635.194c0 1.054.244 1.9.734 2.54.489.638 1.144.958 1.964.958.826 0 1.482-.324 1.969-.972.486-.647.73-1.554.73-2.72 0-1.043-.248-1.888-.744-2.535-.495-.648-1.152-.972-1.973-.972-.802 0-1.45.32-1.942.958-.492.64-.738 1.553-.738 2.743zM58.35 52v-9.51h3.71c1.265 0 2.236.221 2.913.664.677.442 1.015 1.091 1.015 1.947 0 .439-.132.836-.395 1.19-.264.355-.654.626-1.17.813.575.135 1.036.399 1.385.792.349.392.523.86.523 1.406 0 .873-.32 1.54-.962 2.004-.642.463-1.549.694-2.72.694H58.35zm1.627-4.175v2.865h2.689c.68 0 1.188-.126 1.525-.377.337-.252.505-.607.505-1.064 0-.95-.697-1.424-2.092-1.424h-2.627zm0-1.3h2.1c1.524 0 2.285-.446 2.285-1.337 0-.89-.72-1.35-2.162-1.38h-2.223v2.716zm8.077.632c0-.931.183-1.77.549-2.513.366-.745.876-1.319 1.53-1.723.653-.404 1.398-.607 2.236-.607 1.295 0 2.342.449 3.142 1.345.8.897 1.2 2.089 1.2 3.577v.115c0 .925-.177 1.756-.532 2.491a4.038 4.038 0 0 1-1.52 1.719c-.66.41-1.417.615-2.272.615-1.29 0-2.334-.448-3.134-1.345-.8-.896-1.2-2.083-1.2-3.56v-.114zm1.634.194c0 1.054.245 1.9.734 2.54.49.638 1.144.958 1.965.958.826 0 1.482-.324 1.968-.972.487-.647.73-1.554.73-2.72 0-1.043-.248-1.888-.743-2.535-.495-.648-1.153-.972-1.973-.972-.803 0-1.45.32-1.942.958-.492.64-.739 1.553-.739 2.743zm15.214-4.86h1.626V52h-1.626v-6.935L80.517 52H78.89v-9.51h1.626v6.944l4.385-6.944zm.44-3.464c0 .71-.242 1.28-.725 1.71-.484.43-1.118.646-1.903.646-.785 0-1.421-.217-1.907-.65-.487-.434-.73-1.003-.73-1.706h1.327c0 .41.112.731.334.963.223.231.548.347.976.347.41 0 .73-.114.962-.343.232-.228.347-.55.347-.967h1.319zm12.428 4.008c1.195 0 2.151.4 2.87 1.2.717.8 1.076 1.853 1.076 3.16v.149c0 .896-.173 1.698-.519 2.404a3.843 3.843 0 0 1-1.49 1.643c-.647.39-1.393.585-2.236.585-1.278 0-2.306-.426-3.085-1.279-.78-.853-1.17-1.997-1.17-3.432v-.791c0-1.998.371-3.586 1.113-4.764.74-1.178 1.835-1.895 3.282-2.153.82-.147 1.374-.325 1.661-.536.288-.211.431-.501.431-.87h1.336c0 .732-.165 1.303-.497 1.713-.33.41-.86.7-1.586.87l-1.213.273c-.967.229-1.692.614-2.175 1.156-.484.542-.798 1.264-.945 2.166.861-.996 1.91-1.494 3.147-1.494zm-.317 1.336c-.797 0-1.43.268-1.898.804-.47.536-.703 1.28-.703 2.228v.14c0 1.02.235 1.828.707 2.422.472.595 1.109.892 1.912.892.808 0 1.447-.298 1.916-.896.468-.598.703-1.47.703-2.62 0-.896-.236-1.615-.708-2.157-.471-.542-1.114-.813-1.929-.813zm12.094-1.88h1.626V52h-1.626v-6.935L105.16 52h-1.626v-9.51h1.626v6.944l4.386-6.944zm9.466 2.6c0-.445-.17-.798-.51-1.058-.34-.261-.806-.391-1.398-.391-.574 0-1.053.149-1.437.448-.383.299-.575.65-.575 1.055h-1.617c0-.827.345-1.503 1.037-2.03.691-.528 1.555-.792 2.592-.792 1.114 0 1.98.239 2.602.717.621.477.932 1.158.932 2.043 0 .428-.13.82-.387 1.178-.258.357-.624.641-1.099.852 1.108.375 1.661 1.114 1.661 2.215 0 .873-.336 1.565-1.01 2.074-.674.51-1.574.765-2.699.765-1.095 0-1.999-.268-2.711-.804-.712-.536-1.068-1.261-1.068-2.175h1.617c0 .462.207.86.62 1.19.413.331.927.497 1.542.497.622 0 1.123-.144 1.503-.43.381-.288.572-.66.572-1.117 0-.533-.16-.915-.48-1.147-.319-.231-.815-.347-1.49-.347h-1.625v-1.371h1.767c1.107-.03 1.66-.486 1.66-1.371zM130.693 52h-1.626v-4.06H124.7V52h-1.635v-9.51h1.635v4.122h4.368V42.49h1.626V52zm6.557.176c-1.29 0-2.338-.424-3.146-1.27-.81-.847-1.213-1.98-1.213-3.397v-.299c0-.943.18-1.786.54-2.527.36-.741.864-1.321 1.512-1.74a3.8 3.8 0 0 1 2.105-.629c1.236 0 2.197.408 2.883 1.222.685.815 1.028 1.98 1.028 3.498v.677h-6.442c.023.937.297 1.695.821 2.272.525.577 1.191.866 2 .866.574 0 1.06-.118 1.459-.352a3.666 3.666 0 0 0 1.046-.932l.993.774c-.797 1.224-1.992 1.837-3.586 1.837zm-.202-8.526a2.17 2.17 0 0 0-1.652.717c-.446.477-.721 1.147-.827 2.008h4.764v-.123c-.047-.826-.27-1.466-.668-1.92-.398-.455-.937-.682-1.617-.682zm9.606 7.199c.58 0 1.087-.176 1.52-.528.434-.351.675-.79.722-1.318h1.538c-.03.545-.217 1.063-.563 1.556a3.705 3.705 0 0 1-1.384 1.177 3.994 3.994 0 0 1-1.833.44c-1.295 0-2.324-.432-3.09-1.297-.764-.864-1.146-2.046-1.146-3.546v-.272c0-.926.17-1.75.51-2.47.34-.72.827-1.28 1.463-1.679.636-.398 1.387-.598 2.255-.598 1.066 0 1.952.32 2.658.958.706.64 1.083 1.468 1.13 2.488h-1.538c-.047-.615-.28-1.12-.7-1.516-.418-.396-.935-.594-1.55-.594-.827 0-1.467.298-1.92.892-.455.595-.682 1.455-.682 2.58v.308c0 1.095.226 1.94.677 2.53.45.593 1.095.889 1.933.889z"
              fill="#465168" fill-rule="nonzero"/>
    </g>
</svg>