<?xml version="1.0" encoding="UTF-8"?>
<svg width="96px" height="96px" viewBox="0 0 96 96" version="1.1" xmlns="http://www.w3.org/2000/svg" xmlns:xlink="http://www.w3.org/1999/xlink">
    <!-- Generator: sketchtool 51.3 (57544) - http://www.bohemiancoding.com/sketch -->
    <title>650E65F0-CDE0-4847-8E5A-39A8E2907DEA</title>
    <desc>Created with sketchtool.</desc>
    <defs></defs>
    <g id="Главная" stroke="none" stroke-width="1" fill="none" fill-rule="evenodd">
        <g id="Главная-взр" transform="translate(-672.000000, -660.000000)">
            <g id="Group-4" transform="translate(208.000000, 628.000000)">
                <g id="Card-2" transform="translate(352.000000, 0.000000)">
                    <g id="Group-3" transform="translate(112.000000, 32.000000)">
                        <path d="M80,59 C80,75.294 51.757,89.131 48,90.898 C44.243,89.131 16,75.294 16,59 L16,20.962 C22.703,20.45 28,14.832 28,8 L28,6 L68,6 L68,8 C68,14.832 73.297,20.45 80,20.962 L80,59 Z M81,19 C74.935,19 70,14.065 70,8 L70,5 C70,4.448 69.552,4 69,4 L27,4 C26.448,4 26,4.448 26,5 L26,8 C26,14.065 21.065,19 15,19 C14.448,19 14,19.448 14,20 L14,59 C14,66.897 19.69,75.021 30.914,83.145 C39.152,89.108 47.508,92.875 47.591,92.913 C47.721,92.971 47.861,93 48,93 C48.139,93 48.279,92.971 48.409,92.913 C48.492,92.875 56.848,89.108 65.086,83.145 C76.31,75.021 82,66.897 82,59 L82,20 C82,19.448 81.552,19 81,19 Z M74,59 C74,64.009 69.221,70.245 60.542,76.558 C55.71,80.073 50.76,82.791 47.982,84.218 C38.115,79.167 22,68.425 22,59 L22,25.664 C27.9,23.321 32.247,18.187 33.576,12 L62.424,12 C63.753,18.187 68.1,23.321 74,25.664 L74,59 Z M64.236,10.834 C64.155,10.353 63.738,10 63.25,10 L32.75,10 C32.262,10 31.845,10.353 31.764,10.834 C30.74,16.909 26.488,21.965 20.666,24.029 C20.267,24.171 20,24.548 20,24.972 L20,59 C20,71.98 44.715,84.813 47.533,86.233 C47.674,86.305 47.829,86.34 47.983,86.34 C48.138,86.34 48.293,86.304 48.435,86.232 C51.156,84.853 56.5,81.971 61.719,78.175 C70.928,71.476 76,64.666 76,59 L76,24.972 C76,24.548 75.733,24.171 75.334,24.029 C69.512,21.965 65.26,16.909 64.236,10.834 Z" id="Combined-Shape" fill="#28467F"></path>
                        <path d="M64.7168,38.585 L46.4528,56.848 C46.0638,57.237 45.4288,57.237 45.0388,56.848 L34.0058,45.814 C33.6158,45.424 33.6158,44.791 34.0058,44.4 L36.8348,41.571 C37.0238,41.383 37.2748,41.279 37.5418,41.279 C37.8088,41.279 38.0598,41.383 38.2488,41.571 L43.6248,46.948 C44.7948,48.118 46.6968,48.118 47.8668,46.948 L60.4738,34.342 C60.8628,33.952 61.4978,33.952 61.8878,34.342 L64.7168,37.171 C64.9048,37.36 65.0088,37.611 65.0088,37.878 C65.0088,38.145 64.9048,38.396 64.7168,38.585 Z M63.3018,32.928 C62.1318,31.758 60.2298,31.758 59.0598,32.928 L46.4528,45.534 C46.0638,45.924 45.4288,45.924 45.0388,45.534 L39.6628,40.157 C38.4928,38.987 36.5908,38.987 35.4208,40.157 L32.5918,42.986 C31.4218,44.156 31.4218,46.059 32.5918,47.229 L43.6248,58.262 C44.2098,58.847 44.9778,59.139 45.7458,59.139 C46.5138,59.139 47.2828,58.847 47.8668,58.262 L66.1308,39.999 C67.3008,38.83 67.3008,36.926 66.1308,35.757 L63.3018,32.928 Z" id="Combined-Shape" fill="#F57C00"></path>
                    </g>
                </g>
            </g>
        </g>
    </g>
</svg>