<?xml version="1.0" encoding="UTF-8"?>
<svg width="96px" height="96px" viewBox="0 0 96 96" version="1.1" xmlns="http://www.w3.org/2000/svg" xmlns:xlink="http://www.w3.org/1999/xlink">
    <!-- Generator: sketchtool 51.3 (57544) - http://www.bohemiancoding.com/sketch -->
    <title>48601FEC-C9E4-409E-A526-D174F3B25096</title>
    <desc>Created with sketchtool.</desc>
    <defs></defs>
    <g id="Главная" stroke="none" stroke-width="1" fill="none" fill-rule="evenodd">
        <g id="Главная-взр" transform="translate(-1024.000000, -660.000000)" stroke-width="2">
            <g id="Group-4" transform="translate(208.000000, 628.000000)">
                <g id="Card-3" transform="translate(704.000000, 0.000000)">
                    <g id="Group-11" transform="translate(112.000000, 32.000000)">
                        <path d="M74.0518,75.8648 L52.0418,75.8648 C49.2908,75.8648 46.6098,74.9968 44.3808,73.3838 L44.3798,73.3838 C43.0158,72.3958 41.3748,71.8648 39.6908,71.8648 L35.9998,71.8648" id="Stroke-1" stroke="#F57C00" stroke-linecap="round" stroke-linejoin="round"></path>
                        <path d="M35.3452,45.0635 L40.6962,42.7405 C42.1012,42.1295 43.3022,41.1285 44.1552,39.8565 L53.4752,25.9535 C54.4692,24.4705 55.0002,22.7265 55.0002,20.9415 L55.0002,16.0005 C55.0002,14.7295 56.1702,13.7815 57.4132,14.0435 L57.4142,14.0435 C59.5792,14.5015 61.3552,16.0455 62.1082,18.1265 L62.6962,19.7505 C63.5532,22.1175 63.8402,24.6525 63.5322,27.1515 L61.8452,40.8645 L78.1032,40.8645" id="Stroke-3" stroke="#F57C00" stroke-linecap="round" stroke-linejoin="round"></path>
                        <path d="M78,40.8648 C79.65,40.8648 81,42.2148 81,43.8648 L81,46.8648 C81,48.5148 79.65,49.8648 78,49.8648 L77,49.8648 C78.65,49.8648 80,51.2148 80,52.8648 L80,55.8648 C80,57.5148 78.65,58.8648 77,58.8648 L76,58.8648 C77.65,58.8648 79,60.2148 79,61.8648 L79,64.8648 C79,66.5148 77.65,67.8648 76,67.8648 L74,67.8648 C75.65,67.8648 77,69.2148 77,70.8648 L77,72.8648 C77,74.5148 75.65,75.8648 74,75.8648" id="Stroke-5" stroke="#F57C00" stroke-linecap="round" stroke-linejoin="round"></path>
                        <path d="M33,80.8648 L17,80.8648 C15.896,80.8648 15,79.9688 15,78.8648 L15,42.8648 C15,41.7608 15.896,40.8648 17,40.8648 L33,40.8648 C34.104,40.8648 35,41.7608 35,42.8648 L35,78.8648 C35,79.9688 34.104,80.8648 33,80.8648 Z" id="Stroke-7" stroke="#28467F" stroke-linecap="round" stroke-linejoin="round"></path>
                        <path d="M28,72.8609 C28,74.5179 26.657,75.8609 25,75.8609 C23.343,75.8609 22,74.5179 22,72.8609 C22,71.2039 23.343,69.8609 25,69.8609 C26.657,69.8609 28,71.2039 28,72.8609 Z" id="Stroke-9" stroke="#28467F"></path>
                    </g>
                </g>
            </g>
        </g>
    </g>
</svg>