<?xml version="1.0" encoding="UTF-8"?>
<svg width="96px" height="96px" viewBox="0 0 96 96" version="1.1" xmlns="http://www.w3.org/2000/svg" xmlns:xlink="http://www.w3.org/1999/xlink">
    <!-- Generator: sketchtool 51.3 (57544) - http://www.bohemiancoding.com/sketch -->
    <title>6443A3BA-0741-4876-AE75-085B6F0EF33F</title>
    <desc>Created with sketchtool.</desc>
    <defs></defs>
    <g id="Главная" stroke="none" stroke-width="1" fill="none" fill-rule="evenodd">
        <g id="Главная-взр" transform="translate(-320.000000, -660.000000)">
            <g id="Group-4" transform="translate(208.000000, 628.000000)">
                <g id="card-1">
                    <g id="Group-2" transform="translate(112.000000, 32.000000)">
                        <path d="M60,28.0562 L60,26.0002 C60,25.4482 59.552,25.0002 59,25.0002 C58.448,25.0002 58,25.4482 58,26.0002 L58,28.0562 C58,28.6082 58.448,29.0562 59,29.0562 C59.552,29.0562 60,28.6082 60,28.0562 M77.3848,69.3848 C77.7758,68.9938 77.7758,68.3618 77.3848,67.9708 L75.9998,66.5858 L75.9998,69.4048 C76.1918,69.5828 76.4328,69.6778 76.6778,69.6778 C76.9338,69.6778 77.1898,69.5798 77.3848,69.3848 M55.1025,48.75 C55.0555,48.831 55.0315,48.917 54.9905,49 L57.4405,49 L67.5355,36.216 L62.4475,49 L64.6005,49 L71.9295,30.585 C72.1125,30.124 71.9305,29.598 71.4995,29.349 C71.0695,29.101 70.5215,29.205 70.2155,29.596 L55.1845,48.63 C55.1535,48.668 55.1265,48.708 55.1025,48.75 M42.7764,35.7764 C43.0324,35.7764 43.2884,35.6784 43.4834,35.4834 C43.8744,35.0924 43.8744,34.4604 43.4834,34.0694 L42.0294,32.6154 C41.6384,32.2244 41.0054,32.2244 40.6154,32.6154 C40.2244,33.0054 40.2244,33.6384 40.6154,34.0294 L42.0694,35.4834 C42.2644,35.6784 42.5204,35.7764 42.7764,35.7764 M25.0811,34.2085 C24.9581,34.4565 25.0591,34.7555 25.3071,34.8785 C25.3781,34.9145 25.4541,34.9305 25.5281,34.9305 C25.7121,34.9305 25.8901,34.8285 25.9771,34.6525 C30.0221,26.4965 36.9001,20.1465 45.3431,16.7745 C45.5991,16.6725 45.7241,16.3815 45.6221,16.1255 C45.5191,15.8685 45.2271,15.7435 44.9721,15.8465 C36.3001,19.3095 29.2361,25.8305 25.0811,34.2085 M77.3848,32.6152 C76.9938,32.2242 76.3618,32.2242 75.9708,32.6152 L74.5168,34.0692 C74.1258,34.4602 74.1258,35.0932 74.5168,35.4832 C74.7118,35.6782 74.9678,35.7762 75.2238,35.7762 C75.4798,35.7762 75.7358,35.6782 75.9308,35.4832 L77.3848,34.0292 C77.7758,33.6382 77.7758,33.0062 77.3848,32.6152 M63,18.251 C61.688,18.092 60.354,18 59,18 C57.646,18 56.313,18.092 55,18.251 L55,13 L63,13 L63,18.251 Z M52,11 C50.897,11 50,10.103 50,9 C50,7.897 50.897,7 52,7 L66,7 C67.103,7 68,7.897 68,9 C68,10.103 67.103,11 66,11 L52,11 Z M65,18.557 L65,13 L66,13 C68.206,13 70,11.206 70,9 C70,6.794 68.206,5 66,5 L52,5 C49.794,5 48,6.794 48,9 C48,11.206 49.794,13 52,13 L53,13 L53,18.557 C38.298,21.27 26.984,33.752 26.067,49 L28.071,49 C29.106,32.836 42.579,20 59,20 C76.093,20 90,33.907 90,51 C90,61.819 84.424,71.356 76,76.904 L76,79.272 C85.58,73.491 92,62.982 92,51 C92,34.854 80.34,21.388 65,18.557 Z M25.0825,27.5562 C25.2425,27.5562 25.3995,27.4792 25.4965,27.3372 C28.4805,22.9402 32.4615,19.1672 37.0075,16.4272 C37.2445,16.2852 37.3205,15.9772 37.1775,15.7412 C37.0355,15.5042 36.7275,15.4272 36.4915,15.5712 C31.8225,18.3852 27.7345,22.2602 24.6695,26.7752 C24.5145,27.0042 24.5735,27.3152 24.8025,27.4702 C24.8885,27.5282 24.9855,27.5562 25.0825,27.5562 M87.5,51 C87.5,35.285 74.715,22.5 59,22.5 C43.958,22.5 31.609,34.216 30.578,49 L31.581,49 C32.609,34.768 44.51,23.5 59,23.5 C74.164,23.5 86.5,35.836 86.5,51 C86.5,59.75 82.388,67.552 76,72.592 L76,73.86 C82.975,68.66 87.5,60.349 87.5,51 M84,52 C84.552,52 85,51.552 85,51 C85,50.448 84.552,50 84,50 L81.944,50 C81.392,50 80.944,50.448 80.944,51 C80.944,51.552 81.392,52 81.944,52 L84,52 Z" id="Combined-Shape" fill="#28467F"></path>
                        <path d="M6,90 L6,54.236 L35.471,75.67 C36.526,76.437 37.763,76.821 39,76.821 C40.237,76.821 41.474,76.437 42.529,75.67 L72,54.236 L72,90 L6,90 Z M70.3,53 L41.353,74.053 C39.945,75.076 38.054,75.075 36.647,74.053 L7.7,53 L70.3,53 Z M73,51 L5,51 C4.448,51 4,51.448 4,52 L4,91 C4,91.552 4.448,92 5,92 L73,92 C73.552,92 74,91.552 74,91 L74,52 C74,51.448 73.552,51 73,51 Z" id="Combined-Shape" fill="#F57C00"></path>
                    </g>
                </g>
            </g>
        </g>
    </g>
</svg>