<?xml version="1.0" encoding="UTF-8"?>
<svg width="344px" height="168px" viewBox="0 0 344 168" version="1.1" xmlns="http://www.w3.org/2000/svg" xmlns:xlink="http://www.w3.org/1999/xlink">
    <!-- Generator: sketchtool 51.3 (57544) - http://www.bohemiancoding.com/sketch -->
    <title>DB86E7DD-0FA1-4B57-B78B-C4FB74B1CD56</title>
    <desc>Created with sketchtool.</desc>
    <defs>
        <rect id="path-1" x="0" y="0" width="799" height="382" rx="4"></rect>
        <filter x="-0.4%" y="-0.7%" width="100.9%" height="101.8%" filterUnits="objectBoundingBox" id="filter-2">
            <feOffset dx="0" dy="1" in="SourceAlpha" result="shadowOffsetOuter1"></feOffset>
            <feGaussianBlur stdDeviation="1" in="shadowOffsetOuter1" result="shadowBlurOuter1"></feGaussianBlur>
            <feColorMatrix values="0 0 0 0 0   0 0 0 0 0   0 0 0 0 0  0 0 0 0.16 0" type="matrix" in="shadowBlurOuter1"></feColorMatrix>
        </filter>
    </defs>
    <g id="Выдача" stroke="none" stroke-width="1" fill="none" fill-rule="evenodd">
        <g id="pics" transform="translate(-306.000000, -116.000000)">
            <rect fill="#F4F4F4" x="0" y="0" width="1795" height="1859"></rect>
            <g id="Group-2" transform="translate(78.000000, 84.000000)">
                <g id="Rectangle-8">
                    <use fill="black" fill-opacity="1" filter="url(#filter-2)" xlink:href="#path-1"></use>
                    <use fill="#FFFFFF" fill-rule="evenodd" xlink:href="#path-1"></use>
                </g>
                <g id="Group" transform="translate(228.000000, 32.000000)">
                    <path d="M86.5,87 L90.5,87 C99.0604136,87 106,80.0604136 106,71.5 C106,62.9395864 99.0604136,56 90.5,56 L67,56 L47.5,56 C38.9395864,56 32,49.0604136 32,40.5 C32,31.9395864 38.9395864,25 47.5,25 L207.5,25 C216.060414,25 223,31.9395864 223,40.5 C223,49.0604136 216.060414,56 207.5,56 L287.5,56 C296.060414,56 303,62.9395864 303,71.5 C303,80.0604136 296.060414,87 287.5,87 L281.5,87 C272.939586,87 266,93.9395864 266,102.5 C266,111.060414 272.939586,118 281.5,118 L284,118 L295.5,118 C304.060414,118 311,124.939586 311,133.5 C311,142.060414 304.060414,149 295.5,149 L135.5,149 C126.939586,149 120,142.060414 120,133.5 C120,124.939586 126.939586,118 135.5,118 L47.5,118 C38.9395864,118 32,111.060414 32,102.5 C32,93.9395864 38.9395864,87 47.5,87 L86.5,87 Z" id="Combined-Shape" fill="#F4F4F4"></path>
                    <g id="Group-26" transform="translate(88.000000, 19.000000)">
                        <g id="Group-25" transform="translate(0.000000, 0.778000)">
                            <path d="M92.0479,104.0452 L74.7039,78.3512 C72.2429,74.7032 73.2129,69.7062 76.8599,67.2442 C80.5059,64.7822 85.5049,65.7522 87.9659,69.3992 L105.3099,95.0942 C107.7719,98.7402 106.8009,103.7382 103.1539,106.2002 C99.5069,108.6622 94.5089,107.6922 92.0479,104.0452" id="Fill-1" fill="#FFFFFF"></path>
                            <path d="M92.0479,104.0452 L74.7039,78.3512 C72.2429,74.7032 73.2129,69.7062 76.8599,67.2442 C80.5059,64.7822 85.5049,65.7522 87.9659,69.3992 L105.3099,95.0942 C107.7719,98.7402 106.8009,103.7382 103.1539,106.2002 C99.5069,108.6622 94.5089,107.6922 92.0479,104.0452 Z" id="Stroke-3" stroke="#E5BCAD" stroke-width="2" fill="#FFF5F1" stroke-linecap="round" stroke-linejoin="round"></path>
                            <path d="M100.4932,93.5169 L81.2502,65.0069 C78.7882,61.3599 79.7582,56.3619 83.4052,53.9009 C87.0522,51.4389 92.0502,52.4089 94.5112,56.0559 L113.7552,84.5649 C116.2172,88.2119 115.2472,93.2099 111.5992,95.6709 C107.9532,98.1329 102.9542,97.1629 100.4932,93.5169" id="Fill-5" fill="#FFFFFF"></path>
                            <path d="M100.4932,93.5169 L81.2502,65.0069 C78.7882,61.3599 79.7582,56.3619 83.4052,53.9009 C87.0522,51.4389 92.0502,52.4089 94.5112,56.0559 L113.7552,84.5649 C116.2172,88.2119 115.2472,93.2099 111.5992,95.6709 C107.9532,98.1329 102.9542,97.1629 100.4932,93.5169 Z" id="Stroke-7" stroke="#E5BCAD" stroke-width="2" fill="#FFF5F1" stroke-linecap="round" stroke-linejoin="round"></path>
                            <path d="M67.0429688,50.6858672 L36.7919922,72.9651641 L51.9174805,96.8606719 C68.5766602,83.9238229 76.8769531,77.1572214 76.8183594,76.5608672 C76.7597656,75.964513 73.5013021,67.339513 67.0429688,50.6858672 Z" id="Path" fill="#FAE3DA"></path>
                            <path d="M182.0528,79.222 L70.0528,79.222 C65.6348,79.222 62.0528,75.64 62.0528,71.222 L62.0528,9.222 C62.0528,4.804 65.6348,1.222 70.0528,1.222 L182.0528,1.222 C186.4708,1.222 190.0528,4.804 190.0528,9.222 L190.0528,71.222 C190.0528,75.64 186.4708,79.222 182.0528,79.222" id="Fill-9" fill="#EBF9FF"></path>
                            <path d="M67.2328822,78.7107655 C64.2061291,77.5703441 62.0528,74.6474539 62.0528,71.222 L62.0528,9.222 C62.0528,4.804 65.6348,1.222 70.0528,1.222 L182.0528,1.222 C184.346023,1.222 186.414004,2.18708724 187.872718,3.7332345 C186.995698,3.40279047 186.045346,3.222 185.0528,3.222 L73.0528,3.222 C68.6348,3.222 65.0528,6.804 65.0528,11.222 L65.0528,73.222 C65.0528,75.3467774 65.8813163,77.2781881 67.2328822,78.7107655 Z" id="Combined-Shape" fill="#FFFFFF"></path>
                            <path d="M182.0528,78.222 L70.0528,78.222 C65.6348,78.222 62.0528,74.64 62.0528,70.222 L62.0528,8.222 C62.0528,3.804 65.6348,0.222 70.0528,0.222 L182.0528,0.222 C186.4708,0.222 190.0528,3.804 190.0528,8.222 L190.0528,70.222 C190.0528,74.64 186.4708,78.222 182.0528,78.222 Z" id="Stroke-11" stroke="#7E8595" stroke-width="2" stroke-linecap="round" stroke-linejoin="round"></path>
                            <g id="Group-16" transform="translate(0.000000, 39.000000)">
                                <path d="M63.0528,1.222 L30.3918,7.034 C24.5798,7.752 19.7798,11.264 17.4548,16.5 L2.2248,50.806 C-2.7472,62.007 0.8148,76.09 10.9108,85.145 L11.6238,85.785 C21.5918,94.723 35.4948,96.575 45.6878,90.32 L46.2248,89.991 C56.4478,83.716 65.6188,75.978 73.4918,66.982 L97.2198,39.868 C101.7458,35.611 101.2448,27.756 95.9068,22.989 C91.2608,18.839 84.5678,18.82 80.5328,22.616 L55.6928,45.984 C53.3668,48.172 49.2808,46.966 47.9398,43.696 L47.5638,42.779 C45.8308,38.553 47.0938,34.017 50.6138,31.829 L63.0528,24.222" id="Fill-13" fill="#FFFFFF"></path>
                                <path d="M62,1.163406 L30.3918,7.034 C24.5798,7.752 19.7798,11.264 17.4548,16.5 L2.2248,50.806 C-2.7472,62.007 0.8148,76.09 10.9108,85.145 L11.6238,85.785 C21.5918,94.723 35.4948,96.575 45.6878,90.32 L46.2248,89.991 C56.4478,83.716 65.6188,75.978 73.4918,66.982 L97.2198,39.868 C101.7458,35.611 101.2448,27.756 95.9068,22.989 C91.2608,18.839 84.5678,18.82 80.5328,22.616 L55.6928,45.984 C53.3668,48.172 49.2808,46.966 47.9398,43.696 L47.5638,42.779 C45.8308,38.553 47.0938,34.017 50.6138,31.829 L61.954346,24.340164 L62,1.163406 Z" id="Stroke-15" stroke="#E5BCAD" stroke-width="2" fill="#FFF5F1" stroke-linecap="round" stroke-linejoin="round"></path>
                                <rect id="Rectangle-2" fill="#7E8595" x="61" y="0.222" width="2" height="29"></rect>
                            </g>
                            <path d="M83.481,77.8723 L81.354,75.9523 C78.903,73.7403 78.708,69.9273 80.919,67.4773 L83.599,64.5083 C85.811,62.0583 89.624,61.8633 92.074,64.0743 L94.201,65.9943 C96.651,68.2053 96.846,72.0183 94.635,74.4693 L91.955,77.4373 C89.744,79.8883 85.931,80.0833 83.481,77.8723" id="Fill-17" fill="#FFFFFF"></path>
                            <path d="M83.481,77.8723 L81.354,75.9523 C78.903,73.7403 78.708,69.9273 80.919,67.4773 L83.599,64.5083 C85.811,62.0583 89.624,61.8633 92.074,64.0743 L94.201,65.9943 C96.651,68.2053 96.846,72.0183 94.635,74.4693 L91.955,77.4373 C89.744,79.8883 85.931,80.0833 83.481,77.8723 Z" id="Stroke-19" stroke="#E5BCAD" stroke-width="2" stroke-linecap="round" stroke-linejoin="round"></path>
                            <path d="M92.5528,31.222 L86.5528,31.222 C81.8778,31.222 78.0528,27.397 78.0528,22.722 C78.0528,18.047 81.8778,14.222 86.5528,14.222 L92.5528,14.222 C97.2278,14.222 101.0528,18.047 101.0528,22.722 C101.0528,27.397 97.2278,31.222 92.5528,31.222" id="Fill-21" fill="#FFFFFF"></path>
                            <path d="M91.5528,31.222 L85.5528,31.222 C80.8778,31.222 77.0528,27.397 77.0528,22.722 C77.0528,18.047 80.8778,14.222 85.5528,14.222 L91.5528,14.222 C96.2278,14.222 100.0528,18.047 100.0528,22.722 C100.0528,27.397 96.2278,31.222 91.5528,31.222 Z" id="Stroke-23" stroke="#29B6F6" stroke-width="2" fill="#FFFFFF" stroke-linecap="round" stroke-linejoin="round"></path>
                        </g>
                        <path d="M79.2655938,47.8615164 C79.1474291,47.9689388 79.0185241,48.0530851 78.878875,48.1139578 C78.7392259,48.1748305 78.574514,48.2052664 78.3847344,48.2052664 C78.277312,48.2052664 78.1779477,48.1846774 78.0866387,48.1434988 C77.9953296,48.1023202 77.9174495,48.0468195 77.8529961,47.9769949 C77.7885426,47.9071704 77.7375178,47.8274999 77.6999199,47.7379812 C77.6623221,47.6484626 77.6435234,47.5535742 77.6435234,47.4533133 C77.6435234,47.3530524 77.6596366,47.2662205 77.6918633,47.1928152 C77.72409,47.1194099 77.7688487,47.0558526 77.8261406,47.0021414 C77.8834326,46.9484302 77.9496754,46.9000908 78.0248711,46.8571219 C78.1000668,46.8141529 78.1806324,46.7693942 78.2665703,46.7228445 C78.4456077,46.6046799 78.6058437,46.4847267 78.7472832,46.3629812 C78.8887227,46.2412358 79.0149422,46.1275488 79.1259453,46.0219168 C79.2369485,45.9162848 79.3336272,45.8258723 79.4159844,45.7506766 C79.4983416,45.6754809 79.5699554,45.6235608 79.6308281,45.5949148 C79.6666356,45.5770111 79.699757,45.5617932 79.7301934,45.5492605 C79.7606297,45.5367279 79.7919608,45.5277762 79.8241875,45.5224051 C79.8564142,45.517034 79.8922212,45.5134533 79.9316094,45.5116629 C79.9709976,45.5098725 80.0211273,45.5089773 80.082,45.5089773 C80.2681988,45.5089773 80.4159024,45.5465746 80.5251152,45.6217703 C80.634328,45.696966 80.716684,45.7945399 80.7721855,45.9144949 C80.8276871,46.0344499 80.8625989,46.1696211 80.8769219,46.3200125 C80.8912449,46.4704039 80.8984063,46.6225833 80.8984063,46.7765555 L80.8984063,51.7609305 C80.8984063,51.9184833 80.8912449,52.0733483 80.8769219,52.2255301 C80.8625989,52.3777118 80.8276871,52.512883 80.7721855,52.6310477 C80.716684,52.7492123 80.634328,52.8449959 80.5251152,52.9184012 C80.4159024,52.9918065 80.2681988,53.0285086 80.082,53.0285086 C79.8922204,53.0285086 79.7436216,52.9918065 79.6361992,52.9184012 C79.5287768,52.8449959 79.447316,52.7492123 79.3918145,52.6310477 C79.3363129,52.512883 79.3014011,52.3777118 79.2870781,52.2255301 C79.2727551,52.0733483 79.2655938,51.9184833 79.2655938,51.7609305 L79.2655938,47.8615164 Z M83.6269219,48.2589773 C83.7737325,48.2052661 83.9339685,48.1667737 84.1076348,48.1434988 C84.281301,48.120224 84.436166,48.1085867 84.5722344,48.1085867 C84.7011413,48.1085867 84.844369,48.1229095 85.0019219,48.1515555 C85.1594747,48.1802014 85.3188156,48.229436 85.4799492,48.2992605 C85.6410828,48.3690851 85.7986333,48.461288 85.9526055,48.5758719 C86.1065776,48.6904558 86.2426439,48.8327883 86.3608086,49.0028738 C86.4789732,49.1729593 86.5738616,49.3743733 86.6454766,49.6071219 C86.7170915,49.8398704 86.7528984,50.1066321 86.7528984,50.4074148 C86.7528984,50.7511666 86.7161963,51.0564207 86.642791,51.3231863 C86.5693857,51.589952 86.4709166,51.8218019 86.3473809,52.018743 C86.2238451,52.2156841 86.078827,52.3812911 85.9123223,52.5155691 C85.7458175,52.6498472 85.5685732,52.7581631 85.380584,52.8405203 C85.1925948,52.9228775 84.9983421,52.9819589 84.7978203,53.0177664 C84.5972985,53.0535739 84.4003603,53.0714773 84.207,53.0714773 C83.9957359,53.0714773 83.7728378,53.043727 83.5382988,52.9882254 C83.3037599,52.9327238 83.0817569,52.8485775 82.8722832,52.735784 C82.6628095,52.6229905 82.4784038,52.4815531 82.3190605,52.3114676 C82.1597173,52.1413821 82.0514013,51.9399681 81.9941094,51.7072195 C81.9726249,51.6212816 81.9618828,51.535345 81.9618828,51.449407 C81.9618828,51.3598884 81.9744152,51.2748469 81.9994805,51.1942801 C82.0245457,51.1137133 82.0630382,51.0420994 82.114959,50.9794363 C82.1668798,50.9167733 82.2322275,50.8666435 82.3110039,50.8290457 C82.3897803,50.7914479 82.4846687,50.7726492 82.5956719,50.7726492 C82.7424825,50.7726492 82.879444,50.8138272 83.0065605,50.8961844 C83.1336771,50.9785416 83.2402027,51.1056562 83.3261406,51.277532 C83.3476251,51.3169202 83.3807465,51.3616789 83.4255059,51.4118094 C83.4702652,51.4619398 83.5293466,51.5084888 83.602752,51.5514578 C83.6761573,51.5944268 83.7647794,51.6311289 83.8686211,51.6615652 C83.9724628,51.6920016 84.092416,51.7072195 84.2284844,51.7072195 C84.4361677,51.7072195 84.6071458,51.6740981 84.7414238,51.6078543 C84.8757018,51.5416105 84.9822275,51.4547787 85.0610039,51.3473562 C85.1397803,51.2399338 85.1943859,51.1181903 85.2248223,50.9821219 C85.2552586,50.8460535 85.2704766,50.7081968 85.2704766,50.5685477 C85.2704766,50.393091 85.2400407,50.2418068 85.179168,50.1146902 C85.1182953,49.9875737 85.0368345,49.8819433 84.9347832,49.7977957 C84.8327319,49.7136481 84.7172546,49.650986 84.5883477,49.6098074 C84.4594408,49.5686288 84.3287455,49.5480398 84.1962578,49.5480398 C84.0816739,49.5480398 83.9679869,49.5632578 83.8551934,49.5936941 C83.7423998,49.6241305 83.629608,49.6572519 83.5168145,49.6930594 C83.4040209,49.7288668 83.2903339,49.7619883 83.17575,49.7924246 C83.0611661,49.822861 82.9430032,49.8380789 82.8212578,49.8380789 C82.7389006,49.8380789 82.6565447,49.8291272 82.5741875,49.8112234 C82.4918303,49.7933197 82.4184261,49.7601983 82.3539727,49.7118582 C82.2895192,49.6635181 82.236704,49.5999608 82.1955254,49.5211844 C82.1543468,49.4424079 82.1337578,49.3403582 82.1337578,49.215032 L82.4452813,46.2609305 C82.4524427,46.182154 82.4676607,46.0989029 82.4909355,46.0111746 C82.5142104,45.9234463 82.5500173,45.8419855 82.5983574,45.7667898 C82.6466975,45.6915942 82.71115,45.6298272 82.7917168,45.5814871 C82.8722836,45.533147 82.9752285,45.5089773 83.1005547,45.5089773 L85.2489922,45.5089773 C85.3814798,45.5089773 85.516651,45.5161387 85.6545098,45.5304617 C85.7923685,45.5447847 85.9159024,45.5770109 86.0251152,45.6271414 C86.134328,45.6772719 86.2238454,45.7515713 86.2936699,45.8500418 C86.3634945,45.9485123 86.3984063,46.0818932 86.3984063,46.2501883 C86.3984063,46.4220641 86.3634945,46.5581305 86.2936699,46.6583914 C86.2238454,46.7586523 86.134328,46.8338469 86.0251152,46.8839773 C85.9159024,46.9341078 85.7923685,46.966334 85.6545098,46.980657 C85.516651,46.99498 85.3814798,47.0021414 85.2489922,47.0021414 L83.9599297,47.0021414 C83.9312837,47.0021414 83.9035333,47.0030366 83.8766777,47.004827 C83.8498221,47.0066173 83.8265476,47.0146739 83.8068535,47.0289969 C83.7871594,47.0433199 83.7710463,47.0656992 83.7585137,47.0961355 C83.7459811,47.1265719 83.7379245,47.1704354 83.7343438,47.2277273 L83.6269219,48.2589773 Z M91.1679375,48.0548758 C91.3433941,48.0548758 91.4812508,48.0790455 91.5815117,48.1273855 C91.6817726,48.1757256 91.7578624,48.2410733 91.8097832,48.3234305 C91.861704,48.4057877 91.8948254,48.5015712 91.9091484,48.610784 C91.9234714,48.7199968 91.9306328,48.8354741 91.9306328,48.9572195 L91.9306328,52.136907 C91.9306328,52.2622332 91.9234714,52.3786057 91.9091484,52.4860281 C91.8948254,52.5934505 91.8625992,52.6874437 91.8124688,52.7680105 C91.7623383,52.8485774 91.6871437,52.9121347 91.5868828,52.9586844 C91.4866219,53.0052341 91.3505555,53.0285086 91.1786797,53.0285086 C91.0103846,53.0285086 90.8761086,53.0061293 90.7758477,52.9613699 C90.6755867,52.9166106 90.5986018,52.856634 90.5448906,52.7814383 C90.4911794,52.7062426 90.4562677,52.6167253 90.4401543,52.5128836 C90.4240409,52.4090419 90.4159844,52.2980404 90.4159844,52.1798758 L90.4159844,51.2238211 L88.5790703,51.2238211 C88.357064,51.2238211 88.1744486,51.2059176 88.0312188,51.1701102 C87.8879889,51.1343027 87.7743019,51.0868585 87.6901543,51.0277762 C87.6060067,50.9686938 87.5469253,50.8997655 87.5129082,50.8209891 C87.4788911,50.7422126 87.4618828,50.661647 87.4618828,50.5792898 C87.4618828,50.5363209 87.4663587,50.4933526 87.4753105,50.4503836 C87.4842624,50.4074146 87.4941093,50.3644463 87.5048516,50.3214773 L88.5898125,46.5509695 C88.62562,46.4184819 88.6605317,46.2895769 88.6945488,46.1642508 C88.7285659,46.0389246 88.7751149,45.9279231 88.8341973,45.831243 C88.8932796,45.7345628 88.9747404,45.6566827 89.078582,45.5976004 C89.1824237,45.5385181 89.3238611,45.5089773 89.5028984,45.5089773 C89.6318053,45.5089773 89.738331,45.5268808 89.8224785,45.5626883 C89.9066261,45.5984958 89.9737641,45.6459399 90.0238945,45.7050223 C90.074025,45.7641046 90.1089368,45.8321378 90.1286309,45.9091238 C90.148325,45.9861099 90.1581719,46.0675707 90.1581719,46.1535086 C90.1581719,46.2394465 90.1510105,46.3262783 90.1366875,46.4140066 C90.1223645,46.5017349 90.1053562,46.5831957 90.0856621,46.6583914 C90.065968,46.7335871 90.0462742,46.8007251 90.0265801,46.8598074 C90.006886,46.9188897 89.9934584,46.9627532 89.9862969,46.9913992 L89.9540703,47.1068777 C89.9325858,47.1838638 89.9039403,47.2841232 89.8681328,47.407659 C89.8323253,47.5311948 89.7929377,47.6726321 89.7499688,47.8319754 C89.7069998,47.9913186 89.6622411,48.153345 89.6156914,48.3180594 C89.5046882,48.7047801 89.3811543,49.143415 89.2450859,49.6339773 L89.2880547,49.6769461 L90.4159844,49.6769461 L90.4159844,48.9464773 C90.4159844,48.8247319 90.4231458,48.7101498 90.4374688,48.6027273 C90.4517917,48.4953049 90.484018,48.4013117 90.5341484,48.3207449 C90.5842789,48.2401781 90.6594735,48.1757256 90.7597344,48.1273855 C90.8599953,48.0790455 90.9960616,48.0548758 91.1679375,48.0548758 Z M95.5400078,47.0665945 L95.5400078,47.0021414 L93.8534844,47.0021414 C93.7281582,47.0021414 93.5983581,46.99498 93.4640801,46.980657 C93.3298021,46.966334 93.2062681,46.9341078 93.0934746,46.8839773 C92.9806811,46.8338469 92.887583,46.7586523 92.8141777,46.6583914 C92.7407724,46.5581305 92.7040703,46.4220641 92.7040703,46.2501883 C92.7040703,46.0818932 92.7407724,45.9485123 92.8141777,45.8500418 C92.887583,45.7515713 92.9806811,45.6772719 93.0934746,45.6271414 C93.2062681,45.5770109 93.3298021,45.5447847 93.4640801,45.5304617 C93.5983581,45.5161387 93.7281582,45.5089773 93.8534844,45.5089773 L96.7323906,45.5089773 C96.8756205,45.5089773 97.0036303,45.5322519 97.1164238,45.5788016 C97.2292174,45.6253513 97.3241057,45.6871182 97.4010918,45.7641043 C97.4780779,45.8410904 97.5362641,45.9297125 97.5756523,46.0299734 C97.6150406,46.1302344 97.6347344,46.2322841 97.6347344,46.3361258 C97.6347344,46.3969985 97.6293633,46.4560799 97.6186211,46.5133719 C97.6078789,46.5706638 97.588185,46.6261646 97.5595391,46.6798758 L96.0126641,49.5050711 C95.9231454,49.6662047 95.8524267,49.8049566 95.8005059,49.9213309 C95.748585,50.0377051 95.7091974,50.1478115 95.6823418,50.2516531 C95.6554862,50.3554948 95.6375827,50.4629156 95.6286309,50.5739187 C95.619679,50.6849219 95.6152031,50.8156172 95.6152031,50.9660086 L95.6152031,51.7716727 C95.6152031,51.9292255 95.6107273,52.0831953 95.6017754,52.2335867 C95.5928235,52.3839781 95.5614925,52.5182541 95.5077813,52.6364187 C95.45407,52.7545834 95.3690286,52.8494718 95.2526543,52.9210867 C95.13628,52.9927017 94.9706729,53.0285086 94.7558281,53.0285086 C94.544564,53.0285086 94.3825377,52.9927017 94.2697441,52.9210867 C94.1569506,52.8494718 94.0745947,52.7545834 94.0226738,52.6364187 C93.970753,52.5182541 93.9403171,52.3839781 93.9313652,52.2335867 C93.9224134,52.0831953 93.9179375,51.9292255 93.9179375,51.7716727 L93.9179375,50.9660086 C93.9179375,50.7117756 93.9242037,50.5040953 93.9367363,50.3429617 C93.9492689,50.1818281 93.9734386,50.0394955 94.0092461,49.9159598 C94.0450536,49.792424 94.0933929,49.6715756 94.1542656,49.5534109 C94.2151383,49.4352463 94.2939136,49.2902282 94.3905938,49.1183523 L95.5400078,47.0665945 Z M104.24118,48.2589773 C104.38799,48.2052661 104.548226,48.1667737 104.721893,48.1434988 C104.895559,48.120224 105.050424,48.1085867 105.186492,48.1085867 C105.315399,48.1085867 105.458627,48.1229095 105.61618,48.1515555 C105.773733,48.1802014 105.933073,48.229436 106.094207,48.2992605 C106.255341,48.3690851 106.412891,48.461288 106.566863,48.5758719 C106.720835,48.6904558 106.856902,48.8327883 106.975066,49.0028738 C107.093231,49.1729593 107.188119,49.3743733 107.259734,49.6071219 C107.331349,49.8398704 107.367156,50.1066321 107.367156,50.4074148 C107.367156,50.7511666 107.330454,51.0564207 107.257049,51.3231863 C107.183644,51.589952 107.085174,51.8218019 106.961639,52.018743 C106.838103,52.2156841 106.693085,52.3812911 106.52658,52.5155691 C106.360075,52.6498472 106.182831,52.7581631 105.994842,52.8405203 C105.806853,52.9228775 105.6126,52.9819589 105.412078,53.0177664 C105.211556,53.0535739 105.014618,53.0714773 104.821258,53.0714773 C104.609994,53.0714773 104.387096,53.043727 104.152557,52.9882254 C103.918018,52.9327238 103.696015,52.8485775 103.486541,52.735784 C103.277067,52.6229905 103.092662,52.4815531 102.933318,52.3114676 C102.773975,52.1413821 102.665659,51.9399681 102.608367,51.7072195 C102.586883,51.6212816 102.576141,51.535345 102.576141,51.449407 C102.576141,51.3598884 102.588673,51.2748469 102.613738,51.1942801 C102.638804,51.1137133 102.677296,51.0420994 102.729217,50.9794363 C102.781138,50.9167733 102.846485,50.8666435 102.925262,50.8290457 C103.004038,50.7914479 103.098927,50.7726492 103.20993,50.7726492 C103.35674,50.7726492 103.493702,50.8138272 103.620818,50.8961844 C103.747935,50.9785416 103.854461,51.1056562 103.940398,51.277532 C103.961883,51.3169202 103.995004,51.3616789 104.039764,51.4118094 C104.084523,51.4619398 104.143604,51.5084888 104.21701,51.5514578 C104.290415,51.5944268 104.379037,51.6311289 104.482879,51.6615652 C104.586721,51.6920016 104.706674,51.7072195 104.842742,51.7072195 C105.050426,51.7072195 105.221404,51.6740981 105.355682,51.6078543 C105.48996,51.5416105 105.596485,51.4547787 105.675262,51.3473562 C105.754038,51.2399338 105.808644,51.1181903 105.83908,50.9821219 C105.869516,50.8460535 105.884734,50.7081968 105.884734,50.5685477 C105.884734,50.393091 105.854298,50.2418068 105.793426,50.1146902 C105.732553,49.9875737 105.651092,49.8819433 105.549041,49.7977957 C105.44699,49.7136481 105.331512,49.650986 105.202605,49.6098074 C105.073699,49.5686288 104.943003,49.5480398 104.810516,49.5480398 C104.695932,49.5480398 104.582245,49.5632578 104.469451,49.5936941 C104.356658,49.6241305 104.243866,49.6572519 104.131072,49.6930594 C104.018279,49.7288668 103.904592,49.7619883 103.790008,49.7924246 C103.675424,49.822861 103.557261,49.8380789 103.435516,49.8380789 C103.353158,49.8380789 103.270802,49.8291272 103.188445,49.8112234 C103.106088,49.7933197 103.032684,49.7601983 102.96823,49.7118582 C102.903777,49.6635181 102.850962,49.5999608 102.809783,49.5211844 C102.768605,49.4424079 102.748016,49.3403582 102.748016,49.215032 L103.059539,46.2609305 C103.066701,46.182154 103.081919,46.0989029 103.105193,46.0111746 C103.128468,45.9234463 103.164275,45.8419855 103.212615,45.7667898 C103.260955,45.6915942 103.325408,45.6298272 103.405975,45.5814871 C103.486541,45.533147 103.589486,45.5089773 103.714813,45.5089773 L105.86325,45.5089773 C105.995738,45.5089773 106.130909,45.5161387 106.268768,45.5304617 C106.406626,45.5447847 106.53016,45.5770109 106.639373,45.6271414 C106.748586,45.6772719 106.838103,45.7515713 106.907928,45.8500418 C106.977752,45.9485123 107.012664,46.0818932 107.012664,46.2501883 C107.012664,46.4220641 106.977752,46.5581305 106.907928,46.6583914 C106.838103,46.7586523 106.748586,46.8338469 106.639373,46.8839773 C106.53016,46.9341078 106.406626,46.966334 106.268768,46.980657 C106.130909,46.99498 105.995738,47.0021414 105.86325,47.0021414 L104.574188,47.0021414 C104.545542,47.0021414 104.517791,47.0030366 104.490936,47.004827 C104.46408,47.0066173 104.440805,47.0146739 104.421111,47.0289969 C104.401417,47.0433199 104.385304,47.0656992 104.372771,47.0961355 C104.360239,47.1265719 104.352182,47.1704354 104.348602,47.2277273 L104.24118,48.2589773 Z M109.773406,51.1808523 C109.780568,51.2918555 109.809213,51.3903246 109.859344,51.4762625 C109.902313,51.5514582 109.968556,51.6194914 110.058074,51.6803641 C110.147593,51.7412368 110.278288,51.7716727 110.450164,51.7716727 C110.611298,51.7716727 110.735727,51.7412368 110.823455,51.6803641 C110.911183,51.6194914 110.974741,51.5514582 111.014129,51.4762625 C111.060679,51.3903246 111.087534,51.2918555 111.094695,51.1808523 L111.094695,50.1603445 C111.087534,50.0385991 111.060679,49.9311783 111.014129,49.8380789 C110.974741,49.7557217 110.911183,49.6814223 110.823455,49.6151785 C110.735727,49.5489347 110.611298,49.5158133 110.450164,49.5158133 C110.364226,49.5158133 110.289927,49.524765 110.227264,49.5426687 C110.164601,49.5605725 110.1091,49.5847422 110.06076,49.6151785 C110.01242,49.6456149 109.972137,49.6805266 109.93991,49.7199148 C109.907683,49.7593031 109.880828,49.7986907 109.859344,49.8380789 C109.809213,49.9311783 109.780568,50.0385991 109.773406,50.1603445 L109.773406,51.1808523 Z M110.450164,45.4660086 C110.532521,45.4660086 110.642628,45.4704845 110.780486,45.4794363 C110.918345,45.4883882 111.066049,45.5125579 111.223602,45.5519461 C111.381154,45.5913343 111.5396,45.6522061 111.698943,45.7345633 C111.858287,45.8169205 112.00241,45.933293 112.131316,46.0836844 C112.260223,46.2340758 112.364959,46.4229573 112.445525,46.6503348 C112.526092,46.8777122 112.566375,47.1561111 112.566375,47.4855398 L112.566375,47.6251883 C112.566375,47.8471946 112.552052,48.0360762 112.523406,48.1918387 C112.49476,48.3476012 112.453582,48.4791917 112.399871,48.5866141 C112.34616,48.6940365 112.281707,48.7835538 112.206512,48.8551687 C112.131316,48.9267837 112.04717,48.9894458 111.95407,49.043157 C112.04717,49.0968682 112.137582,49.1595304 112.225311,49.2311453 C112.313039,49.3027603 112.390024,49.3922776 112.456268,49.4997 C112.522511,49.6071224 112.575327,49.7387129 112.614715,49.8944754 C112.654103,50.0502379 112.673797,50.2391195 112.673797,50.4611258 L112.673797,51.0519461 C112.673797,51.3813748 112.630829,51.6597737 112.544891,51.8871512 C112.458953,52.1145286 112.347056,52.3034102 112.209197,52.4538016 C112.071339,52.6041929 111.918264,52.7205655 111.749969,52.8029227 C111.581674,52.8852798 111.415171,52.9461516 111.250457,52.9855398 C111.085743,53.0249281 110.931773,53.0490977 110.788543,53.0580496 C110.645313,53.0670015 110.532521,53.0714773 110.450164,53.0714773 C110.367807,53.0714773 110.25412,53.0670015 110.1091,53.0580496 C109.964079,53.0490977 109.806529,53.0249281 109.636443,52.9855398 C109.466358,52.9461516 109.294485,52.8852798 109.120818,52.8029227 C108.947152,52.7205655 108.788706,52.6041929 108.645477,52.4538016 C108.502247,52.3034102 108.385874,52.1145286 108.296355,51.8871512 C108.206837,51.6597737 108.162078,51.3813748 108.162078,51.0519461 L108.162078,50.4611258 C108.162078,50.2391195 108.181772,50.0502379 108.22116,49.8944754 C108.260548,49.7387129 108.313364,49.6071224 108.379607,49.4997 C108.445851,49.3922776 108.522836,49.3027603 108.610564,49.2311453 C108.698293,49.1595304 108.788705,49.0968682 108.881805,49.043157 C108.788705,48.9894458 108.704559,48.9267837 108.629363,48.8551687 C108.554168,48.7835538 108.489715,48.6940365 108.436004,48.5866141 C108.382293,48.4791917 108.341115,48.3476012 108.312469,48.1918387 C108.283823,48.0360762 108.2695,47.8471946 108.2695,47.6251883 L108.2695,47.4855398 C108.2695,47.1561111 108.311573,46.8777122 108.395721,46.6503348 C108.479868,46.4229573 108.589079,46.2340758 108.723357,46.0836844 C108.857635,45.933293 109.008025,45.8169205 109.174529,45.7345633 C109.341034,45.6522061 109.504851,45.5913343 109.665984,45.5519461 C109.827118,45.5125579 109.977507,45.4883882 110.117156,45.4794363 C110.256805,45.4704845 110.367807,45.4660086 110.450164,45.4660086 Z M109.773406,47.9152273 C109.780568,48.0262305 109.809213,48.1246996 109.859344,48.2106375 C109.902313,48.2858332 109.968556,48.3538664 110.058074,48.4147391 C110.147593,48.4756118 110.278288,48.5060477 110.450164,48.5060477 C110.611298,48.5060477 110.735727,48.4756118 110.823455,48.4147391 C110.911183,48.3538664 110.974741,48.2858332 111.014129,48.2106375 C111.060679,48.1246996 111.087534,48.0262305 111.094695,47.9152273 L111.094695,47.4747977 C111.087534,47.3530523 111.060679,47.2456315 111.014129,47.152532 C110.974741,47.0701748 110.911183,46.9958755 110.823455,46.9296316 C110.735727,46.8633878 110.611298,46.8302664 110.450164,46.8302664 C110.364226,46.8302664 110.289927,46.8392181 110.227264,46.8571219 C110.164601,46.8750256 110.1091,46.8991953 110.06076,46.9296316 C110.01242,46.960068 109.972137,46.9949798 109.93991,47.034368 C109.907683,47.0737562 109.880828,47.1131438 109.859344,47.152532 C109.809213,47.2456315 109.780568,47.3530523 109.773406,47.4747977 L109.773406,47.9152273 Z M116.250945,47.0665945 L116.250945,47.0021414 L114.564422,47.0021414 C114.439096,47.0021414 114.309296,46.99498 114.175018,46.980657 C114.04074,46.966334 113.917206,46.9341078 113.804412,46.8839773 C113.691619,46.8338469 113.598521,46.7586523 113.525115,46.6583914 C113.45171,46.5581305 113.415008,46.4220641 113.415008,46.2501883 C113.415008,46.0818932 113.45171,45.9485123 113.525115,45.8500418 C113.598521,45.7515713 113.691619,45.6772719 113.804412,45.6271414 C113.917206,45.5770109 114.04074,45.5447847 114.175018,45.5304617 C114.309296,45.5161387 114.439096,45.5089773 114.564422,45.5089773 L117.443328,45.5089773 C117.586558,45.5089773 117.714568,45.5322519 117.827361,45.5788016 C117.940155,45.6253513 118.035043,45.6871182 118.112029,45.7641043 C118.189015,45.8410904 118.247202,45.9297125 118.28659,46.0299734 C118.325978,46.1302344 118.345672,46.2322841 118.345672,46.3361258 C118.345672,46.3969985 118.340301,46.4560799 118.329559,46.5133719 C118.318816,46.5706638 118.299123,46.6261646 118.270477,46.6798758 L116.723602,49.5050711 C116.634083,49.6662047 116.563364,49.8049566 116.511443,49.9213309 C116.459523,50.0377051 116.420135,50.1478115 116.393279,50.2516531 C116.366424,50.3554948 116.34852,50.4629156 116.339568,50.5739187 C116.330616,50.6849219 116.326141,50.8156172 116.326141,50.9660086 L116.326141,51.7716727 C116.326141,51.9292255 116.321665,52.0831953 116.312713,52.2335867 C116.303761,52.3839781 116.27243,52.5182541 116.218719,52.6364187 C116.165008,52.7545834 116.079966,52.8494718 115.963592,52.9210867 C115.847218,52.9927017 115.68161,53.0285086 115.466766,53.0285086 C115.255502,53.0285086 115.093475,52.9927017 114.980682,52.9210867 C114.867888,52.8494718 114.785532,52.7545834 114.733611,52.6364187 C114.68169,52.5182541 114.651255,52.3839781 114.642303,52.2335867 C114.633351,52.0831953 114.628875,51.9292255 114.628875,51.7716727 L114.628875,50.9660086 C114.628875,50.7117756 114.635141,50.5040953 114.647674,50.3429617 C114.660206,50.1818281 114.684376,50.0394955 114.720184,49.9159598 C114.755991,49.792424 114.80433,49.6715756 114.865203,49.5534109 C114.926076,49.4352463 115.004851,49.2902282 115.101531,49.1183523 L116.250945,47.0665945 Z M120.687469,51.1808523 C120.69463,51.2918555 120.723276,51.3903246 120.773406,51.4762625 C120.816375,51.5514582 120.882618,51.6194914 120.972137,51.6803641 C121.061655,51.7412368 121.192351,51.7716727 121.364227,51.7716727 C121.52536,51.7716727 121.649789,51.7412368 121.737518,51.6803641 C121.825246,51.6194914 121.888803,51.5514582 121.928191,51.4762625 C121.974741,51.3903246 122.001596,51.2918555 122.008758,51.1808523 L122.008758,50.1603445 C122.001596,50.0385991 121.974741,49.9311783 121.928191,49.8380789 C121.888803,49.7557217 121.825246,49.6814223 121.737518,49.6151785 C121.649789,49.5489347 121.52536,49.5158133 121.364227,49.5158133 C121.278289,49.5158133 121.203989,49.524765 121.141326,49.5426687 C121.078663,49.5605725 121.023162,49.5847422 120.974822,49.6151785 C120.926482,49.6456149 120.886199,49.6805266 120.853973,49.7199148 C120.821746,49.7593031 120.794891,49.7986907 120.773406,49.8380789 C120.723276,49.9311783 120.69463,50.0385991 120.687469,50.1603445 L120.687469,51.1808523 Z M121.364227,45.4660086 C121.446584,45.4660086 121.55669,45.4704845 121.694549,45.4794363 C121.832408,45.4883882 121.980111,45.5125579 122.137664,45.5519461 C122.295217,45.5913343 122.453663,45.6522061 122.613006,45.7345633 C122.772349,45.8169205 122.916472,45.933293 123.045379,46.0836844 C123.174286,46.2340758 123.279021,46.4229573 123.359588,46.6503348 C123.440155,46.8777122 123.480438,47.1561111 123.480438,47.4855398 L123.480438,47.6251883 C123.480438,47.8471946 123.466115,48.0360762 123.437469,48.1918387 C123.408823,48.3476012 123.367645,48.4791917 123.313934,48.5866141 C123.260222,48.6940365 123.19577,48.7835538 123.120574,48.8551687 C123.045379,48.9267837 122.961232,48.9894458 122.868133,49.043157 C122.961232,49.0968682 123.051645,49.1595304 123.139373,49.2311453 C123.227101,49.3027603 123.304086,49.3922776 123.37033,49.4997 C123.436574,49.6071224 123.489389,49.7387129 123.528777,49.8944754 C123.568166,50.0502379 123.587859,50.2391195 123.587859,50.4611258 L123.587859,51.0519461 C123.587859,51.3813748 123.544891,51.6597737 123.458953,51.8871512 C123.373015,52.1145286 123.261119,52.3034102 123.12326,52.4538016 C122.985401,52.6041929 122.832326,52.7205655 122.664031,52.8029227 C122.495736,52.8852798 122.329234,52.9461516 122.16452,52.9855398 C121.999805,53.0249281 121.845835,53.0490977 121.702605,53.0580496 C121.559376,53.0670015 121.446584,53.0714773 121.364227,53.0714773 C121.281869,53.0714773 121.168182,53.0670015 121.023162,53.0580496 C120.878142,53.0490977 120.720591,53.0249281 120.550506,52.9855398 C120.38042,52.9461516 120.208547,52.8852798 120.034881,52.8029227 C119.861215,52.7205655 119.702769,52.6041929 119.559539,52.4538016 C119.416309,52.3034102 119.299937,52.1145286 119.210418,51.8871512 C119.120899,51.6597737 119.076141,51.3813748 119.076141,51.0519461 L119.076141,50.4611258 C119.076141,50.2391195 119.095834,50.0502379 119.135223,49.8944754 C119.174611,49.7387129 119.227426,49.6071224 119.29367,49.4997 C119.359914,49.3922776 119.436899,49.3027603 119.524627,49.2311453 C119.612355,49.1595304 119.702768,49.0968682 119.795867,49.043157 C119.702768,48.9894458 119.618621,48.9267837 119.543426,48.8551687 C119.46823,48.7835538 119.403778,48.6940365 119.350066,48.5866141 C119.296355,48.4791917 119.255177,48.3476012 119.226531,48.1918387 C119.197885,48.0360762 119.183563,47.8471946 119.183563,47.6251883 L119.183563,47.4855398 C119.183563,47.1561111 119.225636,46.8777122 119.309783,46.6503348 C119.393931,46.4229573 119.503142,46.2340758 119.63742,46.0836844 C119.771698,45.933293 119.922087,45.8169205 120.088592,45.7345633 C120.255097,45.6522061 120.418913,45.5913343 120.580047,45.5519461 C120.74118,45.5125579 120.89157,45.4883882 121.031219,45.4794363 C121.170868,45.4704845 121.281869,45.4660086 121.364227,45.4660086 Z M120.687469,47.9152273 C120.69463,48.0262305 120.723276,48.1246996 120.773406,48.2106375 C120.816375,48.2858332 120.882618,48.3538664 120.972137,48.4147391 C121.061655,48.4756118 121.192351,48.5060477 121.364227,48.5060477 C121.52536,48.5060477 121.649789,48.4756118 121.737518,48.4147391 C121.825246,48.3538664 121.888803,48.2858332 121.928191,48.2106375 C121.974741,48.1246996 122.001596,48.0262305 122.008758,47.9152273 L122.008758,47.4747977 C122.001596,47.3530523 121.974741,47.2456315 121.928191,47.152532 C121.888803,47.0701748 121.825246,46.9958755 121.737518,46.9296316 C121.649789,46.8633878 121.52536,46.8302664 121.364227,46.8302664 C121.278289,46.8302664 121.203989,46.8392181 121.141326,46.8571219 C121.078663,46.8750256 121.023162,46.8991953 120.974822,46.9296316 C120.926482,46.960068 120.886199,46.9949798 120.853973,47.034368 C120.821746,47.0737562 120.794891,47.1131438 120.773406,47.152532 C120.723276,47.2456315 120.69463,47.3530523 120.687469,47.4747977 L120.687469,47.9152273 Z M133.030242,48.1515555 C133.030242,48.3198506 133.029347,48.513208 133.027557,48.7316336 C133.025766,48.9500592 133.024871,49.1649008 133.024871,49.3761648 C133.024871,49.5874289 133.023976,49.7816815 133.022186,49.9589285 C133.020395,50.1361755 133.0195,50.267766 133.0195,50.3537039 C133.0195,50.6688096 132.972056,50.9848058 132.877166,51.301702 C132.782276,51.6185981 132.651581,51.9050535 132.485076,52.161077 C132.318571,52.4171004 132.120738,52.6256758 131.89157,52.7868094 C131.662403,52.947943 131.411754,53.0285086 131.139617,53.0285086 C131.01071,53.0213471 130.897918,52.9971774 130.801238,52.9559988 C130.704558,52.9148202 130.623993,52.8629002 130.559539,52.8002371 C130.495086,52.737574 130.446746,52.6668553 130.41452,52.5880789 C130.382293,52.5093025 130.36618,52.4269465 130.36618,52.3410086 C130.36618,52.2228439 130.398406,52.1046811 130.462859,51.9865164 C130.527313,51.8683518 130.627572,51.7573503 130.763641,51.6535086 C130.874644,51.5711514 130.969532,51.4950617 131.048309,51.4252371 C131.127085,51.3554125 131.193328,51.2864842 131.247039,51.21845 C131.30075,51.1504158 131.342823,51.0779068 131.37326,51.0009207 C131.403696,50.9239346 131.426971,50.8353125 131.443084,50.7350516 C131.459197,50.6347906 131.469939,50.5184181 131.475311,50.3859305 C131.480682,50.2534428 131.483367,50.0958923 131.483367,49.9132742 C131.443979,49.9884699 131.391164,50.051132 131.32492,50.1012625 C131.258676,50.151393 131.185272,50.1907806 131.104705,50.2194266 C131.024138,50.2480725 130.938202,50.2686615 130.846893,50.2811941 C130.755584,50.2937268 130.666961,50.299993 130.581023,50.299993 C130.480763,50.299993 130.361704,50.2910412 130.223846,50.2731375 C130.085987,50.2552338 129.943654,50.220322 129.796844,50.1684012 C129.650033,50.1164803 129.505015,50.0430761 129.361785,49.9481863 C129.218555,49.8532965 129.091441,49.7279723 128.980438,49.5722098 C128.869434,49.4164473 128.779022,49.2284609 128.709197,49.0082449 C128.639373,48.788029 128.604461,48.5239528 128.604461,48.2160086 L128.604461,47.721868 C128.604461,47.3637933 128.648324,47.0585392 128.736053,46.8060965 C128.823781,46.5536538 128.935678,46.3441833 129.071746,46.1776785 C129.207814,46.0111738 129.359994,45.8804785 129.528289,45.7855887 C129.696584,45.6906989 129.861296,45.619085 130.02243,45.5707449 C130.183563,45.5224048 130.332162,45.4928641 130.46823,45.4821219 C130.604299,45.4713796 130.709929,45.4660086 130.785125,45.4660086 C130.881805,45.4660086 131.005339,45.4713796 131.15573,45.4821219 C131.306122,45.4928641 131.464568,45.5224048 131.631072,45.5707449 C131.797577,45.619085 131.964079,45.6906989 132.130584,45.7855887 C132.297089,45.8804785 132.446583,46.0111738 132.57907,46.1776785 C132.711558,46.3441833 132.819874,46.5536538 132.904021,46.8060965 C132.988169,47.0585392 133.030242,47.3637933 133.030242,47.721868 L133.030242,48.1515555 Z M131.483367,47.5177664 C131.476206,47.3996018 131.44935,47.2939713 131.402801,47.2008719 C131.363413,47.1220954 131.30075,47.0495864 131.214813,46.9833426 C131.128875,46.9170988 131.007131,46.8839773 130.849578,46.8839773 C130.692025,46.8839773 130.570282,46.9170988 130.484344,46.9833426 C130.398406,47.0495864 130.335744,47.1220954 130.296355,47.2008719 C130.249806,47.2939713 130.222951,47.3996018 130.215789,47.5177664 L130.215789,48.3019461 C130.222951,48.4201107 130.249806,48.5257412 130.296355,48.6188406 C130.335744,48.7011978 130.398406,48.774602 130.484344,48.8390555 C130.570282,48.9035089 130.692025,48.9357352 130.849578,48.9357352 C131.007131,48.9357352 131.128875,48.9035089 131.214813,48.8390555 C131.30075,48.774602 131.363413,48.7011978 131.402801,48.6188406 C131.44935,48.5257412 131.476206,48.4201107 131.483367,48.3019461 L131.483367,47.5177664 Z M138.358367,48.1515555 C138.358367,48.3198506 138.357472,48.513208 138.355682,48.7316336 C138.353891,48.9500592 138.352996,49.1649008 138.352996,49.3761648 C138.352996,49.5874289 138.352101,49.7816815 138.350311,49.9589285 C138.34852,50.1361755 138.347625,50.267766 138.347625,50.3537039 C138.347625,50.6688096 138.300181,50.9848058 138.205291,51.301702 C138.110401,51.6185981 137.979706,51.9050535 137.813201,52.161077 C137.646696,52.4171004 137.448863,52.6256758 137.219695,52.7868094 C136.990528,52.947943 136.739879,53.0285086 136.467742,53.0285086 C136.338835,53.0213471 136.226043,52.9971774 136.129363,52.9559988 C136.032683,52.9148202 135.952118,52.8629002 135.887664,52.8002371 C135.823211,52.737574 135.774871,52.6668553 135.742645,52.5880789 C135.710418,52.5093025 135.694305,52.4269465 135.694305,52.3410086 C135.694305,52.2228439 135.726531,52.1046811 135.790984,51.9865164 C135.855438,51.8683518 135.955697,51.7573503 136.091766,51.6535086 C136.202769,51.5711514 136.297657,51.4950617 136.376434,51.4252371 C136.45521,51.3554125 136.521453,51.2864842 136.575164,51.21845 C136.628875,51.1504158 136.670948,51.0779068 136.701385,51.0009207 C136.731821,50.9239346 136.755096,50.8353125 136.771209,50.7350516 C136.787322,50.6347906 136.798064,50.5184181 136.803436,50.3859305 C136.808807,50.2534428 136.811492,50.0958923 136.811492,49.9132742 C136.772104,49.9884699 136.719289,50.051132 136.653045,50.1012625 C136.586801,50.151393 136.513397,50.1907806 136.43283,50.2194266 C136.352263,50.2480725 136.266327,50.2686615 136.175018,50.2811941 C136.083709,50.2937268 135.995086,50.299993 135.909148,50.299993 C135.808888,50.299993 135.689829,50.2910412 135.551971,50.2731375 C135.414112,50.2552338 135.271779,50.220322 135.124969,50.1684012 C134.978158,50.1164803 134.83314,50.0430761 134.68991,49.9481863 C134.54668,49.8532965 134.419566,49.7279723 134.308563,49.5722098 C134.197559,49.4164473 134.107147,49.2284609 134.037322,49.0082449 C133.967498,48.788029 133.932586,48.5239528 133.932586,48.2160086 L133.932586,47.721868 C133.932586,47.3637933 133.976449,47.0585392 134.064178,46.8060965 C134.151906,46.5536538 134.263803,46.3441833 134.399871,46.1776785 C134.535939,46.0111738 134.688119,45.8804785 134.856414,45.7855887 C135.024709,45.6906989 135.189421,45.619085 135.350555,45.5707449 C135.511688,45.5224048 135.660287,45.4928641 135.796355,45.4821219 C135.932424,45.4713796 136.038054,45.4660086 136.11325,45.4660086 C136.20993,45.4660086 136.333464,45.4713796 136.483855,45.4821219 C136.634247,45.4928641 136.792693,45.5224048 136.959197,45.5707449 C137.125702,45.619085 137.292204,45.6906989 137.458709,45.7855887 C137.625214,45.8804785 137.774708,46.0111738 137.907195,46.1776785 C138.039683,46.3441833 138.147999,46.5536538 138.232146,46.8060965 C138.316294,47.0585392 138.358367,47.3637933 138.358367,47.721868 L138.358367,48.1515555 Z M136.811492,47.5177664 C136.804331,47.3996018 136.777475,47.2939713 136.730926,47.2008719 C136.691538,47.1220954 136.628875,47.0495864 136.542938,46.9833426 C136.457,46.9170988 136.335256,46.8839773 136.177703,46.8839773 C136.02015,46.8839773 135.898407,46.9170988 135.812469,46.9833426 C135.726531,47.0495864 135.663869,47.1220954 135.62448,47.2008719 C135.577931,47.2939713 135.551076,47.3996018 135.543914,47.5177664 L135.543914,48.3019461 C135.551076,48.4201107 135.577931,48.5257412 135.62448,48.6188406 C135.663869,48.7011978 135.726531,48.774602 135.812469,48.8390555 C135.898407,48.9035089 136.02015,48.9357352 136.177703,48.9357352 C136.335256,48.9357352 136.457,48.9035089 136.542938,48.8390555 C136.628875,48.774602 136.691538,48.7011978 136.730926,48.6188406 C136.777475,48.5257412 136.804331,48.4201107 136.811492,48.3019461 L136.811492,47.5177664 Z M143.686492,48.1515555 C143.686492,48.3198506 143.685597,48.513208 143.683807,48.7316336 C143.682016,48.9500592 143.681121,49.1649008 143.681121,49.3761648 C143.681121,49.5874289 143.680226,49.7816815 143.678436,49.9589285 C143.676645,50.1361755 143.67575,50.267766 143.67575,50.3537039 C143.67575,50.6688096 143.628306,50.9848058 143.533416,51.301702 C143.438526,51.6185981 143.307831,51.9050535 143.141326,52.161077 C142.974821,52.4171004 142.776988,52.6256758 142.54782,52.7868094 C142.318653,52.947943 142.068004,53.0285086 141.795867,53.0285086 C141.66696,53.0213471 141.554168,52.9971774 141.457488,52.9559988 C141.360808,52.9148202 141.280243,52.8629002 141.215789,52.8002371 C141.151336,52.737574 141.102996,52.6668553 141.07077,52.5880789 C141.038543,52.5093025 141.02243,52.4269465 141.02243,52.3410086 C141.02243,52.2228439 141.054656,52.1046811 141.119109,51.9865164 C141.183563,51.8683518 141.283822,51.7573503 141.419891,51.6535086 C141.530894,51.5711514 141.625782,51.4950617 141.704559,51.4252371 C141.783335,51.3554125 141.849578,51.2864842 141.903289,51.21845 C141.957,51.1504158 141.999073,51.0779068 142.02951,51.0009207 C142.059946,50.9239346 142.083221,50.8353125 142.099334,50.7350516 C142.115447,50.6347906 142.126189,50.5184181 142.131561,50.3859305 C142.136932,50.2534428 142.139617,50.0958923 142.139617,49.9132742 C142.100229,49.9884699 142.047414,50.051132 141.98117,50.1012625 C141.914926,50.151393 141.841522,50.1907806 141.760955,50.2194266 C141.680388,50.2480725 141.594452,50.2686615 141.503143,50.2811941 C141.411834,50.2937268 141.323211,50.299993 141.237273,50.299993 C141.137013,50.299993 141.017954,50.2910412 140.880096,50.2731375 C140.742237,50.2552338 140.599904,50.220322 140.453094,50.1684012 C140.306283,50.1164803 140.161265,50.0430761 140.018035,49.9481863 C139.874805,49.8532965 139.747691,49.7279723 139.636688,49.5722098 C139.525684,49.4164473 139.435272,49.2284609 139.365447,49.0082449 C139.295623,48.788029 139.260711,48.5239528 139.260711,48.2160086 L139.260711,47.721868 C139.260711,47.3637933 139.304574,47.0585392 139.392303,46.8060965 C139.480031,46.5536538 139.591928,46.3441833 139.727996,46.1776785 C139.864064,46.0111738 140.016244,45.8804785 140.184539,45.7855887 C140.352834,45.6906989 140.517546,45.619085 140.67868,45.5707449 C140.839813,45.5224048 140.988412,45.4928641 141.12448,45.4821219 C141.260549,45.4713796 141.366179,45.4660086 141.441375,45.4660086 C141.538055,45.4660086 141.661589,45.4713796 141.81198,45.4821219 C141.962372,45.4928641 142.120818,45.5224048 142.287322,45.5707449 C142.453827,45.619085 142.620329,45.6906989 142.786834,45.7855887 C142.953339,45.8804785 143.102833,46.0111738 143.23532,46.1776785 C143.367808,46.3441833 143.476124,46.5536538 143.560271,46.8060965 C143.644419,47.0585392 143.686492,47.3637933 143.686492,47.721868 L143.686492,48.1515555 Z M142.139617,47.5177664 C142.132456,47.3996018 142.1056,47.2939713 142.059051,47.2008719 C142.019663,47.1220954 141.957,47.0495864 141.871063,46.9833426 C141.785125,46.9170988 141.663381,46.8839773 141.505828,46.8839773 C141.348275,46.8839773 141.226532,46.9170988 141.140594,46.9833426 C141.054656,47.0495864 140.991994,47.1220954 140.952605,47.2008719 C140.906056,47.2939713 140.879201,47.3996018 140.872039,47.5177664 L140.872039,48.3019461 C140.879201,48.4201107 140.906056,48.5257412 140.952605,48.6188406 C140.991994,48.7011978 141.054656,48.774602 141.140594,48.8390555 C141.226532,48.9035089 141.348275,48.9357352 141.505828,48.9357352 C141.663381,48.9357352 141.785125,48.9035089 141.871063,48.8390555 C141.957,48.774602 142.019663,48.7011978 142.059051,48.6188406 C142.1056,48.5257412 142.132456,48.4201107 142.139617,48.3019461 L142.139617,47.5177664 Z M144.997039,50.3966727 C144.997039,50.2283775 144.997934,50.0341249 144.999725,49.813909 C145.001515,49.593693 145.00241,49.3761659 145.00241,49.1613211 C145.00241,48.9464763 145.003305,48.7495381 145.005096,48.5705008 C145.006886,48.3914634 145.007781,48.2589778 145.007781,48.1730398 C145.007781,47.9653565 145.029265,47.7549908 145.072234,47.5419363 C145.115203,47.3288819 145.17697,47.1238872 145.257537,46.9269461 C145.338104,46.730005 145.435678,46.5455993 145.550262,46.3737234 C145.664846,46.2018476 145.792855,46.0514585 145.934295,45.9225516 C146.075734,45.7936447 146.227914,45.6924901 146.390838,45.6190848 C146.553762,45.5456795 146.72653,45.5089773 146.909148,45.5089773 C147.034475,45.5161388 147.144581,45.5403085 147.239471,45.5814871 C147.334361,45.6226657 147.414031,45.6745858 147.478484,45.7372488 C147.542938,45.7999119 147.591277,45.8706306 147.623504,45.949407 C147.655731,46.0281835 147.671844,46.1105394 147.671844,46.1964773 C147.671844,46.314642 147.639618,46.4328049 147.575164,46.5509695 C147.510711,46.6691342 147.410451,46.7801357 147.274383,46.8839773 C147.16696,46.9699153 147.073862,47.0469002 146.995086,47.1149344 C146.91631,47.1829686 146.850962,47.2510017 146.799041,47.3190359 C146.74712,47.3870701 146.705942,47.4595792 146.675506,47.5365652 C146.64507,47.6135513 146.621795,47.7012783 146.605682,47.7997488 C146.589568,47.8982194 146.578826,48.0136967 146.573455,48.1461844 C146.568084,48.278672 146.565398,48.4344322 146.565398,48.6134695 C146.601206,48.5382738 146.653126,48.4756117 146.72116,48.4254812 C146.789194,48.3753508 146.863494,48.3359632 146.944061,48.3073172 C147.024627,48.2786712 147.109669,48.2580822 147.199188,48.2455496 C147.288706,48.233017 147.374643,48.2267508 147.457,48.2267508 C147.557261,48.2267508 147.676319,48.2357025 147.814178,48.2536062 C147.952036,48.27151 148.094369,48.3064217 148.24118,48.3583426 C148.38799,48.4102634 148.533008,48.4845628 148.676238,48.581243 C148.819468,48.6779231 148.946583,48.8041426 149.057586,48.9599051 C149.168589,49.1156676 149.259002,49.3063395 149.328826,49.5319266 C149.398651,49.7575136 149.433563,50.0242753 149.433563,50.3322195 L149.433563,50.8263602 C149.433563,51.1844349 149.389699,51.4887938 149.301971,51.7394461 C149.214242,51.9900984 149.102346,52.1986738 148.966277,52.3651785 C148.830209,52.5316833 148.678029,52.6614834 148.509734,52.7545828 C148.341439,52.8476822 148.176727,52.9184009 148.015594,52.966741 C147.85446,53.0150811 147.704966,53.0446218 147.567107,53.0553641 C147.429249,53.0661063 147.324513,53.0714773 147.252898,53.0714773 C147.156218,53.0714773 147.03358,53.0661063 146.884979,53.0553641 C146.736378,53.0446218 146.577932,53.0150811 146.409637,52.966741 C146.241342,52.9184009 146.073944,52.8476822 145.907439,52.7545828 C145.740935,52.6614834 145.58965,52.5316833 145.453582,52.3651785 C145.317514,52.1986738 145.207407,51.9900984 145.12326,51.7394461 C145.039112,51.4887938 144.997039,51.1844349 144.997039,50.8263602 L144.997039,50.3966727 Z M146.565398,51.0304617 C146.57256,51.1486264 146.599415,51.2542568 146.645965,51.3473562 C146.685353,51.4297134 146.748015,51.5031176 146.833953,51.5675711 C146.919891,51.6320245 147.041635,51.6642508 147.199188,51.6642508 C147.35674,51.6642508 147.476694,51.6320245 147.559051,51.5675711 C147.641408,51.5031176 147.70228,51.4297134 147.741668,51.3473562 C147.784637,51.2542568 147.811492,51.1486264 147.822234,51.0304617 L147.822234,50.246282 C147.811492,50.1281174 147.784637,50.0224869 147.741668,49.9293875 C147.70228,49.8506111 147.640513,49.778102 147.556365,49.7118582 C147.472218,49.6456144 147.35316,49.612493 147.199188,49.612493 C147.041635,49.612493 146.919891,49.6456144 146.833953,49.7118582 C146.748015,49.778102 146.685353,49.8506111 146.645965,49.9293875 C146.599415,50.0224869 146.57256,50.1281174 146.565398,50.246282 L146.565398,51.0304617 Z M156.867156,47.0773367 L156.867156,47.0021414 L155.470672,47.0021414 C155.348926,47.0021414 155.222707,46.99498 155.09201,46.980657 C154.961312,46.966334 154.842254,46.9341078 154.734832,46.8839773 C154.62741,46.8338469 154.538787,46.7586523 154.468963,46.6583914 C154.399138,46.5581305 154.364227,46.4220641 154.364227,46.2501883 C154.364227,46.0818932 154.399138,45.9485123 154.468963,45.8500418 C154.538787,45.7515713 154.62741,45.6772719 154.734832,45.6271414 C154.842254,45.5770109 154.961312,45.5447847 155.09201,45.5304617 C155.222707,45.5161387 155.348926,45.5089773 155.470672,45.5089773 L157.86618,45.5089773 C158.00941,45.5089773 158.137419,45.5322519 158.250213,45.5788016 C158.363006,45.6253513 158.457895,45.6871182 158.534881,45.7641043 C158.611867,45.8410904 158.670053,45.9297125 158.709441,46.0299734 C158.74883,46.1302344 158.768523,46.2322841 158.768523,46.3361258 C158.768523,46.3969985 158.764048,46.4560799 158.755096,46.5133719 C158.746144,46.5706638 158.725555,46.6261646 158.693328,46.6798758 L157.726531,48.2912039 C157.891246,48.3592381 158.052377,48.4496506 158.20993,48.5624441 C158.367483,48.6752377 158.508025,48.8175702 158.631561,48.9894461 C158.755096,49.161322 158.853565,49.3645263 158.926971,49.5990652 C159.000376,49.8336042 159.037078,50.1030513 159.037078,50.4074148 C159.037078,50.7511666 159.000376,51.0564207 158.926971,51.3231863 C158.853565,51.589952 158.755096,51.8218019 158.631561,52.018743 C158.508025,52.2156841 158.363007,52.3812911 158.196502,52.5155691 C158.029997,52.6498472 157.852753,52.7581631 157.664764,52.8405203 C157.476774,52.9228775 157.282522,52.9819589 157.082,53.0177664 C156.881478,53.0535739 156.68454,53.0714773 156.49118,53.0714773 C156.344369,53.0714773 156.186819,53.0571546 156.018523,53.0285086 C155.850228,52.9998626 155.682831,52.955104 155.516326,52.8942312 C155.349821,52.8333585 155.190481,52.7590592 155.038299,52.6713309 C154.886117,52.5836026 154.750946,52.4788673 154.632781,52.3571219 C154.514617,52.2353765 154.420623,52.0993101 154.350799,51.9489187 C154.280974,51.7985274 154.246063,51.6320251 154.246063,51.449407 C154.246063,51.3598884 154.258595,51.2748469 154.28366,51.1942801 C154.308725,51.1137133 154.347218,51.0420994 154.399139,50.9794363 C154.45106,50.9167733 154.516407,50.8666435 154.595184,50.8290457 C154.67396,50.7914479 154.768848,50.7726492 154.879852,50.7726492 C155.026662,50.7726492 155.163624,50.8138272 155.29074,50.8961844 C155.417857,50.9785416 155.524382,51.1056562 155.61032,51.277532 C155.631805,51.3169202 155.664926,51.3616789 155.709686,51.4118094 C155.754445,51.4619398 155.813526,51.5084888 155.886932,51.5514578 C155.960337,51.5944268 156.048959,51.6311289 156.152801,51.6615652 C156.256642,51.6920016 156.376596,51.7072195 156.512664,51.7072195 C156.720347,51.7072195 156.891326,51.6740981 157.025604,51.6078543 C157.159882,51.5416105 157.266407,51.4547787 157.345184,51.3473562 C157.42396,51.2399338 157.478566,51.1181903 157.509002,50.9821219 C157.539438,50.8460535 157.554656,50.7081968 157.554656,50.5685477 C157.554656,50.407414 157.527801,50.2588153 157.47409,50.1227469 C157.420379,49.9866785 157.34787,49.8685156 157.256561,49.7682547 C157.165251,49.6679938 157.061411,49.5901137 156.945037,49.5346121 C156.828663,49.4791105 156.709605,49.4513602 156.587859,49.4513602 C156.415984,49.4513602 156.276336,49.3994401 156.168914,49.2955984 C156.061492,49.1917568 156.007781,49.0503194 156.007781,48.871282 C156.007781,48.7960863 156.022104,48.7128352 156.05075,48.6215262 C156.079396,48.5302171 156.125945,48.4272722 156.190398,48.3126883 L156.867156,47.0773367 Z M162.431609,45.4660086 C162.836234,45.4660086 163.191618,45.5206142 163.497771,45.629827 C163.803925,45.7390397 164.05905,45.8912192 164.263152,46.0863699 C164.467255,46.2815206 164.621225,46.5142657 164.725066,46.7846121 C164.828908,47.0549585 164.880828,47.3530512 164.880828,47.6788992 C164.880828,47.893744 164.851287,48.0924725 164.792205,48.2750906 C164.733123,48.4577087 164.656138,48.624211 164.561248,48.7746023 C164.466358,48.9249937 164.358042,49.0610601 164.236297,49.1828055 C164.114551,49.3045509 163.991018,49.4119717 163.865691,49.5050711 C163.564909,49.7270774 163.226533,49.9061121 162.850555,50.0421805 C162.725229,50.0923109 162.600799,50.1522875 162.477264,50.2221121 C162.353728,50.2919367 162.243622,50.3725023 162.146941,50.4638113 C162.050261,50.5551204 161.971486,50.6607508 161.910613,50.7807059 C161.849741,50.9006609 161.819305,51.0376224 161.819305,51.1915945 L161.819305,51.5246023 L163.688445,51.5246023 C163.838837,51.5246023 163.989226,51.5317637 164.139617,51.5460867 C164.290009,51.5604097 164.426075,51.5926359 164.54782,51.6427664 C164.669566,51.6928969 164.768035,51.7671963 164.84323,51.8656668 C164.918426,51.9641373 164.956023,52.0975182 164.956023,52.2658133 C164.956023,52.4376891 164.918426,52.5737555 164.84323,52.6740164 C164.768035,52.7742773 164.669566,52.8512622 164.54782,52.9049734 C164.426075,52.9586846 164.290009,52.9927012 164.139617,53.0070242 C163.989226,53.0213472 163.838837,53.0285086 163.688445,53.0285086 L161.013641,53.0285086 C160.834603,53.0285086 160.6869,52.9989679 160.570525,52.9398855 C160.454151,52.8808032 160.361948,52.8056087 160.293914,52.7142996 C160.22588,52.6229906 160.178436,52.5209408 160.15158,52.4081473 C160.124724,52.2953537 160.111297,52.1834571 160.111297,52.0724539 L160.111297,51.2130789 C160.111297,50.9373614 160.156951,50.6786563 160.24826,50.4369559 C160.339569,50.1952554 160.468474,49.9750428 160.634979,49.7763113 C160.801483,49.5775799 161.000212,49.3994404 161.23117,49.2418875 C161.462128,49.0843346 161.719043,48.9500586 162.001922,48.8390555 C162.284801,48.7280523 162.510385,48.6215267 162.67868,48.5194754 C162.846975,48.4174241 162.976775,48.3171647 163.068084,48.2186941 C163.159393,48.1202236 163.21937,48.0208594 163.248016,47.9205984 C163.276662,47.8203375 163.290984,47.7182878 163.290984,47.6144461 C163.290984,47.4282472 163.259653,47.2814388 163.19699,47.1740164 C163.134327,47.066594 163.057342,46.9869236 162.966033,46.9350027 C162.874724,46.8830819 162.779836,46.8508557 162.681365,46.838323 C162.582895,46.8257904 162.499644,46.8195242 162.431609,46.8195242 C162.252572,46.8195242 162.109344,46.8454842 162.001922,46.8974051 C161.894499,46.9493259 161.813039,47.0146736 161.757537,47.09345 C161.702036,47.1722264 161.666229,47.2590582 161.650115,47.353948 C161.634002,47.4488378 161.625945,47.5392504 161.625945,47.6251883 C161.625945,47.7648374 161.59909,47.8838955 161.545379,47.982366 C161.491668,48.0808366 161.42453,48.160507 161.343963,48.2213797 C161.263396,48.2822524 161.175669,48.3270111 161.080779,48.355657 C160.985889,48.384303 160.899058,48.3986258 160.820281,48.3986258 C160.57679,48.3986258 160.379852,48.3314878 160.229461,48.1972098 C160.07907,48.0629318 160.003875,47.8901633 160.003875,47.6788992 C160.003875,47.5857998 160.014617,47.4658466 160.036102,47.3190359 C160.057586,47.1722253 160.098764,47.0164651 160.159637,46.8517508 C160.220509,46.6870364 160.306446,46.5223245 160.417449,46.3576102 C160.528452,46.1928958 160.67347,46.044297 160.852508,45.9118094 C161.031545,45.7793217 161.249967,45.6719009 161.507781,45.5895437 C161.765595,45.5071866 162.073535,45.4660086 162.431609,45.4660086 Z M167.233367,48.2589773 C167.380178,48.2052661 167.540414,48.1667737 167.71408,48.1434988 C167.887746,48.120224 168.042611,48.1085867 168.17868,48.1085867 C168.307587,48.1085867 168.450814,48.1229095 168.608367,48.1515555 C168.76592,48.1802014 168.925261,48.229436 169.086395,48.2992605 C169.247528,48.3690851 169.405079,48.461288 169.559051,48.5758719 C169.713023,48.6904558 169.849089,48.8327883 169.967254,49.0028738 C170.085419,49.1729593 170.180307,49.3743733 170.251922,49.6071219 C170.323537,49.8398704 170.359344,50.1066321 170.359344,50.4074148 C170.359344,50.7511666 170.322642,51.0564207 170.249236,51.3231863 C170.175831,51.589952 170.077362,51.8218019 169.953826,52.018743 C169.83029,52.2156841 169.685272,52.3812911 169.518768,52.5155691 C169.352263,52.6498472 169.175019,52.7581631 168.987029,52.8405203 C168.79904,52.9228775 168.604787,52.9819589 168.404266,53.0177664 C168.203744,53.0535739 168.006806,53.0714773 167.813445,53.0714773 C167.602181,53.0714773 167.379283,53.043727 167.144744,52.9882254 C166.910205,52.9327238 166.688202,52.8485775 166.478729,52.735784 C166.269255,52.6229905 166.084849,52.4815531 165.925506,52.3114676 C165.766163,52.1413821 165.657847,51.9399681 165.600555,51.7072195 C165.57907,51.6212816 165.568328,51.535345 165.568328,51.449407 C165.568328,51.3598884 165.580861,51.2748469 165.605926,51.1942801 C165.630991,51.1137133 165.669483,51.0420994 165.721404,50.9794363 C165.773325,50.9167733 165.838673,50.8666435 165.917449,50.8290457 C165.996226,50.7914479 166.091114,50.7726492 166.202117,50.7726492 C166.348928,50.7726492 166.485889,50.8138272 166.613006,50.8961844 C166.740122,50.9785416 166.846648,51.1056562 166.932586,51.277532 C166.95407,51.3169202 166.987192,51.3616789 167.031951,51.4118094 C167.076711,51.4619398 167.135792,51.5084888 167.209197,51.5514578 C167.282603,51.5944268 167.371225,51.6311289 167.475066,51.6615652 C167.578908,51.6920016 167.698861,51.7072195 167.83493,51.7072195 C168.042613,51.7072195 168.213591,51.6740981 168.347869,51.6078543 C168.482147,51.5416105 168.588673,51.4547787 168.667449,51.3473562 C168.746226,51.2399338 168.800831,51.1181903 168.831268,50.9821219 C168.861704,50.8460535 168.876922,50.7081968 168.876922,50.5685477 C168.876922,50.393091 168.846486,50.2418068 168.785613,50.1146902 C168.724741,49.9875737 168.64328,49.8819433 168.541229,49.7977957 C168.439177,49.7136481 168.3237,49.650986 168.194793,49.6098074 C168.065886,49.5686288 167.935191,49.5480398 167.802703,49.5480398 C167.688119,49.5480398 167.574432,49.5632578 167.461639,49.5936941 C167.348845,49.6241305 167.236053,49.6572519 167.12326,49.6930594 C167.010466,49.7288668 166.896779,49.7619883 166.782195,49.7924246 C166.667611,49.822861 166.549449,49.8380789 166.427703,49.8380789 C166.345346,49.8380789 166.26299,49.8291272 166.180633,49.8112234 C166.098276,49.7933197 166.024871,49.7601983 165.960418,49.7118582 C165.895965,49.6635181 165.843149,49.5999608 165.801971,49.5211844 C165.760792,49.4424079 165.740203,49.3403582 165.740203,49.215032 L166.051727,46.2609305 C166.058888,46.182154 166.074106,46.0989029 166.097381,46.0111746 C166.120656,45.9234463 166.156463,45.8419855 166.204803,45.7667898 C166.253143,45.6915942 166.317595,45.6298272 166.398162,45.5814871 C166.478729,45.533147 166.581674,45.5089773 166.707,45.5089773 L168.855438,45.5089773 C168.987925,45.5089773 169.123096,45.5161387 169.260955,45.5304617 C169.398814,45.5447847 169.522348,45.5770109 169.631561,45.6271414 C169.740773,45.6772719 169.830291,45.7515713 169.900115,45.8500418 C169.96994,45.9485123 170.004852,46.0818932 170.004852,46.2501883 C170.004852,46.4220641 169.96994,46.5581305 169.900115,46.6583914 C169.830291,46.7586523 169.740773,46.8338469 169.631561,46.8839773 C169.522348,46.9341078 169.398814,46.966334 169.260955,46.980657 C169.123096,46.99498 168.987925,47.0021414 168.855438,47.0021414 L167.566375,47.0021414 C167.537729,47.0021414 167.509979,47.0030366 167.483123,47.004827 C167.456267,47.0066173 167.432993,47.0146739 167.413299,47.0289969 C167.393605,47.0433199 167.377492,47.0656992 167.364959,47.0961355 C167.352426,47.1265719 167.34437,47.1704354 167.340789,47.2277273 L167.233367,48.2589773 Z M174.774383,48.0548758 C174.949839,48.0548758 175.087696,48.0790455 175.187957,48.1273855 C175.288218,48.1757256 175.364308,48.2410733 175.416229,48.3234305 C175.468149,48.4057877 175.501271,48.5015712 175.515594,48.610784 C175.529917,48.7199968 175.537078,48.8354741 175.537078,48.9572195 L175.537078,52.136907 C175.537078,52.2622332 175.529917,52.3786057 175.515594,52.4860281 C175.501271,52.5934505 175.469045,52.6874437 175.418914,52.7680105 C175.368784,52.8485774 175.293589,52.9121347 175.193328,52.9586844 C175.093067,53.0052341 174.957001,53.0285086 174.785125,53.0285086 C174.61683,53.0285086 174.482554,53.0061293 174.382293,52.9613699 C174.282032,52.9166106 174.205047,52.856634 174.151336,52.7814383 C174.097625,52.7062426 174.062713,52.6167253 174.0466,52.5128836 C174.030486,52.4090419 174.02243,52.2980404 174.02243,52.1798758 L174.02243,51.2238211 L172.185516,51.2238211 C171.963509,51.2238211 171.780894,51.2059176 171.637664,51.1701102 C171.494434,51.1343027 171.380747,51.0868585 171.2966,51.0277762 C171.212452,50.9686938 171.153371,50.8997655 171.119354,50.8209891 C171.085336,50.7422126 171.068328,50.661647 171.068328,50.5792898 C171.068328,50.5363209 171.072804,50.4933526 171.081756,50.4503836 C171.090708,50.4074146 171.100555,50.3644463 171.111297,50.3214773 L172.196258,46.5509695 C172.232065,46.4184819 172.266977,46.2895769 172.300994,46.1642508 C172.335011,46.0389246 172.38156,45.9279231 172.440643,45.831243 C172.499725,45.7345628 172.581186,45.6566827 172.685027,45.5976004 C172.788869,45.5385181 172.930306,45.5089773 173.109344,45.5089773 C173.238251,45.5089773 173.344776,45.5268808 173.428924,45.5626883 C173.513071,45.5984958 173.580209,45.6459399 173.63034,45.7050223 C173.68047,45.7641046 173.715382,45.8321378 173.735076,45.9091238 C173.75477,45.9861099 173.764617,46.0675707 173.764617,46.1535086 C173.764617,46.2394465 173.757456,46.3262783 173.743133,46.4140066 C173.72881,46.5017349 173.711802,46.5831957 173.692107,46.6583914 C173.672413,46.7335871 173.652719,46.8007251 173.633025,46.8598074 C173.613331,46.9188897 173.599904,46.9627532 173.592742,46.9913992 L173.560516,47.1068777 C173.539031,47.1838638 173.510386,47.2841232 173.474578,47.407659 C173.438771,47.5311948 173.399383,47.6726321 173.356414,47.8319754 C173.313445,47.9913186 173.268686,48.153345 173.222137,48.3180594 C173.111134,48.7047801 172.9876,49.143415 172.851531,49.6339773 L172.8945,49.6769461 L174.02243,49.6769461 L174.02243,48.9464773 C174.02243,48.8247319 174.029591,48.7101498 174.043914,48.6027273 C174.058237,48.4953049 174.090463,48.4013117 174.140594,48.3207449 C174.190724,48.2401781 174.265919,48.1757256 174.36618,48.1273855 C174.466441,48.0790455 174.602507,48.0548758 174.774383,48.0548758 Z" id="1547-5878-9996-3254" fill="#EF2D1D"></path>
                        <path d="M123.432569,63.4572195 C123.357373,63.5255792 123.275343,63.5791269 123.186475,63.6178641 C123.097607,63.6566012 122.992791,63.6759695 122.872022,63.6759695 C122.803662,63.6759695 122.74043,63.6628674 122.682325,63.6366629 C122.624219,63.6104583 122.574659,63.5751397 122.533643,63.5307059 C122.492627,63.486272 122.460157,63.4355727 122.436231,63.3786062 C122.412305,63.3216398 122.400342,63.2612563 122.400342,63.1974539 C122.400342,63.1336515 122.410596,63.0783949 122.431104,63.0316824 C122.451612,62.9849699 122.480095,62.9445244 122.516553,62.9103445 C122.553012,62.8761647 122.595166,62.8454033 122.643018,62.8180594 C122.69087,62.7907155 122.742139,62.7622327 122.796827,62.7326102 C122.910759,62.6574145 123.012728,62.5810806 123.102735,62.5036062 C123.192742,62.4261319 123.273063,62.3537856 123.343702,62.2865652 C123.41434,62.2193448 123.475863,62.1618096 123.528272,62.1139578 C123.580681,62.066106 123.626253,62.033066 123.664991,62.0148367 C123.687777,62.0034434 123.708854,61.9937593 123.728223,61.985784 C123.747592,61.9778087 123.76753,61.9721121 123.788038,61.9686941 C123.808545,61.9652762 123.831332,61.9629975 123.856397,61.9618582 C123.881462,61.9607189 123.913363,61.9601492 123.9521,61.9601492 C124.07059,61.9601492 124.164583,61.9840748 124.234082,62.0319266 C124.303581,62.0797784 124.35599,62.1418708 124.391309,62.2182059 C124.426628,62.2945409 124.448845,62.3805589 124.457959,62.4762625 C124.467074,62.5719661 124.471631,62.6688076 124.471631,62.7667898 L124.471631,65.9386648 C124.471631,66.0389258 124.467074,66.1374762 124.457959,66.2343191 C124.448845,66.3311621 124.426628,66.4171801 124.391309,66.4923758 C124.35599,66.5675715 124.303581,66.6285246 124.234082,66.6752371 C124.164583,66.7219496 124.07059,66.7453055 123.9521,66.7453055 C123.831331,66.7453055 123.736768,66.7219496 123.668409,66.6752371 C123.600049,66.6285246 123.54821,66.5675715 123.512891,66.4923758 C123.477572,66.4171801 123.455355,66.3311621 123.446241,66.2343191 C123.437126,66.1374762 123.432569,66.0389258 123.432569,65.9386648 L123.432569,63.4572195 Z M126.775342,61.9328055 C127.03283,61.9328055 127.258984,61.9675545 127.453809,62.0370535 C127.648634,62.1065526 127.810986,62.203394 127.94087,62.3275809 C128.070753,62.4517677 128.168734,62.5998782 128.234815,62.7719168 C128.300896,62.9439554 128.333936,63.1336508 128.333936,63.3410086 C128.333936,63.477728 128.315137,63.6041916 128.277539,63.7204031 C128.239942,63.8366146 128.190951,63.9425706 128.130567,64.0382742 C128.070182,64.1339778 128.001254,64.2205655 127.92378,64.2980398 C127.846305,64.3755142 127.767693,64.4438729 127.68794,64.503118 C127.496533,64.6443947 127.281203,64.7583259 127.041944,64.8449148 C126.962191,64.876816 126.883009,64.914983 126.804395,64.9594168 C126.725781,65.0038506 126.655714,65.0551196 126.59419,65.1132254 C126.532666,65.1713311 126.482536,65.2385505 126.443799,65.3148855 C126.405062,65.3912206 126.385694,65.4783779 126.385694,65.5763602 L126.385694,65.7882742 L127.575147,65.7882742 C127.67085,65.7882742 127.766553,65.7928315 127.862256,65.8019461 C127.95796,65.8110607 128.044548,65.8315683 128.122022,65.8634695 C128.199496,65.8953707 128.262158,65.9426522 128.31001,66.0053152 C128.357862,66.0679783 128.381788,66.152857 128.381788,66.2599539 C128.381788,66.3693295 128.357862,66.4559171 128.31001,66.5197195 C128.262158,66.5835219 128.199496,66.6325123 128.122022,66.6666922 C128.044548,66.700872 127.95796,66.722519 127.862256,66.7316336 C127.766553,66.7407482 127.67085,66.7453055 127.575147,66.7453055 L125.872998,66.7453055 C125.759066,66.7453055 125.665072,66.7265068 125.591016,66.688909 C125.51696,66.6513111 125.458285,66.6034601 125.414991,66.5453543 C125.371696,66.4872485 125.341504,66.4223078 125.324414,66.3505301 C125.307325,66.2787524 125.29878,66.2075454 125.29878,66.136907 L125.29878,65.590032 C125.29878,65.4145754 125.327832,65.2499449 125.385938,65.0961355 C125.444044,64.9423262 125.526074,64.8021909 125.632032,64.6757254 C125.737989,64.5492599 125.864453,64.4358984 126.011426,64.3356375 C126.1584,64.2353766 126.321891,64.1499282 126.501905,64.0792898 C126.681919,64.0086515 126.825472,63.9408624 126.932569,63.8759207 C127.039666,63.810979 127.122266,63.7471775 127.180371,63.6845145 C127.238477,63.6218514 127.276644,63.5586196 127.294873,63.4948172 C127.313103,63.4310148 127.322217,63.366074 127.322217,63.299993 C127.322217,63.1815028 127.302279,63.0880792 127.262403,63.0197195 C127.222526,62.9513598 127.173536,62.9006605 127.11543,62.8676199 C127.057324,62.8345794 126.996941,62.8140718 126.934278,62.8060965 C126.871615,62.7981212 126.818637,62.7941336 126.775342,62.7941336 C126.661409,62.7941336 126.570264,62.8106536 126.501905,62.8436941 C126.433545,62.8767347 126.381706,62.9183195 126.346387,62.96845 C126.311068,63.0185805 126.288282,63.0738371 126.278028,63.1342215 C126.267774,63.1946059 126.262647,63.2521411 126.262647,63.3068289 C126.262647,63.3956965 126.245557,63.4714608 126.211377,63.5341238 C126.177197,63.5967869 126.134473,63.6474863 126.083204,63.6862234 C126.031934,63.7249606 125.976107,63.7534434 125.915723,63.7716727 C125.855339,63.7899019 125.800082,63.7990164 125.749952,63.7990164 C125.595003,63.7990164 125.469679,63.7562922 125.373975,63.6708426 C125.278271,63.5853929 125.23042,63.4754494 125.23042,63.3410086 C125.23042,63.2817635 125.237256,63.2054296 125.250928,63.1120047 C125.2646,63.0185797 125.290804,62.9194596 125.329541,62.8146414 C125.368279,62.7098232 125.422966,62.6050065 125.493604,62.5001883 C125.564242,62.39537 125.656527,62.3008072 125.770459,62.2164969 C125.884392,62.1321866 126.023388,62.0638279 126.187452,62.0114187 C126.351515,61.9590096 126.547476,61.9328055 126.775342,61.9328055 Z M129.598584,66.4923758 C129.580355,66.531113 129.560417,66.5704192 129.53877,66.6102957 C129.517123,66.6501722 129.490919,66.6866302 129.460157,66.7196707 C129.429395,66.7527112 129.394076,66.7800547 129.3542,66.801702 C129.314323,66.8233492 129.268181,66.8341727 129.215772,66.8341727 C129.158805,66.8341727 129.095004,66.8182223 129.024366,66.7863211 C128.930941,66.7453053 128.863721,66.6997328 128.822705,66.6496023 C128.78169,66.5994719 128.757764,66.5470636 128.750928,66.4923758 C128.750928,66.4262947 128.758334,66.3693291 128.773145,66.3214773 C128.787956,66.2736255 128.805616,66.2234958 128.826123,66.1710867 L130.494092,62.2677664 C130.510043,62.2313079 130.527132,62.1937106 130.545362,62.1549734 C130.563591,62.1162363 130.585238,62.0814873 130.610303,62.0507254 C130.635368,62.0199635 130.664421,61.9937594 130.697461,61.9721121 C130.730502,61.9504649 130.769808,61.9373628 130.815381,61.9328055 C130.863233,61.9328055 130.907097,61.9362234 130.946973,61.9430594 C130.98685,61.9498953 131.029574,61.9624278 131.075147,61.980657 C131.164015,62.0193942 131.227816,62.0632577 131.266553,62.1122488 C131.30529,62.16124 131.328077,62.2130786 131.334913,62.2677664 C131.334913,62.3361261 131.327507,62.3965096 131.312696,62.4489187 C131.297884,62.5013279 131.280225,62.5503183 131.259717,62.5958914 L129.598584,66.4923758 Z M133.495069,61.9328055 C133.752557,61.9328055 133.97871,61.9675545 134.173536,62.0370535 C134.368361,62.1065526 134.530713,62.203394 134.660596,62.3275809 C134.79048,62.4517677 134.88846,62.5998782 134.954541,62.7719168 C135.020622,62.9439554 135.053663,63.1336508 135.053663,63.3410086 C135.053663,63.477728 135.034864,63.6041916 134.997266,63.7204031 C134.959668,63.8366146 134.910678,63.9425706 134.850293,64.0382742 C134.789909,64.1339778 134.720981,64.2205655 134.643506,64.2980398 C134.566032,64.3755142 134.487419,64.4438729 134.407666,64.503118 C134.216259,64.6443947 134.000929,64.7583259 133.76167,64.8449148 C133.681917,64.876816 133.602735,64.914983 133.524121,64.9594168 C133.445508,65.0038506 133.37544,65.0551196 133.313916,65.1132254 C133.252393,65.1713311 133.202263,65.2385505 133.163526,65.3148855 C133.124789,65.3912206 133.10542,65.4783779 133.10542,65.5763602 L133.10542,65.7882742 L134.294873,65.7882742 C134.390577,65.7882742 134.486279,65.7928315 134.581983,65.8019461 C134.677686,65.8110607 134.764274,65.8315683 134.841748,65.8634695 C134.919223,65.8953707 134.981885,65.9426522 135.029737,66.0053152 C135.077589,66.0679783 135.101514,66.152857 135.101514,66.2599539 C135.101514,66.3693295 135.077589,66.4559171 135.029737,66.5197195 C134.981885,66.5835219 134.919223,66.6325123 134.841748,66.6666922 C134.764274,66.700872 134.677686,66.722519 134.581983,66.7316336 C134.486279,66.7407482 134.390577,66.7453055 134.294873,66.7453055 L132.592725,66.7453055 C132.478792,66.7453055 132.384799,66.7265068 132.310743,66.688909 C132.236686,66.6513111 132.178012,66.6034601 132.134717,66.5453543 C132.091423,66.4872485 132.061231,66.4223078 132.044141,66.3505301 C132.027051,66.2787524 132.018506,66.2075454 132.018506,66.136907 L132.018506,65.590032 C132.018506,65.4145754 132.047559,65.2499449 132.105664,65.0961355 C132.16377,64.9423262 132.245801,64.8021909 132.351758,64.6757254 C132.457716,64.5492599 132.584179,64.4358984 132.731153,64.3356375 C132.878126,64.2353766 133.041617,64.1499282 133.221631,64.0792898 C133.401645,64.0086515 133.545198,63.9408624 133.652295,63.8759207 C133.759392,63.810979 133.841992,63.7471775 133.900098,63.6845145 C133.958204,63.6218514 133.996371,63.5586196 134.0146,63.4948172 C134.032829,63.4310148 134.041944,63.366074 134.041944,63.299993 C134.041944,63.1815028 134.022006,63.0880792 133.982129,63.0197195 C133.942253,62.9513598 133.893262,62.9006605 133.835157,62.8676199 C133.777051,62.8345794 133.716667,62.8140718 133.654004,62.8060965 C133.591341,62.7981212 133.538363,62.7941336 133.495069,62.7941336 C133.381136,62.7941336 133.289991,62.8106536 133.221631,62.8436941 C133.153272,62.8767347 133.101433,62.9183195 133.066114,62.96845 C133.030794,63.0185805 133.008008,63.0738371 132.997754,63.1342215 C132.9875,63.1946059 132.982373,63.2521411 132.982373,63.3068289 C132.982373,63.3956965 132.965284,63.4714608 132.931104,63.5341238 C132.896924,63.5967869 132.8542,63.6474863 132.80293,63.6862234 C132.75166,63.7249606 132.695834,63.7534434 132.63545,63.7716727 C132.575065,63.7899019 132.519809,63.7990164 132.469678,63.7990164 C132.314729,63.7990164 132.189405,63.7562922 132.093702,63.6708426 C131.997998,63.5853929 131.950147,63.4754494 131.950147,63.3410086 C131.950147,63.2817635 131.956983,63.2054296 131.970655,63.1120047 C131.984327,63.0185797 132.010531,62.9194596 132.049268,62.8146414 C132.088005,62.7098232 132.142692,62.6050065 132.21333,62.5001883 C132.283969,62.39537 132.376253,62.3008072 132.490186,62.2164969 C132.604119,62.1321866 132.743115,62.0638279 132.907178,62.0114187 C133.071241,61.9590096 133.267203,61.9328055 133.495069,61.9328055 Z M135.58003,63.3273367 C135.58003,63.106307 135.611361,62.9177509 135.674024,62.7616629 C135.736687,62.6055749 135.817008,62.476263 135.914991,62.3737234 C136.012973,62.2711839 136.121207,62.1902927 136.239698,62.1310477 C136.358188,62.0718026 136.473828,62.0273694 136.586621,61.9977469 C136.699415,61.9681243 136.800814,61.9498953 136.890821,61.9430594 C136.980828,61.9362234 137.047477,61.9328055 137.090772,61.9328055 L137.206983,61.9328055 C137.250277,61.9328055 137.317497,61.9362234 137.408643,61.9430594 C137.499789,61.9498953 137.600618,61.9681243 137.711133,61.9977469 C137.821648,62.0273694 137.935579,62.0718026 138.05293,62.1310477 C138.170281,62.1902927 138.277376,62.2711839 138.374219,62.3737234 C138.471062,62.476263 138.550244,62.6055749 138.611768,62.7616629 C138.673292,62.9177509 138.704053,63.106307 138.704053,63.3273367 L138.704053,65.3439383 C138.704053,65.571804 138.673292,65.765487 138.611768,65.924993 C138.550244,66.084499 138.471062,66.2172288 138.374219,66.3231863 C138.277376,66.4291439 138.170281,66.511744 138.05293,66.5709891 C137.935579,66.6302342 137.821648,66.675237 137.711133,66.7059988 C137.600618,66.7367607 137.499789,66.7555593 137.408643,66.7623953 C137.317497,66.7692313 137.250277,66.7726492 137.206983,66.7726492 L137.090772,66.7726492 C137.047477,66.7726492 136.980828,66.7692313 136.890821,66.7623953 C136.800814,66.7555593 136.699415,66.7367607 136.586621,66.7059988 C136.473828,66.675237 136.358188,66.6302342 136.239698,66.5709891 C136.121207,66.511744 136.012973,66.4291439 135.914991,66.3231863 C135.817008,66.2172288 135.736687,66.084499 135.674024,65.924993 C135.611361,65.765487 135.58003,65.571804 135.58003,65.3439383 L135.58003,63.3273367 Z M136.701123,65.5216727 C136.707959,65.6014257 136.729606,65.672063 136.766065,65.7335867 C136.795687,65.7859958 136.84069,65.8344166 136.901075,65.8788504 C136.961459,65.9232842 137.045198,65.9455008 137.152295,65.9455008 C137.257114,65.9455008 137.339144,65.9232842 137.398389,65.8788504 C137.457634,65.8344166 137.502067,65.7859958 137.53169,65.7335867 C137.56587,65.672063 137.587517,65.6014257 137.596631,65.5216727 L137.596631,63.2111258 C137.587517,63.1313728 137.56587,63.0607355 137.53169,62.9992117 C137.502067,62.9468026 137.457634,62.8983819 137.398389,62.853948 C137.339144,62.8095142 137.257114,62.7872977 137.152295,62.7872977 C137.045198,62.7872977 136.961459,62.8095142 136.901075,62.853948 C136.84069,62.8983819 136.795687,62.9468026 136.766065,62.9992117 C136.729606,63.0607355 136.707959,63.1313728 136.701123,63.2111258 L136.701123,65.5216727 Z" id="12/20" fill="#7E8595"></path>
                    </g>
                </g>
            </g>
        </g>
    </g>
</svg>