<?xml version="1.0" encoding="UTF-8"?>
<svg width="344px" height="168px" viewBox="0 0 344 168" version="1.1" xmlns="http://www.w3.org/2000/svg" xmlns:xlink="http://www.w3.org/1999/xlink">
    <!-- Generator: sketchtool 51.3 (57544) - http://www.bohemiancoding.com/sketch -->
    <title>4B7C4FCD-DC1A-4BDC-86D0-F63ED51A8418</title>
    <desc>Created with sketchtool.</desc>
    <defs>
        <rect id="path-1" x="0" y="0" width="799" height="382" rx="4"></rect>
        <filter x="-0.4%" y="-0.7%" width="100.9%" height="101.8%" filterUnits="objectBoundingBox" id="filter-2">
            <feOffset dx="0" dy="1" in="SourceAlpha" result="shadowOffsetOuter1"></feOffset>
            <feGaussianBlur stdDeviation="1" in="shadowOffsetOuter1" result="shadowBlurOuter1"></feGaussianBlur>
            <feColorMatrix values="0 0 0 0 0   0 0 0 0 0   0 0 0 0 0  0 0 0 0.16 0" type="matrix" in="shadowBlurOuter1"></feColorMatrix>
        </filter>
        <linearGradient x1="24.3055556%" y1="7.03667535%" x2="50%" y2="100%" id="linearGradient-3">
            <stop stop-color="#F8583D" offset="0%"></stop>
            <stop stop-color="#EF2D1D" offset="100%"></stop>
        </linearGradient>
    </defs>
    <g id="Выдача" stroke="none" stroke-width="1" fill="none" fill-rule="evenodd">
        <g id="pics" transform="translate(-1154.000000, -116.000000)">
            <rect fill="#F4F4F4" x="0" y="0" width="1795" height="1859"></rect>
            <g id="Group-2" transform="translate(926.000000, 84.000000)">
                <g id="Rectangle-8">
                    <use fill="black" fill-opacity="1" filter="url(#filter-2)" xlink:href="#path-1"></use>
                    <use fill="#FFFFFF" fill-rule="evenodd" xlink:href="#path-1"></use>
                </g>
                <g id="Group" transform="translate(228.000000, 32.000000)">
                    <path d="M286.2,69 L255,69 C255.3,69 255.6,69 255.9,69 C247.8,68.5 241.3,61.8 241.3,53.5 C241.3,45.3 247.8,38.5 255.9,38 C255.6,38 255.3,38 255,38 L258.9,38 C267.4,38 274.4,31 274.4,22.5 C274.4,14 267.4,7 258.9,7 L76.4,7 C67.9,7 60.9,14 60.9,22.5 C60.9,31 67.9,38 76.4,38 L91.7,38 C100.2,38 107.2,45 107.2,53.5 C107.2,62 100.2,69 91.7,69 L56.5,69 C48,69 41,76 41,84.5 C41,93 48,100 56.5,100 L107.2,100 C115,100.2 121.7,107.1 121.7,115.5 C121.7,123.9 115,130.7 106.7,131 C106.833333,131 104.066667,131 98.4,131 C89.9,131 82.9,138 82.9,146.5 C82.9,155 89.9,162 98.4,162 L222.8,162 C231.3,162 238.3,155 238.3,146.5 C238.3,138 231.3,131 222.8,131 C214.3,131 207.3,124 207.3,115.5 C207.3,107 214.3,100 222.8,100 L286.2,100 C294.7,100 301.7,93 301.7,84.5 C301.7,76 294.7,69 286.2,69 Z" id="Shape" fill="#F4F4F4" fill-rule="nonzero"></path>
                    <path d="M313.6,7 L299.5,7 C291,7 284,14 284,22.5 C284,31 291,38 299.5,38 L313.6,38 C322.1,38 329.1,31 329.1,22.5 C329,14 322.1,7 313.6,7 Z" id="Shape" fill="#F4F4F4" fill-rule="nonzero"></path>
                    <g id="Group-41" transform="translate(52.000000, 16.000000)">
                        <path d="M234.0859,72.2866 L192.6899,58.9176 C190.5959,58.2416 189.4369,55.9756 190.1119,53.8826 C190.7879,51.7886 193.0549,50.6286 195.1479,51.3056 L236.5449,64.6736 C238.6379,65.3496 239.7979,67.6166 239.1219,69.7096 C238.4449,71.8036 236.1799,72.9626 234.0859,72.2866" id="Fill-1" fill="#D6D9E0"></path>
                        <path d="M86.1792,71.0571 L55.4192,101.8171 C53.8632,103.3731 51.3172,103.3731 49.7622,101.8171 C48.2062,100.2621 48.2062,97.7171 49.7622,96.1611 L80.5222,65.4001 C82.0782,63.8451 84.6232,63.8451 86.1792,65.4001 C87.7352,66.9561 87.7352,69.5011 86.1792,71.0571" id="Fill-3" fill="#D6D9E0"></path>
                        <path d="M49.4985,101.3994 L25.1775,77.9634 C23.7645,76.6014 23.7225,74.3304 25.0835,72.9174 L25.6825,72.2954 C27.0445,70.8824 29.3155,70.8404 30.7285,72.2024 L55.0495,95.6384 C56.4625,97.0014 56.5045,99.2714 55.1435,100.6854 L54.5445,101.3054 C53.1825,102.7194 50.9115,102.7614 49.4985,101.3994" id="Fill-5" fill="#D6D9E0"></path>
                        <path d="M210.9639,99.6445 L238.3659,71.6475 C239.7939,70.1885 239.7689,67.8275 238.3099,66.3995 L237.8969,65.9955 C236.4379,64.5675 234.0759,64.5935 232.6489,66.0515 L205.2469,94.0485 C203.8189,95.5075 203.8449,97.8695 205.3029,99.2965 L205.7169,99.7015 C207.1749,101.1285 209.5359,101.1035 210.9639,99.6445" id="Fill-7" fill="#D6D9E0"></path>
                        <path d="M210.0605,92.0195 L210.3875,92.1245 C211.6325,92.5275 212.3225,93.8735 211.9195,95.1185 L209.4525,102.7595 C209.0505,104.0035 207.7035,104.6935 206.4585,104.2915 L206.1315,104.1855 C204.8875,103.7845 204.1985,102.4375 204.5995,101.1925 L207.0675,93.5515 C207.4695,92.3065 208.8165,91.6185 210.0605,92.0195" id="Fill-9" fill="#D6D9E0"></path>
                        <path d="M204.6523,103.3027 L204.6293,103.0537 C204.5373,102.1087 205.2363,101.2607 206.1813,101.1687 L219.1603,99.9157 C220.1053,99.8247 220.9543,100.5247 221.0453,101.4697 L221.0693,101.7177 C221.1603,102.6627 220.4623,103.5117 219.5163,103.6027 L206.5373,104.8557 C205.5913,104.9477 204.7443,104.2477 204.6523,103.3027" id="Fill-11" fill="#D6D9E0"></path>
                        <path d="M208.3379,106.0088 L208.3609,105.7468 C208.4509,104.7478 209.3419,104.0038 210.3409,104.0938 L222.3339,105.1728 C223.3319,105.2628 224.0759,106.1538 223.9859,107.1518 L223.9629,107.4138 C223.8729,108.4128 222.9829,109.1558 221.9839,109.0668 L209.9909,107.9878 C208.9919,107.8988 208.2479,107.0078 208.3379,106.0088" id="Fill-13" fill="#D6D9E0"></path>
                        <path d="M202.3467,104.7812 L202.4807,104.4652 C202.9877,103.2592 204.3887,102.6872 205.5937,103.1952 L222.4617,110.2922 C223.6667,110.7992 224.2387,112.2002 223.7317,113.4052 L223.5977,113.7222 C223.0907,114.9272 221.6897,115.4992 220.4847,114.9922 L203.6167,107.8952 C202.4107,107.3872 201.8397,105.9872 202.3467,104.7812" id="Fill-15" fill="#D6D9E0"></path>
                        <path d="M86,107 L197,107 C201.418278,107 205,103.418278 205,99 L205,28 C205,23.581722 201.418278,20 197,20 L86,20 C81.581722,20 78,23.581722 78,28 L78,99 C78,103.418278 81.581722,107 86,107 Z" id="Fill-17" fill="#FFFFFF"></path>
                        <path d="M87,107 L196,107 C200.970563,107 205,102.970563 205,98 L205,29 C205,24.0294373 200.970563,20 196,20 L86,20 C81.581722,20 78,23.581722 78,28 L78,98 C78,102.970563 82.0294373,107 87,107 Z" id="Stroke-19" stroke="#7E8595" stroke-width="2.002" stroke-linecap="round" stroke-linejoin="round"></path>
                        <polygon id="Fill-20" fill="#EBF9FF" points="84 101 199 101 199 25.949 84 25.949"></polygon>
                        <circle id="Oval-2" fill="#FFDADA" cx="106.5" cy="79.5" r="8.5"></circle>
                        <circle id="Oval-2" fill="#FFDADA" cx="178.5" cy="79.5" r="8.5"></circle>
                        <path d="M88,101 L195,101 C197.209139,101 199,99.209139 199,97 L199,29.949 C199,27.739861 197.209139,25.949 195,25.949 L88,25.949 C85.790861,25.949 84,27.739861 84,29.949 L84,97 C84,99.209139 85.790861,101 88,101 Z" id="Stroke-21" stroke="#7E8595" stroke-width="2.008" stroke-linecap="round" stroke-linejoin="round"></path>
                        <path d="M27,94 L27,94 C28.6568542,94 30,92.6568542 30,91 L30,47 L24,47 L24,91 C24,92.6568542 25.3431458,94 27,94 Z" id="Fill-22" fill="#A4A9B5"></path>
                        <path d="M124.125,58.3145 C124.125,60.9025 122.027,63.0005 119.439,63.0005 C116.852,63.0005 114.754,60.9025 114.754,58.3145 C114.754,55.7275 116.852,53.6295 119.439,53.6295 C122.027,53.6295 124.125,55.7275 124.125,58.3145" id="Fill-23" fill="#FFFFFF"></path>
                        <path d="M124.125,58.3145 C124.125,60.9025 122.027,63.0005 119.439,63.0005 C116.852,63.0005 114.754,60.9025 114.754,58.3145 C114.754,55.7275 116.852,53.6295 119.439,53.6295 C122.027,53.6295 124.125,55.7275 124.125,58.3145 Z" id="Stroke-24" stroke="#29B6F6" stroke-width="2" stroke-linecap="round" stroke-linejoin="round"></path>
                        <path d="M119.7539,57.3145 C119.7539,58.5925 118.7179,59.6295 117.4399,59.6295 C116.1609,59.6295 115.1249,58.5925 115.1249,57.3145 C115.1249,56.0365 116.1609,55.0005 117.4399,55.0005 C118.7179,55.0005 119.7539,56.0365 119.7539,57.3145" id="Fill-25" fill="#29B6F6"></path>
                        <path d="M168.125,58.3145 C168.125,60.9025 166.027,63.0005 163.439,63.0005 C160.852,63.0005 158.754,60.9025 158.754,58.3145 C158.754,55.7275 160.852,53.6295 163.439,53.6295 C166.027,53.6295 168.125,55.7275 168.125,58.3145" id="Fill-26" fill="#FFFFFF"></path>
                        <path d="M168.125,58.3145 C168.125,60.9025 166.027,63.0005 163.439,63.0005 C160.852,63.0005 158.754,60.9025 158.754,58.3145 C158.754,55.7275 160.852,53.6295 163.439,53.6295 C166.027,53.6295 168.125,55.7275 168.125,58.3145 Z" id="Stroke-27" stroke="#29B6F6" stroke-width="2" stroke-linecap="round" stroke-linejoin="round"></path>
                        <path d="M163.7539,57.3145 C163.7539,58.5925 162.7179,59.6295 161.4399,59.6295 C160.1609,59.6295 159.1249,58.5925 159.1249,57.3145 C159.1249,56.0365 160.1609,55.0005 161.4399,55.0005 C162.7179,55.0005 163.7539,56.0365 163.7539,57.3145" id="Fill-28" fill="#29B6F6"></path>
                        <path d="M115.8413,43.4072 L122.7083,41.8512" id="Stroke-29" stroke="#29B6F6" stroke-width="2" stroke-linecap="round" stroke-linejoin="round"></path>
                        <path d="M160.8252,41.9233 L167.7232,43.3353" id="Stroke-30" stroke="#29B6F6" stroke-width="2" stroke-linecap="round" stroke-linejoin="round"></path>
                        <polygon id="Fill-31" fill="#FFFFFF" points="126 134 157 134 157 107 126 107"></polygon>
                        <polygon id="Stroke-32" stroke="#7E8595" stroke-width="2" stroke-linecap="round" stroke-linejoin="round" points="126 129 157 129 157 107 126 107"></polygon>
                        <polygon id="Fill-33" fill="#FFFFFF" points="114 134 169 134 169 130 114 130"></polygon>
                        <path d="M114,133 L169,133 L169,133 C169,130.790861 167.209139,129 165,129 L118,129 C115.790861,129 114,130.790861 114,133 Z" id="Stroke-34" stroke="#7E8595" stroke-width="2" stroke-linecap="round" stroke-linejoin="round"></path>
                        <path d="M22.7334,82.2959 C19.4354,82.4129 16.6414,79.8109 16.5244,76.5129 L16.3644,72.0159 C16.2474,68.7179 18.8494,65.9239 22.1474,65.8059 C25.4454,65.6889 28.2394,68.2919 28.3564,71.5889 L28.5164,76.0869 C28.6334,79.3849 26.0314,82.1789 22.7334,82.2959" id="Fill-35" fill="#D6D9E0"></path>
                        <path d="M22.9927,67.5132 L30.9797,67.9762 C32.0777,68.0402 32.9237,68.9912 32.8607,70.0892 C32.7967,71.1872 31.8457,72.0332 30.7477,71.9702 L22.7617,71.5062 C21.6627,71.4432 20.8167,70.4922 20.8807,69.3942 C20.9437,68.2962 21.8947,67.4492 22.9927,67.5132" id="Fill-36" fill="#D6D9E0"></path>
                        <path d="M32.7666,69.251 L35.6046,76.73 C35.9956,77.759 35.4726,78.919 34.4446,79.31 C33.4156,79.7 32.2546,79.178 31.8646,78.149 L29.0266,70.67 C28.6366,69.642 29.1586,68.48 30.1866,68.09 C31.2156,67.7 32.3766,68.222 32.7666,69.251" id="Fill-37" fill="#D6D9E0"></path>
                        <path d="M148,83.5 C148,87.643 144.643,91 140.5,91 C136.357,91 133,87.643 133,83.5 C133,79.357 136.357,76 140.5,76 C144.643,76 148,79.357 148,83.5 Z" id="Stroke-38" fill="#29B6F6"></path>
                        <path d="M54,27 C54,41.912 41.912,54 27,54 C12.088,54 0,41.912 0,27 C0,12.088 12.088,0 27,0 C41.912,0 54,12.088 54,27" id="Fill-39" fill="url(#linearGradient-3)"></path>
                        <path d="M36,32 L18,32 C15.25,32 13,29.75 13,27 C13,24.25 15.25,22 18,22 L36,22 C38.75,22 41,24.25 41,27 C41,29.75 38.75,32 36,32" id="Fill-40" fill="#FFFFFF"></path>
                    </g>
                </g>
            </g>
        </g>
    </g>
</svg>